note_on channel=0 note=69 velocity=64 time=0
note_on channel=0 note=64 velocity=64 time=0
note_on channel=0 note=65 velocity=64 time=0
note_on channel=0 note=70 velocity=64 time=0
note_on channel=0 note=69 velocity=64 time=0
note_on channel=0 note=67 velocity=64 time=0
note_on channel=0 note=70 velocity=64 time=0
note_on channel=0 note=61 velocity=64 time=0
note_on channel=0 note=70 velocity=64 time=0
note_on channel=0 note=64 velocity=64 time=0
note_on channel=0 note=69 velocity=64 time=0
note_on channel=0 note=65 velocity=64 time=0
note_on channel=0 note=64 velocity=64 time=0
note_on channel=0 note=61 velocity=64 time=0
note_on channel=0 note=65 velocity=64 time=0
note_on channel=0 note=67 velocity=64 time=0
note_on channel=0 note=69 velocity=64 time=0
note_on channel=0 note=61 velocity=64 time=0
note_on channel=0 note=69 velocity=64 time=0
note_on channel=0 note=70 velocity=64 time=0
note_on channel=0 note=70 velocity=64 time=0
note_on channel=0 note=61 velocity=64 time=0
note_on channel=0 note=64 velocity=64 time=0
note_on channel=0 note=60 velocity=64 time=0
note_on channel=0 note=67 velocity=64 time=0
note_on channel=0 note=70 velocity=64 time=0
note_on channel=0 note=64 velocity=64 time=0
note_on channel=0 note=60 velocity=64 time=0
note_on channel=0 note=67 velocity=64 time=0
note_on channel=0 note=69 velocity=64 time=0
note_on channel=0 note=60 velocity=64 time=0
note_on channel=0 note=69 velocity=64 time=0
note_on channel=0 note=61 velocity=64 time=0
note_on channel=0 note=61 velocity=64 time=0
note_on channel=0 note=70 velocity=64 time=0
note_on channel=0 note=65 velocity=64 time=0
note_on channel=0 note=65 velocity=64 time=0
note_on channel=0 note=70 velocity=64 time=0
note_on channel=0 note=70 velocity=64 time=0
note_on channel=0 note=70 velocity=64 time=0
note_on channel=0 note=67 velocity=64 time=0
note_on channel=0 note=67 velocity=64 time=0
note_on channel=0 note=65 velocity=64 time=0
note_on channel=0 note=61 velocity=64 time=0
note_on channel=0 note=65 velocity=64 time=0
note_on channel=0 note=65 velocity=64 time=0
note_on channel=0 note=70 velocity=64 time=0
note_on channel=0 note=61 velocity=64 time=0
note_on channel=0 note=61 velocity=64 time=0
note_on channel=0 note=69 velocity=64 time=0
note_on channel=0 note=67 velocity=64 time=0
note_on channel=0 note=64 velocity=64 time=0
note_on channel=0 note=69 velocity=64 time=0
note_on channel=0 note=64 velocity=64 time=0
note_on channel=0 note=69 velocity=64 time=0
note_on channel=0 note=70 velocity=64 time=0
note_on channel=0 note=60 velocity=64 time=0
note_on channel=0 note=60 velocity=64 time=0
note_on channel=0 note=61 velocity=64 time=0
note_on channel=0 note=69 velocity=64 time=0
note_on channel=0 note=69 velocity=64 time=0
note_on channel=0 note=69 velocity=64 time=0
note_on channel=0 note=67 velocity=64 time=0
note_on channel=0 note=65 velocity=64 time=0
note_on channel=0 note=64 velocity=64 time=0
note_on channel=0 note=65 velocity=64 time=0
note_on channel=0 note=60 velocity=64 time=0
note_on channel=0 note=65 velocity=64 time=0
note_on channel=0 note=69 velocity=64 time=0
note_on channel=0 note=69 velocity=64 time=0
note_on channel=0 note=70 velocity=64 time=0
note_on channel=0 note=67 velocity=64 time=0
note_on channel=0 note=69 velocity=64 time=0
note_on channel=0 note=69 velocity=64 time=0
note_on channel=0 note=64 velocity=64 time=0
note_on channel=0 note=61 velocity=64 time=0
note_on channel=0 note=61 velocity=64 time=0
note_on channel=0 note=70 velocity=64 time=0
note_on channel=0 note=60 velocity=64 time=0
note_on channel=0 note=64 velocity=64 time=0
note_on channel=0 note=69 velocity=64 time=0
note_on channel=0 note=65 velocity=64 time=0
note_on channel=0 note=67 velocity=64 time=0
note_on channel=0 note=65 velocity=64 time=0
note_on channel=0 note=60 velocity=64 time=0
note_on channel=0 note=65 velocity=64 time=0
note_on channel=0 note=67 velocity=64 time=0
note_off channel=0 note=61 velocity=64 time=1440
note_on channel=0 note=69 velocity=64 time=1440
note_on channel=0 note=70 velocity=64 time=1440
note_on channel=0 note=65 velocity=64 time=1440
note_off channel=0 note=65 velocity=64 time=1440
note_on channel=0 note=60 velocity=64 time=1440
note_on channel=0 note=69 velocity=64 time=1440
note_off channel=0 note=70 velocity=64 time=1440
note_on channel=0 note=60 velocity=64 time=1440
note_off channel=0 note=61 velocity=64 time=1440
note_off channel=0 note=64 velocity=64 time=1440
note_off channel=0 note=60 velocity=64 time=1440
note_on channel=0 note=70 velocity=64 time=1440
note_on channel=0 note=65 velocity=64 time=1440
note_off channel=0 note=61 velocity=64 time=1440
note_off channel=0 note=61 velocity=64 time=1440
note_on channel=0 note=67 velocity=64 time=1440
note_on channel=0 note=70 velocity=64 time=1440
note_on channel=0 note=67 velocity=64 time=1440
note_off channel=0 note=67 velocity=64 time=1440
note_on channel=0 note=70 velocity=64 time=1440
note_on channel=0 note=65 velocity=64 time=1440
note_off channel=0 note=69 velocity=64 time=1440
note_off channel=0 note=67 velocity=64 time=1440
note_on channel=0 note=69 velocity=64 time=1440
note_off channel=0 note=64 velocity=64 time=1440
note_on channel=0 note=65 velocity=64 time=1440
note_on channel=0 note=69 velocity=64 time=1440
note_off channel=0 note=65 velocity=64 time=1440
note_off channel=0 note=60 velocity=64 time=1440
note_on channel=0 note=65 velocity=64 time=1440
note_on channel=0 note=64 velocity=64 time=1440
note_off channel=0 note=70 velocity=64 time=1440
note_on channel=0 note=69 velocity=64 time=1440
note_on channel=0 note=69 velocity=64 time=1440
note_on channel=0 note=61 velocity=64 time=1440
note_off channel=0 note=67 velocity=64 time=1440
note_off channel=0 note=65 velocity=64 time=1440
note_on channel=0 note=64 velocity=64 time=1440
note_off channel=0 note=69 velocity=64 time=2880
note_off channel=0 note=64 velocity=64 time=2880
note_off channel=0 note=65 velocity=64 time=2880
note_off channel=0 note=70 velocity=64 time=2880
note_off channel=0 note=69 velocity=64 time=2880
note_off channel=0 note=64 velocity=64 time=2880
note_off channel=0 note=61 velocity=64 time=2880
note_off channel=0 note=65 velocity=64 time=2880
note_off channel=0 note=70 velocity=64 time=2880
note_off channel=0 note=67 velocity=64 time=2880
note_off channel=0 note=60 velocity=64 time=2880
note_off channel=0 note=67 velocity=64 time=2880
note_off channel=0 note=69 velocity=64 time=2880
note_off channel=0 note=60 velocity=64 time=2880
note_off channel=0 note=70 velocity=64 time=2880
note_off channel=0 note=65 velocity=64 time=2880
note_off channel=0 note=65 velocity=64 time=2880
note_off channel=0 note=70 velocity=64 time=2880
note_off channel=0 note=70 velocity=64 time=2880
note_off channel=0 note=70 velocity=64 time=2880
note_off channel=0 note=67 velocity=64 time=2880
note_off channel=0 note=65 velocity=64 time=2880
note_off channel=0 note=65 velocity=64 time=2880
note_off channel=0 note=70 velocity=64 time=2880
note_off channel=0 note=60 velocity=64 time=2880
note_off channel=0 note=60 velocity=64 time=2880
note_off channel=0 note=69 velocity=64 time=2880
note_off channel=0 note=69 velocity=64 time=2880
note_off channel=0 note=69 velocity=64 time=2880
note_off channel=0 note=67 velocity=64 time=2880
note_off channel=0 note=65 velocity=64 time=2880
note_off channel=0 note=65 velocity=64 time=2880
note_off channel=0 note=64 velocity=64 time=2880
note_off channel=0 note=65 velocity=64 time=2880
note_off channel=0 note=69 velocity=64 time=2880
note_off channel=0 note=69 velocity=64 time=2880
note_off channel=0 note=67 velocity=64 time=2880
note_off channel=0 note=69 velocity=64 time=2880
note_off channel=0 note=69 velocity=64 time=2880
note_off channel=0 note=64 velocity=64 time=2880
note_off channel=0 note=61 velocity=64 time=2880
note_off channel=0 note=61 velocity=64 time=2880
note_off channel=0 note=69 velocity=64 time=2880
note_off channel=0 note=65 velocity=64 time=2880
note_off channel=0 note=64 velocity=64 time=2880
note_off channel=0 note=60 velocity=64 time=4320
note_off channel=0 note=69 velocity=64 time=4320
note_off channel=0 note=70 velocity=64 time=4320
note_off channel=0 note=65 velocity=64 time=4320
note_off channel=0 note=65 velocity=64 time=4320
note_off channel=0 note=69 velocity=64 time=4320
note_off channel=0 note=69 velocity=64 time=4320
note_off channel=0 note=69 velocity=64 time=4320
note_off channel=0 note=61 velocity=64 time=4320
note_off channel=0 note=67 velocity=64 time=5760
note_off channel=0 note=70 velocity=64 time=5760
note_off channel=0 note=70 velocity=64 time=5760
note_off channel=0 note=64 velocity=64 time=5760
note_off channel=0 note=69 velocity=64 time=5760
note_off channel=0 note=67 velocity=64 time=5760
note_off channel=0 note=69 velocity=64 time=5760
note_off channel=0 note=61 velocity=64 time=5760
note_off channel=0 note=69 velocity=64 time=5760
note_off channel=0 note=70 velocity=64 time=5760
note_off channel=0 note=64 velocity=64 time=5760
note_off channel=0 note=69 velocity=64 time=5760
note_off channel=0 note=65 velocity=64 time=5760
note_off channel=0 note=61 velocity=64 time=5760
note_off channel=0 note=70 velocity=64 time=5760
note_off channel=0 note=61 velocity=64 time=5760
note_off channel=0 note=61 velocity=64 time=5760
note_off channel=0 note=69 velocity=64 time=5760
note_off channel=0 note=64 velocity=64 time=5760
note_off channel=0 note=69 velocity=64 time=5760
note_off channel=0 note=61 velocity=64 time=5760
note_off channel=0 note=64 velocity=64 time=5760
note_off channel=0 note=70 velocity=64 time=5760
note_off channel=0 note=60 velocity=64 time=5760
note_off channel=0 note=64 velocity=64 time=5760
note_off channel=0 note=60 velocity=64 time=5760
note_off channel=0 note=65 velocity=64 time=5760
note_off channel=0 note=67 velocity=64 time=5760
note_off channel=0 note=69 velocity=64 time=7200
note_off channel=0 note=70 velocity=64 time=7200
note_off channel=0 note=65 velocity=64 time=7200
note_off channel=0 note=60 velocity=64 time=7200
note_off channel=0 note=67 velocity=64 time=7200
note_off channel=0 note=70 velocity=64 time=7200
note_off channel=0 note=67 velocity=64 time=7200
note_off channel=0 note=70 velocity=64 time=7200
note_off channel=0 note=65 velocity=64 time=7200
note_off channel=0 note=69 velocity=64 time=7200
