note_on channel=0 note=69 velocity=64 time=0
note_on channel=0 note=64 velocity=64 time=0
note_on channel=0 note=65 velocity=64 time=0
note_on channel=0 note=65 velocity=64 time=0
note_on channel=0 note=60 velocity=64 time=0
note_on channel=0 note=65 velocity=64 time=0
note_on channel=0 note=70 velocity=64 time=0
note_on channel=0 note=69 velocity=64 time=0
note_on channel=0 note=61 velocity=64 time=0
note_on channel=0 note=61 velocity=64 time=0
note_on channel=0 note=67 velocity=64 time=0
note_on channel=0 note=65 velocity=64 time=0
note_on channel=0 note=65 velocity=64 time=0
note_on channel=0 note=61 velocity=64 time=0
note_on channel=0 note=64 velocity=64 time=0
note_on channel=0 note=60 velocity=64 time=0
note_on channel=0 note=69 velocity=64 time=0
note_on channel=0 note=65 velocity=64 time=0
note_on channel=0 note=69 velocity=64 time=0
note_on channel=0 note=67 velocity=64 time=0
note_on channel=0 note=67 velocity=64 time=0
note_on channel=0 note=69 velocity=64 time=0
note_on channel=0 note=65 velocity=64 time=0
note_on channel=0 note=65 velocity=64 time=0
note_on channel=0 note=60 velocity=64 time=0
note_on channel=0 note=60 velocity=64 time=0
note_on channel=0 note=67 velocity=64 time=0
note_on channel=0 note=61 velocity=64 time=0
note_on channel=0 note=70 velocity=64 time=0
note_on channel=0 note=69 velocity=64 time=0
note_on channel=0 note=65 velocity=64 time=0
note_on channel=0 note=64 velocity=64 time=0
note_on channel=0 note=61 velocity=64 time=0
note_on channel=0 note=64 velocity=64 time=0
note_on channel=0 note=60 velocity=64 time=0
note_on channel=0 note=65 velocity=64 time=0
note_on channel=0 note=61 velocity=64 time=0
note_on channel=0 note=65 velocity=64 time=0
note_on channel=0 note=65 velocity=64 time=0
note_on channel=0 note=64 velocity=64 time=0
note_on channel=0 note=61 velocity=64 time=0
note_on channel=0 note=60 velocity=64 time=0
note_on channel=0 note=69 velocity=64 time=0
note_on channel=0 note=60 velocity=64 time=0
note_on channel=0 note=64 velocity=64 time=0
note_on channel=0 note=64 velocity=64 time=0
note_on channel=0 note=60 velocity=64 time=0
note_on channel=0 note=69 velocity=64 time=0
note_on channel=0 note=69 velocity=64 time=0
note_on channel=0 note=65 velocity=64 time=0
note_on channel=0 note=61 velocity=64 time=0
note_on channel=0 note=65 velocity=64 time=0
note_on channel=0 note=67 velocity=64 time=0
note_on channel=0 note=64 velocity=64 time=0
note_on channel=0 note=70 velocity=64 time=0
note_on channel=0 note=67 velocity=64 time=0
note_on channel=0 note=61 velocity=64 time=0
note_on channel=0 note=60 velocity=64 time=0
note_on channel=0 note=60 velocity=64 time=0
note_on channel=0 note=64 velocity=64 time=0
note_on channel=0 note=61 velocity=64 time=0
note_on channel=0 note=61 velocity=64 time=0
note_on channel=0 note=60 velocity=64 time=0
note_on channel=0 note=67 velocity=64 time=0
note_on channel=0 note=67 velocity=64 time=0
note_on channel=0 note=69 velocity=64 time=0
note_on channel=0 note=61 velocity=64 time=0
note_on channel=0 note=67 velocity=64 time=0
note_on channel=0 note=67 velocity=64 time=0
note_on channel=0 note=67 velocity=64 time=0
note_on channel=0 note=60 velocity=64 time=0
note_on channel=0 note=64 velocity=64 time=0
note_on channel=0 note=60 velocity=64 time=0
note_on channel=0 note=64 velocity=64 time=0
note_on channel=0 note=67 velocity=64 time=0
note_on channel=0 note=61 velocity=64 time=0
note_on channel=0 note=64 velocity=64 time=0
note_on channel=0 note=67 velocity=64 time=0
note_on channel=0 note=61 velocity=64 time=0
note_on channel=0 note=64 velocity=64 time=0
note_on channel=0 note=67 velocity=64 time=0
note_on channel=0 note=61 velocity=64 time=0
note_on channel=0 note=65 velocity=64 time=0
note_on channel=0 note=69 velocity=64 time=0
note_on channel=0 note=67 velocity=64 time=0
note_on channel=0 note=67 velocity=64 time=0
note_on channel=0 note=64 velocity=64 time=0
note_on channel=0 note=61 velocity=64 time=0
note_on channel=0 note=65 velocity=64 time=0
note_on channel=0 note=70 velocity=64 time=0
note_on channel=0 note=64 velocity=64 time=0
note_off channel=0 note=65 velocity=64 time=240
note_off channel=0 note=65 velocity=64 time=240
note_on channel=0 note=70 velocity=64 time=240
note_on channel=0 note=60 velocity=64 time=240
note_on channel=0 note=69 velocity=64 time=240
note_off channel=0 note=70 velocity=64 time=240
note_on channel=0 note=70 velocity=64 time=240
note_on channel=0 note=65 velocity=64 time=240
note_on channel=0 note=64 velocity=64 time=240
note_off channel=0 note=61 velocity=64 time=240
note_off channel=0 note=67 velocity=64 time=240
note_off channel=0 note=65 velocity=64 time=240
note_on channel=0 note=65 velocity=64 time=240
note_off channel=0 note=65 velocity=64 time=240
note_on channel=0 note=60 velocity=64 time=240
note_on channel=0 note=69 velocity=64 time=240
note_off channel=0 note=61 velocity=64 time=240
note_off channel=0 note=64 velocity=64 time=240
note_off channel=0 note=60 velocity=64 time=240
note_on channel=0 note=70 velocity=64 time=240
note_on channel=0 note=65 velocity=64 time=240
note_off channel=0 note=60 velocity=64 time=240
note_on channel=0 note=60 velocity=64 time=240
note_on channel=0 note=69 velocity=64 time=240
note_off channel=0 note=64 velocity=64 time=240
note_off channel=0 note=61 velocity=64 time=240
note_on channel=0 note=60 velocity=64 time=240
note_off channel=0 note=64 velocity=64 time=240
note_off channel=0 note=60 velocity=64 time=240
note_off channel=0 note=65 velocity=64 time=240
note_on channel=0 note=67 velocity=64 time=240
note_on channel=0 note=64 velocity=64 time=240
note_on channel=0 note=65 velocity=64 time=240
note_off channel=0 note=61 velocity=64 time=240
note_off channel=0 note=65 velocity=64 time=240
note_on channel=0 note=60 velocity=64 time=240
note_off channel=0 note=65 velocity=64 time=240
note_on channel=0 note=64 velocity=64 time=240
note_on channel=0 note=67 velocity=64 time=240
note_on channel=0 note=70 velocity=64 time=240
note_off channel=0 note=67 velocity=64 time=240
note_on channel=0 note=70 velocity=64 time=240
note_on channel=0 note=65 velocity=64 time=240
note_off channel=0 note=64 velocity=64 time=240
note_on channel=0 note=65 velocity=64 time=240
note_on channel=0 note=69 velocity=64 time=240
note_off channel=0 note=70 velocity=64 time=240
note_off channel=0 note=67 velocity=64 time=240
note_on channel=0 note=70 velocity=64 time=240
note_on channel=0 note=70 velocity=64 time=240
note_on channel=0 note=70 velocity=64 time=240
note_off channel=0 note=61 velocity=64 time=240
note_off channel=0 note=60 velocity=64 time=240
note_off channel=0 note=60 velocity=64 time=240
note_on channel=0 note=65 velocity=64 time=240
note_on channel=0 note=70 velocity=64 time=240
note_on channel=0 note=70 velocity=64 time=240
note_off channel=0 note=69 velocity=64 time=240
note_on channel=0 note=70 velocity=64 time=240
note_off channel=0 note=64 velocity=64 time=240
note_on channel=0 note=64 velocity=64 time=240
note_on channel=0 note=61 velocity=64 time=240
note_off channel=0 note=67 velocity=64 time=240
note_off channel=0 note=61 velocity=64 time=240
note_on channel=0 note=65 velocity=64 time=240
note_off channel=0 note=65 velocity=64 time=240
note_on channel=0 note=69 velocity=64 time=240
note_on channel=0 note=70 velocity=64 time=240
note_off channel=0 note=69 velocity=64 time=480
note_off channel=0 note=64 velocity=64 time=480
note_on channel=0 note=65 velocity=64 time=480
note_on channel=0 note=70 velocity=64 time=480
note_on channel=0 note=69 velocity=64 time=480
note_off channel=0 note=69 velocity=64 time=480
note_off channel=0 note=65 velocity=64 time=480
note_off channel=0 note=65 velocity=64 time=480
note_on channel=0 note=65 velocity=64 time=480
note_off channel=0 note=60 velocity=64 time=480
note_off channel=0 note=69 velocity=64 time=480
note_on channel=0 note=60 velocity=64 time=480
note_on channel=0 note=67 velocity=64 time=480
note_off channel=0 note=60 velocity=64 time=480
note_on channel=0 note=69 velocity=64 time=480
note_off channel=0 note=67 velocity=64 time=480
note_off channel=0 note=61 velocity=64 time=480
note_off channel=0 note=70 velocity=64 time=480
note_on channel=0 note=65 velocity=64 time=480
note_on channel=0 note=70 velocity=64 time=480
note_on channel=0 note=64 velocity=64 time=480
note_off channel=0 note=69 velocity=64 time=480
note_off channel=0 note=65 velocity=64 time=480
note_on channel=0 note=69 velocity=64 time=480
note_on channel=0 note=65 velocity=64 time=480
note_on channel=0 note=65 velocity=64 time=480
note_off channel=0 note=60 velocity=64 time=480
note_on channel=0 note=60 velocity=64 time=480
note_off channel=0 note=67 velocity=64 time=480
note_off channel=0 note=64 velocity=64 time=480
note_off channel=0 note=65 velocity=64 time=480
note_on channel=0 note=61 velocity=64 time=480
note_on channel=0 note=67 velocity=64 time=480
note_off channel=0 note=60 velocity=64 time=480
note_on channel=0 note=69 velocity=64 time=480
note_off channel=0 note=64 velocity=64 time=480
note_on channel=0 note=69 velocity=64 time=480
note_on channel=0 note=65 velocity=64 time=480
note_on channel=0 note=69 velocity=64 time=480
note_off channel=0 note=65 velocity=64 time=480
note_off channel=0 note=61 velocity=64 time=480
note_off channel=0 note=65 velocity=64 time=480
note_on channel=0 note=61 velocity=64 time=480
note_on channel=0 note=70 velocity=64 time=480
note_on channel=0 note=60 velocity=64 time=480
note_off channel=0 note=61 velocity=64 time=480
note_off channel=0 note=61 velocity=64 time=480
note_on channel=0 note=67 velocity=64 time=480
note_on channel=0 note=60 velocity=64 time=480
note_on channel=0 note=64 velocity=64 time=480
note_off channel=0 note=60 velocity=64 time=480
note_off channel=0 note=67 velocity=64 time=480
note_off channel=0 note=67 velocity=64 time=480
note_on channel=0 note=65 velocity=64 time=480
note_on channel=0 note=69 velocity=64 time=480
note_off channel=0 note=67 velocity=64 time=480
note_off channel=0 note=67 velocity=64 time=480
note_on channel=0 note=61 velocity=64 time=480
note_on channel=0 note=64 velocity=64 time=480
note_off channel=0 note=67 velocity=64 time=480
note_off channel=0 note=60 velocity=64 time=480
note_on channel=0 note=64 velocity=64 time=480
note_off channel=0 note=67 velocity=64 time=480
note_off channel=0 note=61 velocity=64 time=480
note_on channel=0 note=69 velocity=64 time=480
note_off channel=0 note=67 velocity=64 time=480
note_on channel=0 note=69 velocity=64 time=480
note_on channel=0 note=65 velocity=64 time=480
note_on channel=0 note=65 velocity=64 time=480
note_off channel=0 note=61 velocity=64 time=480
note_off channel=0 note=65 velocity=64 time=480
note_on channel=0 note=60 velocity=64 time=480
note_off channel=0 note=69 velocity=64 time=480
note_off channel=0 note=70 velocity=64 time=480
note_on channel=0 note=67 velocity=64 time=480
note_off channel=0 note=70 velocity=64 time=480
note_off channel=0 note=64 velocity=64 time=480
note_on channel=0 note=67 velocity=64 time=480
note_on channel=0 note=61 velocity=64 time=480
note_off channel=0 note=65 velocity=64 time=720
note_on channel=0 note=70 velocity=64 time=720
note_on channel=0 note=70 velocity=64 time=720
note_on channel=0 note=67 velocity=64 time=720
note_off channel=0 note=60 velocity=64 time=720
note_off channel=0 note=69 velocity=64 time=720
note_on channel=0 note=64 velocity=64 time=720
note_on channel=0 note=61 velocity=64 time=720
note_on channel=0 note=65 velocity=64 time=720
note_off channel=0 note=70 velocity=64 time=720
note_off channel=0 note=65 velocity=64 time=720
note_on channel=0 note=67 velocity=64 time=720
note_off channel=0 note=60 velocity=64 time=720
note_on channel=0 note=61 velocity=64 time=720
note_on channel=0 note=69 velocity=64 time=720
note_off channel=0 note=69 velocity=64 time=720
note_on channel=0 note=60 velocity=64 time=720
note_off channel=0 note=64 velocity=64 time=720
note_off channel=0 note=67 velocity=64 time=720
note_off channel=0 note=70 velocity=64 time=720
note_on channel=0 note=70 velocity=64 time=720
note_off channel=0 note=61 velocity=64 time=720
note_off channel=0 note=70 velocity=64 time=720
note_off channel=0 note=60 velocity=64 time=720
note_on channel=0 note=65 velocity=64 time=720
note_on channel=0 note=67 velocity=64 time=720
note_off channel=0 note=65 velocity=64 time=720
note_off channel=0 note=69 velocity=64 time=720
note_on channel=0 note=69 velocity=64 time=720
note_on channel=0 note=64 velocity=64 time=720
note_on channel=0 note=69 velocity=64 time=720
note_off channel=0 note=65 velocity=64 time=720
note_off channel=0 note=70 velocity=64 time=720
note_off channel=0 note=70 velocity=64 time=720
note_on channel=0 note=61 velocity=64 time=720
note_on channel=0 note=67 velocity=64 time=720
note_on channel=0 note=70 velocity=64 time=720
note_off channel=0 note=61 velocity=64 time=720
note_off channel=0 note=64 velocity=64 time=720
note_on channel=0 note=65 velocity=64 time=720
note_off channel=0 note=64 velocity=64 time=720
note_on channel=0 note=64 velocity=64 time=720
note_on channel=0 note=70 velocity=64 time=720
note_off channel=0 note=65 velocity=64 time=720
note_on channel=0 note=61 velocity=64 time=720
note_off channel=0 note=69 velocity=64 time=720
note_off channel=0 note=65 velocity=64 time=720
note_off channel=0 note=65 velocity=64 time=720
note_on channel=0 note=60 velocity=64 time=720
note_off channel=0 note=65 velocity=64 time=960
note_off channel=0 note=70 velocity=64 time=960
note_off channel=0 note=69 velocity=64 time=960
note_on channel=0 note=67 velocity=64 time=960
note_on channel=0 note=70 velocity=64 time=960
note_off channel=0 note=60 velocity=64 time=960
note_off channel=0 note=65 velocity=64 time=960
note_on channel=0 note=65 velocity=64 time=960
note_off channel=0 note=69 velocity=64 time=960
note_on channel=0 note=60 velocity=64 time=960
note_off channel=0 note=61 velocity=64 time=960
note_on channel=0 note=64 velocity=64 time=960
note_on channel=0 note=61 velocity=64 time=960
note_off channel=0 note=69 velocity=64 time=960
note_off channel=0 note=65 velocity=64 time=960
note_on channel=0 note=65 velocity=64 time=960
note_off channel=0 note=69 velocity=64 time=960
note_off channel=0 note=67 velocity=64 time=960
note_off channel=0 note=67 velocity=64 time=960
note_on channel=0 note=61 velocity=64 time=960
note_off channel=0 note=65 velocity=64 time=960
note_on channel=0 note=65 velocity=64 time=960
note_on channel=0 note=70 velocity=64 time=960
note_on channel=0 note=64 velocity=64 time=960
note_off channel=0 note=60 velocity=64 time=960
note_off channel=0 note=67 velocity=64 time=960
note_on channel=0 note=60 velocity=64 time=960
note_on channel=0 note=61 velocity=64 time=960
note_off channel=0 note=61 velocity=64 time=960
note_off channel=0 note=69 velocity=64 time=960
note_on channel=0 note=61 velocity=64 time=960
note_on channel=0 note=67 velocity=64 time=960
note_on channel=0 note=64 velocity=64 time=960
note_off channel=0 note=61 velocity=64 time=960
note_off channel=0 note=67 velocity=64 time=960
note_on channel=0 note=60 velocity=64 time=960
note_on channel=0 note=65 velocity=64 time=960
note_on channel=0 note=60 velocity=64 time=960
note_off channel=0 note=64 velocity=64 time=960
note_off channel=0 note=61 velocity=64 time=960
note_off channel=0 note=60 velocity=64 time=960
note_on channel=0 note=65 velocity=64 time=960
note_on channel=0 note=60 velocity=64 time=960
note_on channel=0 note=67 velocity=64 time=960
note_off channel=0 note=69 velocity=64 time=960
note_off channel=0 note=60 velocity=64 time=960
note_off channel=0 note=64 velocity=64 time=960
note_on channel=0 note=69 velocity=64 time=960
note_off channel=0 note=60 velocity=64 time=960
note_off channel=0 note=69 velocity=64 time=960
note_off channel=0 note=69 velocity=64 time=960
note_on channel=0 note=61 velocity=64 time=960
note_on channel=0 note=69 velocity=64 time=960
note_on channel=0 note=64 velocity=64 time=960
note_off channel=0 note=65 velocity=64 time=960
note_off channel=0 note=67 velocity=64 time=960
note_on channel=0 note=65 velocity=64 time=960
note_on channel=0 note=67 velocity=64 time=960
note_on channel=0 note=64 velocity=64 time=960
note_off channel=0 note=64 velocity=64 time=960
note_on channel=0 note=60 velocity=64 time=960
note_on channel=0 note=67 velocity=64 time=960
note_on channel=0 note=64 velocity=64 time=960
note_off channel=0 note=67 velocity=64 time=960
note_off channel=0 note=60 velocity=64 time=960
note_off channel=0 note=64 velocity=64 time=960
note_on channel=0 note=69 velocity=64 time=960
note_on channel=0 note=65 velocity=64 time=960
note_on channel=0 note=69 velocity=64 time=960
note_off channel=0 note=65 velocity=64 time=960
note_off channel=0 note=69 velocity=64 time=960
note_on channel=0 note=67 velocity=64 time=960
note_on channel=0 note=64 velocity=64 time=960
note_off channel=0 note=61 velocity=64 time=960
note_on channel=0 note=69 velocity=64 time=960
note_on channel=0 note=60 velocity=64 time=960
note_off channel=0 note=64 velocity=64 time=960
note_on channel=0 note=65 velocity=64 time=960
note_on channel=0 note=60 velocity=64 time=960
note_off channel=0 note=60 velocity=64 time=960
note_off channel=0 note=64 velocity=64 time=960
note_on channel=0 note=69 velocity=64 time=960
note_on channel=0 note=65 velocity=64 time=960
note_off channel=0 note=64 velocity=64 time=960
note_on channel=0 note=69 velocity=64 time=960
note_on channel=0 note=67 velocity=64 time=960
note_off channel=0 note=69 velocity=64 time=960
note_off channel=0 note=67 velocity=64 time=960
note_on channel=0 note=65 velocity=64 time=960
note_off channel=0 note=67 velocity=64 time=960
note_off channel=0 note=64 velocity=64 time=960
note_off channel=0 note=61 velocity=64 time=960
note_on channel=0 note=70 velocity=64 time=960
note_on channel=0 note=64 velocity=64 time=960
note_off channel=0 note=67 velocity=64 time=960
note_on channel=0 note=67 velocity=64 time=960
note_on channel=0 note=70 velocity=64 time=960
note_on channel=0 note=69 velocity=64 time=960
note_off channel=0 note=70 velocity=64 time=1200
note_off channel=0 note=60 velocity=64 time=1200
note_off channel=0 note=69 velocity=64 time=1200
note_on channel=0 note=67 velocity=64 time=1200
note_on channel=0 note=67 velocity=64 time=1200
note_on channel=0 note=69 velocity=64 time=1200
note_off channel=0 note=70 velocity=64 time=1200
note_off channel=0 note=65 velocity=64 time=1200
note_off channel=0 note=64 velocity=64 time=1200
note_on channel=0 note=61 velocity=64 time=1200
note_on channel=0 note=69 velocity=64 time=1200
note_on channel=0 note=69 velocity=64 time=1200
note_off channel=0 note=70 velocity=64 time=1200
note_off channel=0 note=70 velocity=64 time=1200
note_off channel=0 note=67 velocity=64 time=1200
note_on channel=0 note=61 velocity=64 time=1200
note_on channel=0 note=65 velocity=64 time=1200
note_on channel=0 note=60 velocity=64 time=1200
note_off channel=0 note=64 velocity=64 time=1200
note_off channel=0 note=61 velocity=64 time=1200
note_off channel=0 note=65 velocity=64 time=1200
note_on channel=0 note=67 velocity=64 time=1200
note_on channel=0 note=69 velocity=64 time=1200
note_off channel=0 note=67 velocity=64 time=1200
note_on channel=0 note=70 velocity=64 time=1200
note_on channel=0 note=64 velocity=64 time=1200
note_off channel=0 note=61 velocity=64 time=1200
note_on channel=0 note=69 velocity=64 time=1200
note_off channel=0 note=61 velocity=64 time=1200
note_off channel=0 note=67 velocity=64 time=1200
note_off channel=0 note=64 velocity=64 time=1200
note_on channel=0 note=61 velocity=64 time=1200
note_off channel=0 note=60 velocity=64 time=1200
note_off channel=0 note=65 velocity=64 time=1200
note_off channel=0 note=60 velocity=64 time=1200
note_on channel=0 note=60 velocity=64 time=1200
note_on channel=0 note=61 velocity=64 time=1200
note_off channel=0 note=70 velocity=64 time=1200
note_on channel=0 note=60 velocity=64 time=1200
note_off channel=0 note=69 velocity=64 time=1200
note_on channel=0 note=70 velocity=64 time=1200
note_off channel=0 note=70 velocity=64 time=1200
note_off channel=0 note=65 velocity=64 time=1200
note_on channel=0 note=67 velocity=64 time=1200
note_off channel=0 note=70 velocity=64 time=1200
note_off channel=0 note=70 velocity=64 time=1200
note_off channel=0 note=70 velocity=64 time=1200
note_on channel=0 note=67 velocity=64 time=1200
note_off channel=0 note=61 velocity=64 time=1200
note_off channel=0 note=67 velocity=64 time=1200
note_off channel=0 note=70 velocity=64 time=1200
note_on channel=0 note=64 velocity=64 time=1200
note_on channel=0 note=60 velocity=64 time=1200
note_off channel=0 note=69 velocity=64 time=1200
note_off channel=0 note=65 velocity=64 time=1200
note_off channel=0 note=69 velocity=64 time=1200
note_on channel=0 note=64 velocity=64 time=1200
note_off channel=0 note=70 velocity=64 time=1200
note_on channel=0 note=70 velocity=64 time=1200
note_on channel=0 note=70 velocity=64 time=1200
note_on channel=0 note=70 velocity=64 time=1200
note_off channel=0 note=69 velocity=64 time=1200
note_off channel=0 note=60 velocity=64 time=1200
note_on channel=0 note=60 velocity=64 time=1200
note_off channel=0 note=64 velocity=64 time=1200
note_off channel=0 note=70 velocity=64 time=1200
note_on channel=0 note=65 velocity=64 time=1200
note_off channel=0 note=65 velocity=64 time=1200
note_off channel=0 note=60 velocity=64 time=1200
note_on channel=0 note=65 velocity=64 time=1200
note_on channel=0 note=64 velocity=64 time=1200
note_off channel=0 note=64 velocity=64 time=1200
note_off channel=0 note=61 velocity=64 time=1200
note_on channel=0 note=64 velocity=64 time=1200
note_off channel=0 note=61 velocity=64 time=1200
note_on channel=0 note=67 velocity=64 time=1200
note_off channel=0 note=67 velocity=64 time=1200
note_off channel=0 note=70 velocity=64 time=1200
note_off channel=0 note=69 velocity=64 time=1200
note_on channel=0 note=67 velocity=64 time=1200
note_off channel=0 note=65 velocity=64 time=1440
note_off channel=0 note=70 velocity=64 time=1440
note_off channel=0 note=64 velocity=64 time=1440
note_on channel=0 note=64 velocity=64 time=1440
note_on channel=0 note=65 velocity=64 time=1440
note_off channel=0 note=69 velocity=64 time=1440
note_on channel=0 note=61 velocity=64 time=1440
note_on channel=0 note=61 velocity=64 time=1440
note_off channel=0 note=65 velocity=64 time=1440
note_off channel=0 note=70 velocity=64 time=1440
note_off channel=0 note=64 velocity=64 time=1440
note_on channel=0 note=64 velocity=64 time=1440
note_on channel=0 note=70 velocity=64 time=1440
note_off channel=0 note=69 velocity=64 time=1440
note_off channel=0 note=65 velocity=64 time=1440
note_off channel=0 note=65 velocity=64 time=1440
note_on channel=0 note=64 velocity=64 time=1440
note_on channel=0 note=69 velocity=64 time=1440
note_on channel=0 note=65 velocity=64 time=1440
note_off channel=0 note=61 velocity=64 time=1440
note_on channel=0 note=64 velocity=64 time=1440
note_off channel=0 note=60 velocity=64 time=1440
note_off channel=0 note=61 velocity=64 time=1440
note_on channel=0 note=67 velocity=64 time=1440
note_on channel=0 note=65 velocity=64 time=1440
note_off channel=0 note=60 velocity=64 time=1440
note_on channel=0 note=69 velocity=64 time=1440
note_on channel=0 note=69 velocity=64 time=1440
note_on channel=0 note=60 velocity=64 time=1440
note_off channel=0 note=65 velocity=64 time=1440
note_off channel=0 note=60 velocity=64 time=1440
note_off channel=0 note=67 velocity=64 time=1440
note_on channel=0 note=70 velocity=64 time=1440
note_on channel=0 note=60 velocity=64 time=1440
note_off channel=0 note=69 velocity=64 time=1440
note_off channel=0 note=65 velocity=64 time=1440
note_off channel=0 note=69 velocity=64 time=1440
note_on channel=0 note=70 velocity=64 time=1440
note_on channel=0 note=61 velocity=64 time=1440
note_off channel=0 note=65 velocity=64 time=1440
note_off channel=0 note=67 velocity=64 time=1440
note_off channel=0 note=64 velocity=64 time=1440
note_on channel=0 note=65 velocity=64 time=1440
note_on channel=0 note=70 velocity=64 time=1440
note_on channel=0 note=67 velocity=64 time=1440
note_off channel=0 note=67 velocity=64 time=1440
note_on channel=0 note=69 velocity=64 time=1440
note_on channel=0 note=67 velocity=64 time=1440
note_on channel=0 note=61 velocity=64 time=1440
note_off channel=0 note=60 velocity=64 time=1440
note_off channel=0 note=67 velocity=64 time=1440
note_off channel=0 note=64 velocity=64 time=1440
note_on channel=0 note=70 velocity=64 time=1440
note_on channel=0 note=67 velocity=64 time=1440
note_on channel=0 note=61 velocity=64 time=1440
note_off channel=0 note=60 velocity=64 time=1440
note_on channel=0 note=61 velocity=64 time=1440
note_off channel=0 note=65 velocity=64 time=1440
note_on channel=0 note=67 velocity=64 time=1440
note_on channel=0 note=70 velocity=64 time=1440
note_on channel=0 note=69 velocity=64 time=1440
note_off channel=0 note=65 velocity=64 time=1440
note_off channel=0 note=64 velocity=64 time=1440
note_on channel=0 note=65 velocity=64 time=1440
note_off channel=0 note=69 velocity=64 time=1440
note_off channel=0 note=65 velocity=64 time=1440
note_on channel=0 note=67 velocity=64 time=1440
note_on channel=0 note=65 velocity=64 time=1440
note_off channel=0 note=69 velocity=64 time=1440
note_on channel=0 note=61 velocity=64 time=1440
note_off channel=0 note=64 velocity=64 time=1440
note_on channel=0 note=60 velocity=64 time=1440
note_on channel=0 note=61 velocity=64 time=1440
note_off channel=0 note=69 velocity=64 time=1440
note_off channel=0 note=67 velocity=64 time=1440
note_on channel=0 note=61 velocity=64 time=1440
note_on channel=0 note=69 velocity=64 time=1440
note_on channel=0 note=69 velocity=64 time=1440
note_off channel=0 note=60 velocity=64 time=1440
note_on channel=0 note=65 velocity=64 time=1440
note_on channel=0 note=65 velocity=64 time=1440
note_off channel=0 note=65 velocity=64 time=1440
note_on channel=0 note=64 velocity=64 time=1440
note_on channel=0 note=69 velocity=64 time=1440
note_off channel=0 note=70 velocity=64 time=1440
note_off channel=0 note=64 velocity=64 time=1440
note_on channel=0 note=67 velocity=64 time=1440
note_off channel=0 note=67 velocity=64 time=1440
note_off channel=0 note=61 velocity=64 time=1440
note_on channel=0 note=67 velocity=64 time=1440
note_on channel=0 note=67 velocity=64 time=1440
note_off channel=0 note=67 velocity=64 time=1680
note_off channel=0 note=67 velocity=64 time=1680
note_off channel=0 note=69 velocity=64 time=1680
note_on channel=0 note=69 velocity=64 time=1680
note_off channel=0 note=61 velocity=64 time=1680
note_off channel=0 note=61 velocity=64 time=1680
note_on channel=0 note=67 velocity=64 time=1680
note_on channel=0 note=70 velocity=64 time=1680
note_on channel=0 note=67 velocity=64 time=1680
note_off channel=0 note=60 velocity=64 time=1680
note_on channel=0 note=65 velocity=64 time=1680
note_on channel=0 note=65 velocity=64 time=1680
note_off channel=0 note=67 velocity=64 time=1680
note_on channel=0 note=65 velocity=64 time=1680
note_on channel=0 note=61 velocity=64 time=1680
note_off channel=0 note=69 velocity=64 time=1680
note_off channel=0 note=64 velocity=64 time=1680
note_off channel=0 note=69 velocity=64 time=1680
note_on channel=0 note=70 velocity=64 time=1680
note_on channel=0 note=60 velocity=64 time=1680
note_off channel=0 note=69 velocity=64 time=1680
note_off channel=0 note=67 velocity=64 time=1680
note_off channel=0 note=61 velocity=64 time=1680
note_on channel=0 note=69 velocity=64 time=1680
note_on channel=0 note=70 velocity=64 time=1680
note_off channel=0 note=64 velocity=64 time=1680
note_off channel=0 note=60 velocity=64 time=1680
note_on channel=0 note=65 velocity=64 time=1680
note_on channel=0 note=65 velocity=64 time=1680
note_off channel=0 note=65 velocity=64 time=1680
note_on channel=0 note=64 velocity=64 time=1680
note_on channel=0 note=60 velocity=64 time=1680
note_on channel=0 note=61 velocity=64 time=1680
note_off channel=0 note=67 velocity=64 time=1680
note_off channel=0 note=65 velocity=64 time=1680
note_on channel=0 note=64 velocity=64 time=1680
note_off channel=0 note=67 velocity=64 time=1680
note_on channel=0 note=65 velocity=64 time=1680
note_off channel=0 note=60 velocity=64 time=1680
note_on channel=0 note=65 velocity=64 time=1680
note_off channel=0 note=67 velocity=64 time=1920
note_off channel=0 note=70 velocity=64 time=1920
note_on channel=0 note=61 velocity=64 time=1920
note_off channel=0 note=65 velocity=64 time=1920
note_on channel=0 note=70 velocity=64 time=1920
note_off channel=0 note=60 velocity=64 time=1920
note_on channel=0 note=70 velocity=64 time=1920
note_on channel=0 note=65 velocity=64 time=1920
note_on channel=0 note=67 velocity=64 time=1920
note_off channel=0 note=64 velocity=64 time=1920
note_off channel=0 note=61 velocity=64 time=1920
note_on channel=0 note=60 velocity=64 time=1920
note_on channel=0 note=60 velocity=64 time=1920
note_off channel=0 note=65 velocity=64 time=1920
note_on channel=0 note=64 velocity=64 time=1920
note_on channel=0 note=61 velocity=64 time=1920
note_off channel=0 note=60 velocity=64 time=1920
note_off channel=0 note=61 velocity=64 time=1920
note_on channel=0 note=67 velocity=64 time=1920
note_off channel=0 note=64 velocity=64 time=1920
note_off channel=0 note=70 velocity=64 time=1920
note_on channel=0 note=70 velocity=64 time=1920
note_off channel=0 note=64 velocity=64 time=1920
note_off channel=0 note=69 velocity=64 time=1920
note_off channel=0 note=65 velocity=64 time=1920
note_on channel=0 note=67 velocity=64 time=1920
note_on channel=0 note=60 velocity=64 time=1920
note_on channel=0 note=69 velocity=64 time=1920
note_off channel=0 note=70 velocity=64 time=1920
note_off channel=0 note=60 velocity=64 time=1920
note_on channel=0 note=65 velocity=64 time=1920
note_on channel=0 note=70 velocity=64 time=1920
note_off channel=0 note=61 velocity=64 time=1920
note_off channel=0 note=69 velocity=64 time=1920
note_off channel=0 note=64 velocity=64 time=1920
note_on channel=0 note=64 velocity=64 time=1920
note_off channel=0 note=65 velocity=64 time=1920
note_off channel=0 note=70 velocity=64 time=1920
note_off channel=0 note=67 velocity=64 time=1920
note_on channel=0 note=69 velocity=64 time=1920
note_off channel=0 note=69 velocity=64 time=1920
note_off channel=0 note=70 velocity=64 time=1920
note_on channel=0 note=69 velocity=64 time=1920
note_on channel=0 note=64 velocity=64 time=1920
note_off channel=0 note=70 velocity=64 time=1920
note_off channel=0 note=67 velocity=64 time=1920
note_off channel=0 note=61 velocity=64 time=1920
note_on channel=0 note=67 velocity=64 time=1920
note_off channel=0 note=67 velocity=64 time=1920
note_off channel=0 note=64 velocity=64 time=1920
note_on channel=0 note=60 velocity=64 time=1920
note_on channel=0 note=64 velocity=64 time=1920
note_off channel=0 note=61 velocity=64 time=1920
note_on channel=0 note=69 velocity=64 time=1920
note_off channel=0 note=65 velocity=64 time=1920
note_on channel=0 note=69 velocity=64 time=1920
note_on channel=0 note=69 velocity=64 time=1920
note_off channel=0 note=64 velocity=64 time=1920
note_on channel=0 note=60 velocity=64 time=1920
note_off channel=0 note=60 velocity=64 time=1920
note_off channel=0 note=61 velocity=64 time=1920
note_on channel=0 note=67 velocity=64 time=1920
note_on channel=0 note=65 velocity=64 time=1920
note_off channel=0 note=65 velocity=64 time=1920
note_on channel=0 note=61 velocity=64 time=1920
note_off channel=0 note=61 velocity=64 time=1920
note_off channel=0 note=69 velocity=64 time=1920
note_off channel=0 note=69 velocity=64 time=1920
note_on channel=0 note=70 velocity=64 time=1920
note_on channel=0 note=60 velocity=64 time=1920
note_off channel=0 note=67 velocity=64 time=1920
note_off channel=0 note=67 velocity=64 time=1920
note_on channel=0 note=70 velocity=64 time=1920
note_on channel=0 note=67 velocity=64 time=1920
note_off channel=0 note=61 velocity=64 time=2160
note_on channel=0 note=69 velocity=64 time=2160
note_on channel=0 note=70 velocity=64 time=2160
note_on channel=0 note=65 velocity=64 time=2160
note_off channel=0 note=61 velocity=64 time=2160
note_off channel=0 note=69 velocity=64 time=2160
note_off channel=0 note=69 velocity=64 time=2160
note_on channel=0 note=69 velocity=64 time=2160
note_on channel=0 note=64 velocity=64 time=2160
note_on channel=0 note=61 velocity=64 time=2160
note_off channel=0 note=70 velocity=64 time=2160
note_off channel=0 note=65 velocity=64 time=2160
note_off channel=0 note=67 velocity=64 time=2160
note_on channel=0 note=67 velocity=64 time=2160
note_off channel=0 note=61 velocity=64 time=2160
note_off channel=0 note=65 velocity=64 time=2160
note_off channel=0 note=60 velocity=64 time=2160
note_on channel=0 note=64 velocity=64 time=2160
note_off channel=0 note=67 velocity=64 time=2160
note_off channel=0 note=69 velocity=64 time=2160
note_on channel=0 note=61 velocity=64 time=2160
note_on channel=0 note=69 velocity=64 time=2160
note_off channel=0 note=70 velocity=64 time=2160
note_off channel=0 note=64 velocity=64 time=2160
note_on channel=0 note=60 velocity=64 time=2160
note_on channel=0 note=67 velocity=64 time=2160
note_on channel=0 note=69 velocity=64 time=2160
note_off channel=0 note=69 velocity=64 time=2160
note_on channel=0 note=61 velocity=64 time=2160
note_on channel=0 note=65 velocity=64 time=2160
note_on channel=0 note=70 velocity=64 time=2160
note_off channel=0 note=65 velocity=64 time=2160
note_off channel=0 note=65 velocity=64 time=2160
note_on channel=0 note=67 velocity=64 time=2160
note_off channel=0 note=70 velocity=64 time=2160
note_on channel=0 note=60 velocity=64 time=2160
note_on channel=0 note=70 velocity=64 time=2160
note_on channel=0 note=64 velocity=64 time=2160
note_off channel=0 note=70 velocity=64 time=2160
note_off channel=0 note=60 velocity=64 time=2160
note_on channel=0 note=60 velocity=64 time=2160
note_off channel=0 note=69 velocity=64 time=2160
note_off channel=0 note=64 velocity=64 time=2160
note_on channel=0 note=64 velocity=64 time=2160
note_off channel=0 note=64 velocity=64 time=2160
note_on channel=0 note=70 velocity=64 time=2160
note_off channel=0 note=60 velocity=64 time=2160
note_off channel=0 note=64 velocity=64 time=2160
note_on channel=0 note=65 velocity=64 time=2160
note_off channel=0 note=70 velocity=64 time=2160
note_off channel=0 note=70 velocity=64 time=2160
note_off channel=0 note=70 velocity=64 time=2160
note_on channel=0 note=60 velocity=64 time=2160
note_off channel=0 note=69 velocity=64 time=2160
note_on channel=0 note=67 velocity=64 time=2160
note_on channel=0 note=70 velocity=64 time=2160
note_off channel=0 note=64 velocity=64 time=2160
note_off channel=0 note=60 velocity=64 time=2160
note_off channel=0 note=61 velocity=64 time=2160
note_on channel=0 note=67 velocity=64 time=2160
note_on channel=0 note=69 velocity=64 time=2160
note_off channel=0 note=67 velocity=64 time=2160
note_off channel=0 note=65 velocity=64 time=2160
note_on channel=0 note=70 velocity=64 time=2160
note_on channel=0 note=60 velocity=64 time=2160
note_off channel=0 note=61 velocity=64 time=2160
note_on channel=0 note=61 velocity=64 time=2160
note_on channel=0 note=61 velocity=64 time=2160
note_on channel=0 note=70 velocity=64 time=2160
note_off channel=0 note=65 velocity=64 time=2160
note_on channel=0 note=69 velocity=64 time=2160
note_on channel=0 note=60 velocity=64 time=2160
note_on channel=0 note=60 velocity=64 time=2160
note_off channel=0 note=67 velocity=64 time=2160
note_on channel=0 note=61 velocity=64 time=2160
note_on channel=0 note=69 velocity=64 time=2160
note_on channel=0 note=67 velocity=64 time=2160
note_off channel=0 note=70 velocity=64 time=2160
note_off channel=0 note=67 velocity=64 time=2160
note_on channel=0 note=60 velocity=64 time=2160
note_on channel=0 note=70 velocity=64 time=2160
note_on channel=0 note=70 velocity=64 time=2160
note_off channel=0 note=60 velocity=64 time=2400
note_off channel=0 note=60 velocity=64 time=2400
note_on channel=0 note=61 velocity=64 time=2400
note_off channel=0 note=64 velocity=64 time=2400
note_on channel=0 note=61 velocity=64 time=2400
note_on channel=0 note=61 velocity=64 time=2400
note_on channel=0 note=70 velocity=64 time=2400
note_off channel=0 note=64 velocity=64 time=2400
note_off channel=0 note=65 velocity=64 time=2400
note_on channel=0 note=64 velocity=64 time=2400
note_on channel=0 note=67 velocity=64 time=2400
note_on channel=0 note=69 velocity=64 time=2400
note_off channel=0 note=70 velocity=64 time=2400
note_on channel=0 note=69 velocity=64 time=2400
note_on channel=0 note=67 velocity=64 time=2400
note_on channel=0 note=61 velocity=64 time=2400
note_off channel=0 note=64 velocity=64 time=2400
note_on channel=0 note=69 velocity=64 time=2400
note_on channel=0 note=60 velocity=64 time=2400
note_on channel=0 note=64 velocity=64 time=2400
note_off channel=0 note=67 velocity=64 time=2400
note_off channel=0 note=65 velocity=64 time=2400
note_on channel=0 note=70 velocity=64 time=2400
note_off channel=0 note=67 velocity=64 time=2400
note_on channel=0 note=69 velocity=64 time=2400
note_on channel=0 note=64 velocity=64 time=2400
note_on channel=0 note=60 velocity=64 time=2400
note_off channel=0 note=69 velocity=64 time=2400
note_off channel=0 note=69 velocity=64 time=2400
note_off channel=0 note=60 velocity=64 time=2400
note_on channel=0 note=65 velocity=64 time=2400
note_on channel=0 note=70 velocity=64 time=2400
note_off channel=0 note=70 velocity=64 time=2400
note_off channel=0 note=61 velocity=64 time=2400
note_on channel=0 note=65 velocity=64 time=2400
note_off channel=0 note=69 velocity=64 time=2400
note_on channel=0 note=67 velocity=64 time=2400
note_on channel=0 note=69 velocity=64 time=2400
note_off channel=0 note=67 velocity=64 time=2400
note_off channel=0 note=70 velocity=64 time=2400
note_on channel=0 note=61 velocity=64 time=2400
note_on channel=0 note=67 velocity=64 time=2400
note_off channel=0 note=67 velocity=64 time=2400
note_off channel=0 note=70 velocity=64 time=2400
note_off channel=0 note=69 velocity=64 time=2400
note_on channel=0 note=69 velocity=64 time=2400
note_off channel=0 note=69 velocity=64 time=2400
note_off channel=0 note=69 velocity=64 time=2400
note_on channel=0 note=70 velocity=64 time=2400
note_off channel=0 note=61 velocity=64 time=2400
note_on channel=0 note=70 velocity=64 time=2400
note_on channel=0 note=60 velocity=64 time=2400
note_on channel=0 note=70 velocity=64 time=2400
note_off channel=0 note=70 velocity=64 time=2400
note_off channel=0 note=60 velocity=64 time=2400
note_on channel=0 note=69 velocity=64 time=2400
note_off channel=0 note=61 velocity=64 time=2400
note_off channel=0 note=61 velocity=64 time=2400
note_off channel=0 note=70 velocity=64 time=2400
note_on channel=0 note=60 velocity=64 time=2400
note_on channel=0 note=70 velocity=64 time=2400
note_off channel=0 note=70 velocity=64 time=2400
note_off channel=0 note=60 velocity=64 time=2400
note_on channel=0 note=67 velocity=64 time=2400
note_on channel=0 note=60 velocity=64 time=2400
note_on channel=0 note=70 velocity=64 time=2400
note_off channel=0 note=65 velocity=64 time=2400
note_off channel=0 note=65 velocity=64 time=2400
note_on channel=0 note=60 velocity=64 time=2400
note_on channel=0 note=70 velocity=64 time=2400
note_off channel=0 note=64 velocity=64 time=2400
note_off channel=0 note=69 velocity=64 time=2400
note_on channel=0 note=67 velocity=64 time=2400
note_off channel=0 note=67 velocity=64 time=2400
note_on channel=0 note=61 velocity=64 time=2400
note_on channel=0 note=70 velocity=64 time=2400
note_on channel=0 note=64 velocity=64 time=2400
note_off channel=0 note=69 velocity=64 time=2640
note_on channel=0 note=61 velocity=64 time=2640
note_off channel=0 note=69 velocity=64 time=2640
note_off channel=0 note=64 velocity=64 time=2640
note_off channel=0 note=61 velocity=64 time=2640
note_on channel=0 note=67 velocity=64 time=2640
note_on channel=0 note=67 velocity=64 time=2640
note_on channel=0 note=70 velocity=64 time=2640
note_off channel=0 note=60 velocity=64 time=2640
note_off channel=0 note=67 velocity=64 time=2640
note_off channel=0 note=69 velocity=64 time=2640
note_on channel=0 note=69 velocity=64 time=2640
note_off channel=0 note=67 velocity=64 time=2640
note_off channel=0 note=70 velocity=64 time=2640
note_off channel=0 note=67 velocity=64 time=2640
note_on channel=0 note=70 velocity=64 time=2640
note_on channel=0 note=65 velocity=64 time=2640
note_on channel=0 note=65 velocity=64 time=2640
note_off channel=0 note=69 velocity=64 time=2640
note_off channel=0 note=60 velocity=64 time=2640
note_off channel=0 note=64 velocity=64 time=2640
note_on channel=0 note=65 velocity=64 time=2640
note_on channel=0 note=69 velocity=64 time=2640
note_off channel=0 note=70 velocity=64 time=2640
note_on channel=0 note=65 velocity=64 time=2640
note_on channel=0 note=61 velocity=64 time=2640
note_on channel=0 note=67 velocity=64 time=2640
note_off channel=0 note=65 velocity=64 time=2640
note_off channel=0 note=61 velocity=64 time=2640
note_on channel=0 note=65 velocity=64 time=2640
note_on channel=0 note=65 velocity=64 time=2640
note_off channel=0 note=60 velocity=64 time=2640
note_on channel=0 note=61 velocity=64 time=2640
note_off channel=0 note=64 velocity=64 time=2640
note_on channel=0 note=60 velocity=64 time=2640
note_off channel=0 note=65 velocity=64 time=2640
note_off channel=0 note=65 velocity=64 time=2640
note_on channel=0 note=67 velocity=64 time=2640
note_on channel=0 note=60 velocity=64 time=2640
note_on channel=0 note=70 velocity=64 time=2640
note_off channel=0 note=70 velocity=64 time=2640
note_on channel=0 note=61 velocity=64 time=2640
note_on channel=0 note=60 velocity=64 time=2640
note_off channel=0 note=67 velocity=64 time=2640
note_off channel=0 note=69 velocity=64 time=2640
note_on channel=0 note=69 velocity=64 time=2640
note_on channel=0 note=67 velocity=64 time=2640
note_on channel=0 note=65 velocity=64 time=2640
note_off channel=0 note=70 velocity=64 time=2640
note_on channel=0 note=69 velocity=64 time=2640
note_on channel=0 note=69 velocity=64 time=2640
note_on channel=0 note=61 velocity=64 time=2640
note_off channel=0 note=67 velocity=64 time=2640
note_off channel=0 note=60 velocity=64 time=2640
note_off channel=0 note=70 velocity=64 time=2640
note_on channel=0 note=67 velocity=64 time=2640
note_on channel=0 note=60 velocity=64 time=2640
note_off channel=0 note=60 velocity=64 time=2640
note_off channel=0 note=70 velocity=64 time=2640
note_on channel=0 note=64 velocity=64 time=2640
note_on channel=0 note=69 velocity=64 time=2640
note_on channel=0 note=64 velocity=64 time=2640
note_off channel=0 note=60 velocity=64 time=2640
note_off channel=0 note=70 velocity=64 time=2640
note_off channel=0 note=70 velocity=64 time=2640
note_on channel=0 note=69 velocity=64 time=2640
note_on channel=0 note=70 velocity=64 time=2640
note_on channel=0 note=69 velocity=64 time=2640
note_off channel=0 note=70 velocity=64 time=2880
note_on channel=0 note=67 velocity=64 time=2880
note_on channel=0 note=65 velocity=64 time=2880
note_on channel=0 note=67 velocity=64 time=2880
note_off channel=0 note=61 velocity=64 time=2880
note_off channel=0 note=61 velocity=64 time=2880
note_off channel=0 note=70 velocity=64 time=2880
note_on channel=0 note=64 velocity=64 time=2880
note_on channel=0 note=64 velocity=64 time=2880
note_on channel=0 note=70 velocity=64 time=2880
note_off channel=0 note=64 velocity=64 time=2880
note_off channel=0 note=61 velocity=64 time=2880
note_on channel=0 note=69 velocity=64 time=2880
note_on channel=0 note=69 velocity=64 time=2880
note_on channel=0 note=60 velocity=64 time=2880
note_off channel=0 note=67 velocity=64 time=2880
note_on channel=0 note=64 velocity=64 time=2880
note_on channel=0 note=67 velocity=64 time=2880
note_on channel=0 note=65 velocity=64 time=2880
note_off channel=0 note=69 velocity=64 time=2880
note_off channel=0 note=67 velocity=64 time=2880
note_off channel=0 note=61 velocity=64 time=2880
note_on channel=0 note=65 velocity=64 time=2880
note_on channel=0 note=69 velocity=64 time=2880
note_off channel=0 note=67 velocity=64 time=2880
note_off channel=0 note=60 velocity=64 time=2880
note_off channel=0 note=69 velocity=64 time=2880
note_on channel=0 note=70 velocity=64 time=2880
note_off channel=0 note=65 velocity=64 time=2880
note_off channel=0 note=70 velocity=64 time=2880
note_on channel=0 note=69 velocity=64 time=2880
note_on channel=0 note=70 velocity=64 time=2880
note_on channel=0 note=69 velocity=64 time=2880
note_off channel=0 note=65 velocity=64 time=2880
note_on channel=0 note=67 velocity=64 time=2880
note_on channel=0 note=70 velocity=64 time=2880
note_off channel=0 note=64 velocity=64 time=2880
note_on channel=0 note=70 velocity=64 time=2880
note_on channel=0 note=65 velocity=64 time=2880
note_on channel=0 note=61 velocity=64 time=2880
note_off channel=0 note=67 velocity=64 time=2880
note_on channel=0 note=70 velocity=64 time=2880
note_off channel=0 note=60 velocity=64 time=2880
note_on channel=0 note=65 velocity=64 time=2880
note_on channel=0 note=67 velocity=64 time=2880
note_off channel=0 note=70 velocity=64 time=2880
note_off channel=0 note=60 velocity=64 time=2880
note_off channel=0 note=70 velocity=64 time=2880
note_on channel=0 note=60 velocity=64 time=2880
note_on channel=0 note=64 velocity=64 time=2880
note_off channel=0 note=67 velocity=64 time=2880
note_off channel=0 note=60 velocity=64 time=2880
note_on channel=0 note=67 velocity=64 time=2880
note_on channel=0 note=65 velocity=64 time=2880
note_on channel=0 note=69 velocity=64 time=2880
note_off channel=0 note=69 velocity=64 time=3120
note_off channel=0 note=70 velocity=64 time=3120
note_off channel=0 note=65 velocity=64 time=3120
note_on channel=0 note=70 velocity=64 time=3120
note_on channel=0 note=64 velocity=64 time=3120
note_on channel=0 note=69 velocity=64 time=3120
note_off channel=0 note=67 velocity=64 time=3120
note_off channel=0 note=67 velocity=64 time=3120
note_off channel=0 note=70 velocity=64 time=3120
note_on channel=0 note=64 velocity=64 time=3120
note_off channel=0 note=67 velocity=64 time=3120
note_on channel=0 note=60 velocity=64 time=3120
note_on channel=0 note=60 velocity=64 time=3120
note_on channel=0 note=69 velocity=64 time=3120
note_off channel=0 note=61 velocity=64 time=3120
note_off channel=0 note=69 velocity=64 time=3120
note_on channel=0 note=70 velocity=64 time=3120
note_off channel=0 note=61 velocity=64 time=3120
note_off channel=0 note=65 velocity=64 time=3120
note_off channel=0 note=70 velocity=64 time=3120
note_on channel=0 note=65 velocity=64 time=3120
note_on channel=0 note=61 velocity=64 time=3120
note_off channel=0 note=64 velocity=64 time=3120
note_off channel=0 note=67 velocity=64 time=3120
note_off channel=0 note=65 velocity=64 time=3120
note_on channel=0 note=64 velocity=64 time=3120
note_off channel=0 note=70 velocity=64 time=3120
note_off channel=0 note=65 velocity=64 time=3120
note_off channel=0 note=65 velocity=64 time=3120
note_on channel=0 note=70 velocity=64 time=3120
note_off channel=0 note=70 velocity=64 time=3120
note_on channel=0 note=60 velocity=64 time=3120
note_on channel=0 note=67 velocity=64 time=3120
note_on channel=0 note=60 velocity=64 time=3120
note_off channel=0 note=60 velocity=64 time=3120
note_off channel=0 note=70 velocity=64 time=3120
note_off channel=0 note=64 velocity=64 time=3120
note_on channel=0 note=70 velocity=64 time=3120
note_on channel=0 note=64 velocity=64 time=3120
note_on channel=0 note=61 velocity=64 time=3120
note_off channel=0 note=70 velocity=64 time=3120
note_off channel=0 note=65 velocity=64 time=3120
note_off channel=0 note=61 velocity=64 time=3120
note_on channel=0 note=64 velocity=64 time=3120
note_off channel=0 note=65 velocity=64 time=3120
note_off channel=0 note=65 velocity=64 time=3120
note_on channel=0 note=70 velocity=64 time=3120
note_on channel=0 note=61 velocity=64 time=3120
note_on channel=0 note=61 velocity=64 time=3120
note_off channel=0 note=65 velocity=64 time=3120
note_on channel=0 note=65 velocity=64 time=3120
note_on channel=0 note=70 velocity=64 time=3120
note_on channel=0 note=70 velocity=64 time=3120
note_off channel=0 note=60 velocity=64 time=3120
note_on channel=0 note=61 velocity=64 time=3120
note_off channel=0 note=69 velocity=64 time=3120
note_off channel=0 note=67 velocity=64 time=3120
note_off channel=0 note=65 velocity=64 time=3120
note_on channel=0 note=65 velocity=64 time=3120
note_on channel=0 note=67 velocity=64 time=3120
note_on channel=0 note=64 velocity=64 time=3120
note_off channel=0 note=69 velocity=64 time=3120
note_off channel=0 note=69 velocity=64 time=3120
note_off channel=0 note=61 velocity=64 time=3120
note_on channel=0 note=67 velocity=64 time=3120
note_on channel=0 note=69 velocity=64 time=3120
note_off channel=0 note=60 velocity=64 time=3120
note_off channel=0 note=64 velocity=64 time=3120
note_on channel=0 note=69 velocity=64 time=3120
note_on channel=0 note=70 velocity=64 time=3120
note_off channel=0 note=69 velocity=64 time=3120
note_off channel=0 note=60 velocity=64 time=3120
note_off channel=0 note=60 velocity=64 time=3120
note_on channel=0 note=64 velocity=64 time=3120
note_off channel=0 note=61 velocity=64 time=3120
note_off channel=0 note=69 velocity=64 time=3120
note_off channel=0 note=67 velocity=64 time=3120
note_on channel=0 note=70 velocity=64 time=3120
note_on channel=0 note=61 velocity=64 time=3120
note_off channel=0 note=69 velocity=64 time=3120
note_off channel=0 note=70 velocity=64 time=3120
note_off channel=0 note=69 velocity=64 time=3120
note_on channel=0 note=67 velocity=64 time=3120
note_off channel=0 note=67 velocity=64 time=3360
note_off channel=0 note=65 velocity=64 time=3360
note_off channel=0 note=67 velocity=64 time=3360
note_on channel=0 note=67 velocity=64 time=3360
note_on channel=0 note=64 velocity=64 time=3360
note_off channel=0 note=64 velocity=64 time=3360
note_on channel=0 note=67 velocity=64 time=3360
note_on channel=0 note=64 velocity=64 time=3360
note_off channel=0 note=60 velocity=64 time=3360
note_off channel=0 note=60 velocity=64 time=3360
note_off channel=0 note=69 velocity=64 time=3360
note_on channel=0 note=67 velocity=64 time=3360
note_off channel=0 note=61 velocity=64 time=3360
note_on channel=0 note=69 velocity=64 time=3360
note_on channel=0 note=70 velocity=64 time=3360
note_off channel=0 note=70 velocity=64 time=3360
note_on channel=0 note=60 velocity=64 time=3360
note_off channel=0 note=64 velocity=64 time=3360
note_off channel=0 note=67 velocity=64 time=3360
note_off channel=0 note=69 velocity=64 time=3360
note_on channel=0 note=65 velocity=64 time=3360
note_off channel=0 note=65 velocity=64 time=3360
note_off channel=0 note=69 velocity=64 time=3360
note_on channel=0 note=70 velocity=64 time=3360
note_on channel=0 note=70 velocity=64 time=3360
note_on channel=0 note=65 velocity=64 time=3360
note_off channel=0 note=69 velocity=64 time=3360
note_off channel=0 note=64 velocity=64 time=3360
note_off channel=0 note=60 velocity=64 time=3360
note_on channel=0 note=70 velocity=64 time=3360
note_off channel=0 note=65 velocity=64 time=3360
note_off channel=0 note=70 velocity=64 time=3360
note_on channel=0 note=60 velocity=64 time=3360
note_off channel=0 note=69 velocity=64 time=3360
note_off channel=0 note=70 velocity=64 time=3360
note_off channel=0 note=69 velocity=64 time=3360
note_on channel=0 note=61 velocity=64 time=3360
note_on channel=0 note=65 velocity=64 time=3360
note_off channel=0 note=64 velocity=64 time=3360
note_on channel=0 note=65 velocity=64 time=3360
note_on channel=0 note=64 velocity=64 time=3360
note_on channel=0 note=61 velocity=64 time=3360
note_off channel=0 note=67 velocity=64 time=3360
note_off channel=0 note=69 velocity=64 time=3360
note_on channel=0 note=60 velocity=64 time=3360
note_off channel=0 note=70 velocity=64 time=3360
note_on channel=0 note=65 velocity=64 time=3360
note_on channel=0 note=67 velocity=64 time=3360
note_on channel=0 note=64 velocity=64 time=3360
note_off channel=0 note=65 velocity=64 time=3360
note_off channel=0 note=70 velocity=64 time=3360
note_off channel=0 note=70 velocity=64 time=3360
note_on channel=0 note=69 velocity=64 time=3360
note_off channel=0 note=61 velocity=64 time=3360
note_off channel=0 note=67 velocity=64 time=3360
note_on channel=0 note=60 velocity=64 time=3360
note_on channel=0 note=64 velocity=64 time=3360
note_off channel=0 note=69 velocity=64 time=3360
note_on channel=0 note=60 velocity=64 time=3360
note_on channel=0 note=67 velocity=64 time=3360
note_on channel=0 note=60 velocity=64 time=3360
note_off channel=0 note=69 velocity=64 time=3360
note_off channel=0 note=70 velocity=64 time=3360
note_on channel=0 note=64 velocity=64 time=3360
note_on channel=0 note=70 velocity=64 time=3360
note_off channel=0 note=69 velocity=64 time=3360
note_on channel=0 note=70 velocity=64 time=3360
note_on channel=0 note=67 velocity=64 time=3360
note_on channel=0 note=65 velocity=64 time=3360
note_off channel=0 note=60 velocity=64 time=3360
note_off channel=0 note=70 velocity=64 time=3360
note_on channel=0 note=70 velocity=64 time=3360
note_off channel=0 note=67 velocity=64 time=3360
note_off channel=0 note=65 velocity=64 time=3360
note_off channel=0 note=69 velocity=64 time=3360
note_on channel=0 note=69 velocity=64 time=3360
note_off channel=0 note=67 velocity=64 time=3360
note_on channel=0 note=65 velocity=64 time=3360
note_on channel=0 note=70 velocity=64 time=3360
note_off channel=0 note=61 velocity=64 time=3360
note_off channel=0 note=70 velocity=64 time=3360
note_off channel=0 note=64 velocity=64 time=3360
note_on channel=0 note=67 velocity=64 time=3360
note_on channel=0 note=70 velocity=64 time=3360
note_off channel=0 note=61 velocity=64 time=3600
note_on channel=0 note=61 velocity=64 time=3600
note_off channel=0 note=67 velocity=64 time=3600
note_off channel=0 note=64 velocity=64 time=3600
note_on channel=0 note=60 velocity=64 time=3600
note_off channel=0 note=67 velocity=64 time=3600
note_off channel=0 note=64 velocity=64 time=3600
note_on channel=0 note=60 velocity=64 time=3600
note_off channel=0 note=67 velocity=64 time=3600
note_on channel=0 note=69 velocity=64 time=3600
note_off channel=0 note=69 velocity=64 time=3600
note_off channel=0 note=70 velocity=64 time=3600
note_on channel=0 note=67 velocity=64 time=3600
note_on channel=0 note=70 velocity=64 time=3600
note_on channel=0 note=60 velocity=64 time=3600
note_off channel=0 note=69 velocity=64 time=3600
note_on channel=0 note=65 velocity=64 time=3600
note_on channel=0 note=70 velocity=64 time=3600
note_on channel=0 note=65 velocity=64 time=3600
note_off channel=0 note=65 velocity=64 time=3600
note_on channel=0 note=69 velocity=64 time=3600
note_off channel=0 note=64 velocity=64 time=3600
note_on channel=0 note=69 velocity=64 time=3600
note_on channel=0 note=61 velocity=64 time=3600
note_off channel=0 note=70 velocity=64 time=3600
note_on channel=0 note=70 velocity=64 time=3600
note_on channel=0 note=70 velocity=64 time=3600
note_off channel=0 note=65 velocity=64 time=3600
note_off channel=0 note=69 velocity=64 time=3600
note_on channel=0 note=70 velocity=64 time=3600
note_off channel=0 note=65 velocity=64 time=3600
note_off channel=0 note=61 velocity=64 time=3600
note_off channel=0 note=67 velocity=64 time=3600
note_on channel=0 note=67 velocity=64 time=3600
note_on channel=0 note=61 velocity=64 time=3600
note_on channel=0 note=64 velocity=64 time=3600
note_off channel=0 note=60 velocity=64 time=3600
note_on channel=0 note=64 velocity=64 time=3600
note_on channel=0 note=69 velocity=64 time=3600
note_off channel=0 note=70 velocity=64 time=3600
note_off channel=0 note=64 velocity=64 time=3600
note_off channel=0 note=61 velocity=64 time=3600
note_on channel=0 note=61 velocity=64 time=3600
note_off channel=0 note=65 velocity=64 time=3600
note_off channel=0 note=64 velocity=64 time=3600
note_off channel=0 note=61 velocity=64 time=3600
note_on channel=0 note=69 velocity=64 time=3600
note_on channel=0 note=69 velocity=64 time=3600
note_off channel=0 note=61 velocity=64 time=3600
note_on channel=0 note=69 velocity=64 time=3600
note_on channel=0 note=69 velocity=64 time=3600
note_off channel=0 note=60 velocity=64 time=3600
note_on channel=0 note=64 velocity=64 time=3600
note_off channel=0 note=67 velocity=64 time=3600
note_off channel=0 note=60 velocity=64 time=3600
note_off channel=0 note=70 velocity=64 time=3600
note_on channel=0 note=65 velocity=64 time=3600
note_on channel=0 note=69 velocity=64 time=3600
note_off channel=0 note=61 velocity=64 time=3600
note_off channel=0 note=60 velocity=64 time=3600
note_on channel=0 note=64 velocity=64 time=3600
note_off channel=0 note=61 velocity=64 time=3600
note_on channel=0 note=67 velocity=64 time=3600
note_off channel=0 note=60 velocity=64 time=3600
note_off channel=0 note=64 velocity=64 time=3600
note_on channel=0 note=69 velocity=64 time=3600
note_off channel=0 note=60 velocity=64 time=3600
note_off channel=0 note=67 velocity=64 time=3600
note_off channel=0 note=60 velocity=64 time=3600
note_on channel=0 note=69 velocity=64 time=3600
note_off channel=0 note=67 velocity=64 time=3600
note_off channel=0 note=69 velocity=64 time=3600
note_on channel=0 note=69 velocity=64 time=3600
note_off channel=0 note=69 velocity=64 time=3600
note_on channel=0 note=60 velocity=64 time=3600
note_off channel=0 note=64 velocity=64 time=3600
note_on channel=0 note=60 velocity=64 time=3600
note_off channel=0 note=64 velocity=64 time=3600
note_off channel=0 note=69 velocity=64 time=3600
note_off channel=0 note=64 velocity=64 time=3600
note_on channel=0 note=64 velocity=64 time=3600
note_off channel=0 note=67 velocity=64 time=3600
note_off channel=0 note=70 velocity=64 time=3600
note_on channel=0 note=67 velocity=64 time=3600
note_on channel=0 note=70 velocity=64 time=3600
note_off channel=0 note=70 velocity=64 time=3600
note_off channel=0 note=61 velocity=64 time=3600
note_on channel=0 note=61 velocity=64 time=3600
note_on channel=0 note=64 velocity=64 time=3600
note_on channel=0 note=69 velocity=64 time=3600
note_off channel=0 note=67 velocity=64 time=3600
note_on channel=0 note=69 velocity=64 time=3600
note_on channel=0 note=61 velocity=64 time=3600
note_on channel=0 note=61 velocity=64 time=3600
note_off channel=0 note=61 velocity=64 time=3840
note_on channel=0 note=65 velocity=64 time=3840
note_on channel=0 note=60 velocity=64 time=3840
note_on channel=0 note=64 velocity=64 time=3840
note_off channel=0 note=64 velocity=64 time=3840
note_off channel=0 note=64 velocity=64 time=3840
note_off channel=0 note=70 velocity=64 time=3840
note_on channel=0 note=60 velocity=64 time=3840
note_on channel=0 note=64 velocity=64 time=3840
note_on channel=0 note=69 velocity=64 time=3840
note_off channel=0 note=69 velocity=64 time=3840
note_off channel=0 note=69 velocity=64 time=3840
note_off channel=0 note=60 velocity=64 time=3840
note_on channel=0 note=60 velocity=64 time=3840
note_on channel=0 note=61 velocity=64 time=3840
note_on channel=0 note=69 velocity=64 time=3840
note_off channel=0 note=64 velocity=64 time=3840
note_off channel=0 note=69 velocity=64 time=3840
note_on channel=0 note=61 velocity=64 time=3840
note_on channel=0 note=67 velocity=64 time=3840
note_off channel=0 note=61 velocity=64 time=3840
note_off channel=0 note=65 velocity=64 time=3840
note_on channel=0 note=64 velocity=64 time=3840
note_on channel=0 note=67 velocity=64 time=3840
note_on channel=0 note=70 velocity=64 time=3840
note_off channel=0 note=67 velocity=64 time=3840
note_off channel=0 note=70 velocity=64 time=3840
note_on channel=0 note=65 velocity=64 time=3840
note_on channel=0 note=70 velocity=64 time=3840
note_on channel=0 note=64 velocity=64 time=3840
note_off channel=0 note=69 velocity=64 time=3840
note_off channel=0 note=69 velocity=64 time=3840
note_on channel=0 note=69 velocity=64 time=3840
note_on channel=0 note=67 velocity=64 time=3840
note_off channel=0 note=60 velocity=64 time=3840
note_on channel=0 note=70 velocity=64 time=3840
note_on channel=0 note=67 velocity=64 time=3840
note_off channel=0 note=65 velocity=64 time=3840
note_off channel=0 note=69 velocity=64 time=3840
note_on channel=0 note=65 velocity=64 time=3840
note_on channel=0 note=61 velocity=64 time=3840
note_off channel=0 note=65 velocity=64 time=3840
note_off channel=0 note=67 velocity=64 time=3840
note_off channel=0 note=64 velocity=64 time=3840
note_on channel=0 note=64 velocity=64 time=3840
note_off channel=0 note=69 velocity=64 time=3840
note_on channel=0 note=60 velocity=64 time=3840
note_off channel=0 note=69 velocity=64 time=3840
note_on channel=0 note=60 velocity=64 time=3840
note_on channel=0 note=60 velocity=64 time=3840
note_on channel=0 note=70 velocity=64 time=3840
note_off channel=0 note=65 velocity=64 time=3840
note_off channel=0 note=67 velocity=64 time=3840
note_on channel=0 note=61 velocity=64 time=3840
note_on channel=0 note=67 velocity=64 time=3840
note_off channel=0 note=70 velocity=64 time=3840
note_on channel=0 note=67 velocity=64 time=3840
note_on channel=0 note=69 velocity=64 time=3840
note_on channel=0 note=69 velocity=64 time=3840
note_off channel=0 note=64 velocity=64 time=3840
note_on channel=0 note=67 velocity=64 time=3840
note_off channel=0 note=70 velocity=64 time=4080
note_off channel=0 note=64 velocity=64 time=4080
note_off channel=0 note=69 velocity=64 time=4080
note_on channel=0 note=65 velocity=64 time=4080
note_on channel=0 note=60 velocity=64 time=4080
note_off channel=0 note=60 velocity=64 time=4080
note_on channel=0 note=67 velocity=64 time=4080
note_off channel=0 note=69 velocity=64 time=4080
note_on channel=0 note=69 velocity=64 time=4080
note_off channel=0 note=65 velocity=64 time=4080
note_off channel=0 note=61 velocity=64 time=4080
note_on channel=0 note=70 velocity=64 time=4080
note_on channel=0 note=60 velocity=64 time=4080
note_on channel=0 note=69 velocity=64 time=4080
note_off channel=0 note=69 velocity=64 time=4080
note_on channel=0 note=69 velocity=64 time=4080
note_off channel=0 note=69 velocity=64 time=4080
note_off channel=0 note=61 velocity=64 time=4080
note_on channel=0 note=65 velocity=64 time=4080
note_on channel=0 note=61 velocity=64 time=4080
note_on channel=0 note=67 velocity=64 time=4080
note_off channel=0 note=70 velocity=64 time=4080
note_off channel=0 note=70 velocity=64 time=4080
note_on channel=0 note=61 velocity=64 time=4080
note_on channel=0 note=61 velocity=64 time=4080
note_on channel=0 note=61 velocity=64 time=4080
note_off channel=0 note=60 velocity=64 time=4080
note_off channel=0 note=67 velocity=64 time=4080
note_off channel=0 note=60 velocity=64 time=4080
note_on channel=0 note=67 velocity=64 time=4080
note_off channel=0 note=70 velocity=64 time=4080
note_on channel=0 note=67 velocity=64 time=4080
note_on channel=0 note=65 velocity=64 time=4080
note_on channel=0 note=61 velocity=64 time=4080
note_off channel=0 note=61 velocity=64 time=4080
note_on channel=0 note=64 velocity=64 time=4080
note_off channel=0 note=69 velocity=64 time=4080
note_off channel=0 note=67 velocity=64 time=4080
note_on channel=0 note=69 velocity=64 time=4080
note_on channel=0 note=60 velocity=64 time=4080
note_off channel=0 note=70 velocity=64 time=4080
note_off channel=0 note=67 velocity=64 time=4080
note_on channel=0 note=61 velocity=64 time=4080
note_off channel=0 note=70 velocity=64 time=4080
note_off channel=0 note=61 velocity=64 time=4080
note_off channel=0 note=61 velocity=64 time=4080
note_on channel=0 note=69 velocity=64 time=4080
note_on channel=0 note=67 velocity=64 time=4080
note_off channel=0 note=69 velocity=64 time=4080
note_off channel=0 note=69 velocity=64 time=4080
note_on channel=0 note=69 velocity=64 time=4080
note_on channel=0 note=67 velocity=64 time=4080
note_on channel=0 note=65 velocity=64 time=4080
note_off channel=0 note=65 velocity=64 time=4080
note_off channel=0 note=67 velocity=64 time=4080
note_off channel=0 note=64 velocity=64 time=4080
note_on channel=0 note=65 velocity=64 time=4080
note_on channel=0 note=61 velocity=64 time=4080
note_off channel=0 note=60 velocity=64 time=4080
note_off channel=0 note=60 velocity=64 time=4080
note_off channel=0 note=70 velocity=64 time=4080
note_on channel=0 note=64 velocity=64 time=4080
note_off channel=0 note=69 velocity=64 time=4080
note_on channel=0 note=64 velocity=64 time=4080
note_on channel=0 note=61 velocity=64 time=4080
note_on channel=0 note=61 velocity=64 time=4080
note_off channel=0 note=61 velocity=64 time=4080
note_off channel=0 note=67 velocity=64 time=4080
note_on channel=0 note=70 velocity=64 time=4080
note_on channel=0 note=67 velocity=64 time=4080
note_off channel=0 note=60 velocity=64 time=4080
note_on channel=0 note=64 velocity=64 time=4080
note_off channel=0 note=67 velocity=64 time=4080
note_off channel=0 note=70 velocity=64 time=4080
note_on channel=0 note=64 velocity=64 time=4080
note_on channel=0 note=61 velocity=64 time=4080
note_on channel=0 note=70 velocity=64 time=4080
note_off channel=0 note=69 velocity=64 time=4080
note_off channel=0 note=61 velocity=64 time=4080
note_off channel=0 note=61 velocity=64 time=4080
note_on channel=0 note=70 velocity=64 time=4080
note_off channel=0 note=69 velocity=64 time=4320
note_on channel=0 note=60 velocity=64 time=4320
note_on channel=0 note=64 velocity=64 time=4320
note_on channel=0 note=60 velocity=64 time=4320
note_off channel=0 note=60 velocity=64 time=4320
note_on channel=0 note=70 velocity=64 time=4320
note_off channel=0 note=60 velocity=64 time=4320
note_off channel=0 note=61 velocity=64 time=4320
note_off channel=0 note=69 velocity=64 time=4320
note_on channel=0 note=69 velocity=64 time=4320
note_on channel=0 note=65 velocity=64 time=4320
note_off channel=0 note=65 velocity=64 time=4320
note_off channel=0 note=61 velocity=64 time=4320
note_off channel=0 note=67 velocity=64 time=4320
note_on channel=0 note=60 velocity=64 time=4320
note_off channel=0 note=61 velocity=64 time=4320
note_off channel=0 note=61 velocity=64 time=4320
note_off channel=0 note=61 velocity=64 time=4320
note_on channel=0 note=61 velocity=64 time=4320
note_on channel=0 note=65 velocity=64 time=4320
note_off channel=0 note=70 velocity=64 time=4320
note_off channel=0 note=70 velocity=64 time=4320
note_off channel=0 note=65 velocity=64 time=4320
note_on channel=0 note=70 velocity=64 time=4320
note_on channel=0 note=69 velocity=64 time=4320
note_on channel=0 note=65 velocity=64 time=4320
note_off channel=0 note=67 velocity=64 time=4320
note_on channel=0 note=60 velocity=64 time=4320
note_on channel=0 note=61 velocity=64 time=4320
note_on channel=0 note=69 velocity=64 time=4320
note_off channel=0 note=70 velocity=64 time=4320
note_on channel=0 note=61 velocity=64 time=4320
note_on channel=0 note=60 velocity=64 time=4320
note_on channel=0 note=69 velocity=64 time=4320
note_off channel=0 note=61 velocity=64 time=4320
note_off channel=0 note=67 velocity=64 time=4320
note_on channel=0 note=65 velocity=64 time=4320
note_on channel=0 note=69 velocity=64 time=4320
note_on channel=0 note=64 velocity=64 time=4320
note_off channel=0 note=64 velocity=64 time=4320
note_on channel=0 note=65 velocity=64 time=4320
note_on channel=0 note=61 velocity=64 time=4320
note_on channel=0 note=61 velocity=64 time=4320
note_off channel=0 note=69 velocity=64 time=4320
note_off channel=0 note=67 velocity=64 time=4320
note_on channel=0 note=69 velocity=64 time=4320
note_off channel=0 note=65 velocity=64 time=4320
note_off channel=0 note=61 velocity=64 time=4320
note_on channel=0 note=64 velocity=64 time=4320
note_on channel=0 note=69 velocity=64 time=4320
note_on channel=0 note=70 velocity=64 time=4320
note_off channel=0 note=64 velocity=64 time=4320
note_on channel=0 note=61 velocity=64 time=4320
note_on channel=0 note=69 velocity=64 time=4320
note_on channel=0 note=60 velocity=64 time=4320
note_off channel=0 note=69 velocity=64 time=4320
note_on channel=0 note=65 velocity=64 time=4320
note_on channel=0 note=64 velocity=64 time=4320
note_on channel=0 note=64 velocity=64 time=4320
note_off channel=0 note=60 velocity=64 time=4320
note_on channel=0 note=69 velocity=64 time=4320
note_off channel=0 note=64 velocity=64 time=4320
note_on channel=0 note=69 velocity=64 time=4320
note_off channel=0 note=64 velocity=64 time=4320
note_off channel=0 note=70 velocity=64 time=4320
note_on channel=0 note=70 velocity=64 time=4320
note_on channel=0 note=70 velocity=64 time=4320
note_off channel=0 note=70 velocity=64 time=4320
note_off channel=0 note=67 velocity=64 time=4320
note_off channel=0 note=65 velocity=64 time=4320
note_on channel=0 note=64 velocity=64 time=4320
note_off channel=0 note=67 velocity=64 time=4320
note_off channel=0 note=69 velocity=64 time=4320
note_off channel=0 note=69 velocity=64 time=4320
note_on channel=0 note=60 velocity=64 time=4320
note_on channel=0 note=61 velocity=64 time=4320
note_off channel=0 note=67 velocity=64 time=4320
note_on channel=0 note=70 velocity=64 time=4320
note_on channel=0 note=61 velocity=64 time=4320
note_off channel=0 note=65 velocity=64 time=4320
note_off channel=0 note=70 velocity=64 time=4320
note_on channel=0 note=70 velocity=64 time=4320
note_on channel=0 note=65 velocity=64 time=4320
note_off channel=0 note=70 velocity=64 time=4320
note_on channel=0 note=69 velocity=64 time=4320
note_on channel=0 note=67 velocity=64 time=4320
note_off channel=0 note=65 velocity=64 time=4560
note_off channel=0 note=60 velocity=64 time=4560
note_on channel=0 note=67 velocity=64 time=4560
note_on channel=0 note=70 velocity=64 time=4560
note_off channel=0 note=60 velocity=64 time=4560
note_on channel=0 note=65 velocity=64 time=4560
note_on channel=0 note=60 velocity=64 time=4560
note_off channel=0 note=67 velocity=64 time=4560
note_on channel=0 note=64 velocity=64 time=4560
note_off channel=0 note=67 velocity=64 time=4560
note_off channel=0 note=70 velocity=64 time=4560
note_off channel=0 note=60 velocity=64 time=4560
note_on channel=0 note=69 velocity=64 time=4560
note_off channel=0 note=65 velocity=64 time=4560
note_off channel=0 note=70 velocity=64 time=4560
note_off channel=0 note=65 velocity=64 time=4560
note_on channel=0 note=64 velocity=64 time=4560
note_off channel=0 note=60 velocity=64 time=4560
note_on channel=0 note=69 velocity=64 time=4560
note_off channel=0 note=70 velocity=64 time=4560
note_off channel=0 note=69 velocity=64 time=4560
note_off channel=0 note=65 velocity=64 time=4560
note_on channel=0 note=69 velocity=64 time=4560
note_on channel=0 note=69 velocity=64 time=4560
note_off channel=0 note=60 velocity=64 time=4560
note_off channel=0 note=61 velocity=64 time=4560
note_off channel=0 note=69 velocity=64 time=4560
note_on channel=0 note=70 velocity=64 time=4560
note_on channel=0 note=69 velocity=64 time=4560
note_off channel=0 note=67 velocity=64 time=4560
note_off channel=0 note=61 velocity=64 time=4560
note_off channel=0 note=64 velocity=64 time=4560
note_on channel=0 note=61 velocity=64 time=4560
note_off channel=0 note=65 velocity=64 time=4560
note_off channel=0 note=69 velocity=64 time=4560
note_off channel=0 note=64 velocity=64 time=4560
note_on channel=0 note=60 velocity=64 time=4560
note_on channel=0 note=60 velocity=64 time=4560
note_off channel=0 note=61 velocity=64 time=4560
note_on channel=0 note=64 velocity=64 time=4560
note_off channel=0 note=69 velocity=64 time=4560
note_off channel=0 note=67 velocity=64 time=4560
note_off channel=0 note=65 velocity=64 time=4560
note_on channel=0 note=61 velocity=64 time=4560
note_on channel=0 note=64 velocity=64 time=4560
note_on channel=0 note=70 velocity=64 time=4560
note_off channel=0 note=64 velocity=64 time=4560
note_on channel=0 note=65 velocity=64 time=4560
note_on channel=0 note=70 velocity=64 time=4560
note_off channel=0 note=61 velocity=64 time=4560
note_off channel=0 note=69 velocity=64 time=4560
note_off channel=0 note=60 velocity=64 time=4560
note_on channel=0 note=67 velocity=64 time=4560
note_on channel=0 note=60 velocity=64 time=4560
note_on channel=0 note=65 velocity=64 time=4560
note_off channel=0 note=64 velocity=64 time=4560
note_on channel=0 note=70 velocity=64 time=4560
note_off channel=0 note=65 velocity=64 time=4560
note_off channel=0 note=64 velocity=64 time=4560
note_off channel=0 note=64 velocity=64 time=4560
note_on channel=0 note=70 velocity=64 time=4560
note_off channel=0 note=67 velocity=64 time=4560
note_on channel=0 note=64 velocity=64 time=4560
note_on channel=0 note=70 velocity=64 time=4560
note_on channel=0 note=67 velocity=64 time=4560
note_off channel=0 note=69 velocity=64 time=4560
note_on channel=0 note=65 velocity=64 time=4560
note_on channel=0 note=64 velocity=64 time=4560
note_on channel=0 note=64 velocity=64 time=4560
note_off channel=0 note=64 velocity=64 time=4560
note_off channel=0 note=61 velocity=64 time=4560
note_off channel=0 note=61 velocity=64 time=4560
note_on channel=0 note=70 velocity=64 time=4560
note_off channel=0 note=70 velocity=64 time=4560
note_off channel=0 note=67 velocity=64 time=4560
note_on channel=0 note=61 velocity=64 time=4560
note_on channel=0 note=65 velocity=64 time=4560
note_off channel=0 note=64 velocity=64 time=4560
note_on channel=0 note=69 velocity=64 time=4560
note_off channel=0 note=64 velocity=64 time=4560
note_on channel=0 note=65 velocity=64 time=4560
note_off channel=0 note=60 velocity=64 time=4560
note_on channel=0 note=64 velocity=64 time=4560
note_on channel=0 note=69 velocity=64 time=4560
note_off channel=0 note=70 velocity=64 time=4560
note_off channel=0 note=61 velocity=64 time=4560
note_on channel=0 note=61 velocity=64 time=4560
note_on channel=0 note=67 velocity=64 time=4560
note_on channel=0 note=60 velocity=64 time=4560
note_off channel=0 note=61 velocity=64 time=4560
note_off channel=0 note=64 velocity=64 time=4560
note_off channel=0 note=69 velocity=64 time=4560
note_on channel=0 note=65 velocity=64 time=4560
note_on channel=0 note=65 velocity=64 time=4560
note_on channel=0 note=69 velocity=64 time=4560
note_off channel=0 note=65 velocity=64 time=4800
note_off channel=0 note=60 velocity=64 time=4800
note_off channel=0 note=64 velocity=64 time=4800
note_off channel=0 note=65 velocity=64 time=4800
note_off channel=0 note=60 velocity=64 time=4800
note_off channel=0 note=64 velocity=64 time=4800
note_off channel=0 note=60 velocity=64 time=4800
note_off channel=0 note=64 velocity=64 time=4800
note_off channel=0 note=60 velocity=64 time=4800
note_off channel=0 note=60 velocity=64 time=4800
note_off channel=0 note=64 velocity=64 time=4800
note_off channel=0 note=69 velocity=64 time=4800
note_off channel=0 note=70 velocity=64 time=4800
note_off channel=0 note=69 velocity=64 time=4800
note_off channel=0 note=65 velocity=64 time=4800
note_off channel=0 note=69 velocity=64 time=4800
note_off channel=0 note=61 velocity=64 time=4800
note_off channel=0 note=65 velocity=64 time=4800
note_off channel=0 note=70 velocity=64 time=4800
note_off channel=0 note=69 velocity=64 time=4800
note_off channel=0 note=61 velocity=64 time=4800
note_off channel=0 note=60 velocity=64 time=4800
note_off channel=0 note=69 velocity=64 time=4800
note_off channel=0 note=64 velocity=64 time=4800
note_off channel=0 note=67 velocity=64 time=4800
note_off channel=0 note=70 velocity=64 time=4800
note_off channel=0 note=65 velocity=64 time=4800
note_off channel=0 note=70 velocity=64 time=4800
note_off channel=0 note=64 velocity=64 time=4800
note_off channel=0 note=61 velocity=64 time=4800
note_off channel=0 note=64 velocity=64 time=4800
note_off channel=0 note=70 velocity=64 time=4800
note_off channel=0 note=64 velocity=64 time=4800
note_off channel=0 note=69 velocity=64 time=4800
note_off channel=0 note=70 velocity=64 time=4800
note_off channel=0 note=65 velocity=64 time=4800
note_off channel=0 note=61 velocity=64 time=4800
note_off channel=0 note=67 velocity=64 time=4800
note_off channel=0 note=60 velocity=64 time=4800
note_off channel=0 note=70 velocity=64 time=4800
note_off channel=0 note=65 velocity=64 time=4800
note_off channel=0 note=69 velocity=64 time=5040
note_off channel=0 note=70 velocity=64 time=5040
note_off channel=0 note=60 velocity=64 time=5040
note_off channel=0 note=69 velocity=64 time=5040
note_off channel=0 note=69 velocity=64 time=5040
note_off channel=0 note=67 velocity=64 time=5040
note_off channel=0 note=65 velocity=64 time=5040
note_off channel=0 note=61 velocity=64 time=5040
note_off channel=0 note=61 velocity=64 time=5040
note_off channel=0 note=60 velocity=64 time=5040
note_off channel=0 note=60 velocity=64 time=5040
note_off channel=0 note=69 velocity=64 time=5040
note_off channel=0 note=60 velocity=64 time=5040
note_off channel=0 note=65 velocity=64 time=5040
note_off channel=0 note=70 velocity=64 time=5040
note_off channel=0 note=70 velocity=64 time=5040
note_off channel=0 note=70 velocity=64 time=5040
note_off channel=0 note=64 velocity=64 time=5040
note_off channel=0 note=70 velocity=64 time=5040
note_off channel=0 note=67 velocity=64 time=5040
note_off channel=0 note=65 velocity=64 time=5040
note_off channel=0 note=64 velocity=64 time=5040
note_off channel=0 note=64 velocity=64 time=5040
note_off channel=0 note=65 velocity=64 time=5040
note_off channel=0 note=61 velocity=64 time=5040
note_off channel=0 note=69 velocity=64 time=5040
note_off channel=0 note=64 velocity=64 time=5040
note_off channel=0 note=69 velocity=64 time=5040
note_off channel=0 note=64 velocity=64 time=5040
note_off channel=0 note=61 velocity=64 time=5040
note_off channel=0 note=70 velocity=64 time=5040
note_off channel=0 note=65 velocity=64 time=5280
note_off channel=0 note=61 velocity=64 time=5280
note_off channel=0 note=61 velocity=64 time=5280
note_off channel=0 note=69 velocity=64 time=5280
note_off channel=0 note=69 velocity=64 time=5280
note_off channel=0 note=70 velocity=64 time=5280
note_off channel=0 note=70 velocity=64 time=5280
note_off channel=0 note=60 velocity=64 time=5280
note_off channel=0 note=61 velocity=64 time=5280
note_off channel=0 note=69 velocity=64 time=5280
note_off channel=0 note=67 velocity=64 time=5280
note_off channel=0 note=67 velocity=64 time=5520
note_off channel=0 note=70 velocity=64 time=5520
note_off channel=0 note=64 velocity=64 time=5520
note_off channel=0 note=69 velocity=64 time=5520
note_off channel=0 note=69 velocity=64 time=5520
note_off channel=0 note=64 velocity=64 time=5520
note_off channel=0 note=67 velocity=64 time=5520
note_off channel=0 note=60 velocity=64 time=5520
note_off channel=0 note=65 velocity=64 time=5520
note_off channel=0 note=70 velocity=64 time=5520
note_off channel=0 note=61 velocity=64 time=5520
note_off channel=0 note=65 velocity=64 time=5520
note_off channel=0 note=65 velocity=64 time=5520
note_off channel=0 note=65 velocity=64 time=5520
note_off channel=0 note=69 velocity=64 time=5520
