note_on channel=0 note=69 velocity=64 time=0
note_off channel=0 note=69 velocity=64 time=200
note_on channel=0 note=64 velocity=64 time=0
note_off channel=0 note=64 velocity=64 time=200
note_on channel=0 note=65 velocity=64 time=200
note_off channel=0 note=65 velocity=64 time=400
note_on channel=0 note=70 velocity=64 time=200
note_off channel=0 note=70 velocity=64 time=400
note_on channel=0 note=69 velocity=64 time=200
note_off channel=0 note=69 velocity=64 time=400
note_on channel=0 note=67 velocity=64 time=400
note_off channel=0 note=67 velocity=64 time=800
note_on channel=0 note=70 velocity=64 time=400
note_off channel=0 note=70 velocity=64 time=800
note_on channel=0 note=61 velocity=64 time=800
note_off channel=0 note=61 velocity=64 time=900
note_on channel=0 note=69 velocity=64 time=900
note_off channel=0 note=69 velocity=64 time=1300
note_on channel=0 note=70 velocity=64 time=900
note_off channel=0 note=70 velocity=64 time=1300
note_on channel=0 note=65 velocity=64 time=900
note_off channel=0 note=65 velocity=64 time=1300
note_on channel=0 note=70 velocity=64 time=1300
note_off channel=0 note=70 velocity=64 time=1700
note_on channel=0 note=64 velocity=64 time=1300
note_off channel=0 note=64 velocity=64 time=1700
note_on channel=0 note=69 velocity=64 time=1300
note_off channel=0 note=69 velocity=64 time=1700
note_on channel=0 note=65 velocity=64 time=1700
note_off channel=0 note=65 velocity=64 time=1900
note_on channel=0 note=60 velocity=64 time=1700
note_off channel=0 note=60 velocity=64 time=1900
note_on channel=0 note=67 velocity=64 time=1900
note_off channel=0 note=67 velocity=64 time=2300
note_on channel=0 note=70 velocity=64 time=1900
note_off channel=0 note=70 velocity=64 time=2300
note_on channel=0 note=65 velocity=64 time=2300
note_off channel=0 note=65 velocity=64 time=2400
note_on channel=0 note=65 velocity=64 time=2300
note_off channel=0 note=65 velocity=64 time=2400
note_on channel=0 note=70 velocity=64 time=0
note_off channel=0 note=70 velocity=64 time=400
note_on channel=0 note=60 velocity=64 time=0
note_off channel=0 note=60 velocity=64 time=400
note_on channel=0 note=69 velocity=64 time=0
note_off channel=0 note=69 velocity=64 time=400
note_on channel=0 note=67 velocity=64 time=400
note_off channel=0 note=67 velocity=64 time=600
note_on channel=0 note=67 velocity=64 time=400
note_off channel=0 note=67 velocity=64 time=600
note_on channel=0 note=69 velocity=64 time=400
note_off channel=0 note=69 velocity=64 time=600
note_on channel=0 note=69 velocity=64 time=600
note_off channel=0 note=69 velocity=64 time=1000
note_on channel=0 note=61 velocity=64 time=1000
note_off channel=0 note=61 velocity=64 time=1400
note_on channel=0 note=61 velocity=64 time=1400
note_off channel=0 note=61 velocity=64 time=1500
note_on channel=0 note=65 velocity=64 time=1500
note_off channel=0 note=65 velocity=64 time=1900
note_on channel=0 note=60 velocity=64 time=1500
note_off channel=0 note=60 velocity=64 time=1900
note_on channel=0 note=64 velocity=64 time=1500
note_off channel=0 note=64 velocity=64 time=1900
note_on channel=0 note=60 velocity=64 time=1900
note_off channel=0 note=60 velocity=64 time=2300
note_on channel=0 note=65 velocity=64 time=1900
note_off channel=0 note=65 velocity=64 time=2300
note_on channel=0 note=65 velocity=64 time=2300
note_off channel=0 note=65 velocity=64 time=2700
note_on channel=0 note=70 velocity=64 time=0
note_off channel=0 note=70 velocity=64 time=400
note_on channel=0 note=67 velocity=64 time=400
note_off channel=0 note=67 velocity=64 time=600
note_on channel=0 note=65 velocity=64 time=400
note_off channel=0 note=65 velocity=64 time=600
note_on channel=0 note=67 velocity=64 time=400
note_off channel=0 note=67 velocity=64 time=600
note_on channel=0 note=67 velocity=64 time=600
note_off channel=0 note=67 velocity=64 time=700
note_on channel=0 note=64 velocity=64 time=600
note_off channel=0 note=64 velocity=64 time=700
note_on channel=0 note=60 velocity=64 time=700
note_off channel=0 note=60 velocity=64 time=1100
note_on channel=0 note=65 velocity=64 time=1100
note_off channel=0 note=65 velocity=64 time=1200
note_on channel=0 note=60 velocity=64 time=1100
note_off channel=0 note=60 velocity=64 time=1200
note_on channel=0 note=70 velocity=64 time=1200
note_off channel=0 note=70 velocity=64 time=1300
note_on channel=0 note=70 velocity=64 time=1300
note_off channel=0 note=70 velocity=64 time=1700
note_on channel=0 note=65 velocity=64 time=1300
note_off channel=0 note=65 velocity=64 time=1700
note_on channel=0 note=64 velocity=64 time=1300
note_off channel=0 note=64 velocity=64 time=1700
note_on channel=0 note=61 velocity=64 time=1700
note_off channel=0 note=61 velocity=64 time=2100
note_on channel=0 note=69 velocity=64 time=1700
note_off channel=0 note=69 velocity=64 time=2100
note_on channel=0 note=69 velocity=64 time=1700
note_off channel=0 note=69 velocity=64 time=2100
note_on channel=0 note=69 velocity=64 time=2100
note_off channel=0 note=69 velocity=64 time=2300
note_on channel=0 note=64 velocity=64 time=2100
note_off channel=0 note=64 velocity=64 time=2300
note_on channel=0 note=61 velocity=64 time=2100
note_off channel=0 note=61 velocity=64 time=2300
note_on channel=0 note=67 velocity=64 time=2300
note_off channel=0 note=67 velocity=64 time=2500
note_on channel=0 note=67 velocity=64 time=2300
note_off channel=0 note=67 velocity=64 time=2500
note_on channel=0 note=70 velocity=64 time=2300
note_off channel=0 note=70 velocity=64 time=2500
note_on channel=0 note=64 velocity=64 time=0
note_off channel=0 note=64 velocity=64 time=100
note_on channel=0 note=67 velocity=64 time=100
note_off channel=0 note=67 velocity=64 time=200
note_on channel=0 note=64 velocity=64 time=100
note_off channel=0 note=64 velocity=64 time=200
note_on channel=0 note=60 velocity=64 time=200
note_off channel=0 note=60 velocity=64 time=400
note_on channel=0 note=67 velocity=64 time=400
note_off channel=0 note=67 velocity=64 time=600
note_on channel=0 note=64 velocity=64 time=600
note_off channel=0 note=64 velocity=64 time=700
note_on channel=0 note=69 velocity=64 time=700
note_off channel=0 note=69 velocity=64 time=1100
note_on channel=0 note=60 velocity=64 time=1100
note_off channel=0 note=60 velocity=64 time=1500
note_on channel=0 note=70 velocity=64 time=1500
note_off channel=0 note=70 velocity=64 time=1600
note_on channel=0 note=65 velocity=64 time=1500
note_off channel=0 note=65 velocity=64 time=1600
note_on channel=0 note=67 velocity=64 time=1500
note_off channel=0 note=67 velocity=64 time=1600
note_on channel=0 note=67 velocity=64 time=1600
note_off channel=0 note=67 velocity=64 time=2000
note_on channel=0 note=60 velocity=64 time=2000
note_off channel=0 note=60 velocity=64 time=2100
note_on channel=0 note=60 velocity=64 time=2000
note_off channel=0 note=60 velocity=64 time=2100
note_on channel=0 note=69 velocity=64 time=2000
note_off channel=0 note=69 velocity=64 time=2100
note_on channel=0 note=67 velocity=64 time=2100
note_off channel=0 note=67 velocity=64 time=2200
note_on channel=0 note=69 velocity=64 time=2200
note_off channel=0 note=69 velocity=64 time=2400
note_on channel=0 note=69 velocity=64 time=0
note_off channel=0 note=69 velocity=64 time=100
note_on channel=0 note=60 velocity=64 time=100
note_off channel=0 note=60 velocity=64 time=300
note_on channel=0 note=64 velocity=64 time=100
note_off channel=0 note=64 velocity=64 time=300
note_on channel=0 note=60 velocity=64 time=100
note_off channel=0 note=60 velocity=64 time=300
note_on channel=0 note=61 velocity=64 time=300
note_off channel=0 note=61 velocity=64 time=700
note_on channel=0 note=64 velocity=64 time=700
note_off channel=0 note=64 velocity=64 time=1100
note_on channel=0 note=61 velocity=64 time=700
note_off channel=0 note=61 velocity=64 time=1100
note_on channel=0 note=60 velocity=64 time=1100
note_off channel=0 note=60 velocity=64 time=1300
note_on channel=0 note=60 velocity=64 time=1100
note_off channel=0 note=60 velocity=64 time=1300
note_on channel=0 note=61 velocity=64 time=1300
note_off channel=0 note=61 velocity=64 time=1700
note_on channel=0 note=69 velocity=64 time=1700
note_off channel=0 note=69 velocity=64 time=1800
note_on channel=0 note=70 velocity=64 time=1700
note_off channel=0 note=70 velocity=64 time=1800
note_on channel=0 note=67 velocity=64 time=1800
note_off channel=0 note=67 velocity=64 time=2200
note_on channel=0 note=70 velocity=64 time=1800
note_off channel=0 note=70 velocity=64 time=2200
note_on channel=0 note=60 velocity=64 time=1800
note_off channel=0 note=60 velocity=64 time=2200
note_on channel=0 note=69 velocity=64 time=2200
note_off channel=0 note=69 velocity=64 time=2400
note_on channel=0 note=61 velocity=64 time=0
note_off channel=0 note=61 velocity=64 time=100
note_on channel=0 note=67 velocity=64 time=0
note_off channel=0 note=67 velocity=64 time=100
note_on channel=0 note=65 velocity=64 time=0
note_off channel=0 note=65 velocity=64 time=100
note_on channel=0 note=65 velocity=64 time=100
note_off channel=0 note=65 velocity=64 time=300
note_on channel=0 note=70 velocity=64 time=300
note_off channel=0 note=70 velocity=64 time=500
note_on channel=0 note=70 velocity=64 time=300
note_off channel=0 note=70 velocity=64 time=500
note_on channel=0 note=67 velocity=64 time=300
note_off channel=0 note=67 velocity=64 time=500
note_on channel=0 note=61 velocity=64 time=500
note_off channel=0 note=61 velocity=64 time=900
note_on channel=0 note=65 velocity=64 time=500
note_off channel=0 note=65 velocity=64 time=900
note_on channel=0 note=60 velocity=64 time=500
note_off channel=0 note=60 velocity=64 time=900
note_on channel=0 note=64 velocity=64 time=900
note_off channel=0 note=64 velocity=64 time=1000
note_on channel=0 note=61 velocity=64 time=1000
note_off channel=0 note=61 velocity=64 time=1200
note_on channel=0 note=61 velocity=64 time=1000
note_off channel=0 note=61 velocity=64 time=1200
note_on channel=0 note=70 velocity=64 time=1000
note_off channel=0 note=70 velocity=64 time=1200
note_on channel=0 note=64 velocity=64 time=1200
note_off channel=0 note=64 velocity=64 time=1600
note_on channel=0 note=64 velocity=64 time=1200
note_off channel=0 note=64 velocity=64 time=1600
note_on channel=0 note=70 velocity=64 time=1200
note_off channel=0 note=70 velocity=64 time=1600
note_on channel=0 note=60 velocity=64 time=1600
note_off channel=0 note=60 velocity=64 time=2000
note_on channel=0 note=64 velocity=64 time=1600
note_off channel=0 note=64 velocity=64 time=2000
note_on channel=0 note=69 velocity=64 time=1600
note_off channel=0 note=69 velocity=64 time=2000
note_on channel=0 note=60 velocity=64 time=2000
note_off channel=0 note=60 velocity=64 time=2100
note_on channel=0 note=64 velocity=64 time=2100
note_off channel=0 note=64 velocity=64 time=2300
note_on channel=0 note=61 velocity=64 time=2100
note_off channel=0 note=61 velocity=64 time=2300
note_on channel=0 note=67 velocity=64 time=2100
note_off channel=0 note=67 velocity=64 time=2300
note_on channel=0 note=70 velocity=64 time=2300
note_off channel=0 note=70 velocity=64 time=2500
note_on channel=0 note=65 velocity=64 time=2300
note_off channel=0 note=65 velocity=64 time=2500
note_on channel=0 note=64 velocity=64 time=2300
note_off channel=0 note=64 velocity=64 time=2500
note_on channel=0 note=65 velocity=64 time=0
note_off channel=0 note=65 velocity=64 time=100
note_on channel=0 note=69 velocity=64 time=0
note_off channel=0 note=69 velocity=64 time=100
note_on channel=0 note=67 velocity=64 time=0
note_off channel=0 note=67 velocity=64 time=100
note_on channel=0 note=60 velocity=64 time=100
note_off channel=0 note=60 velocity=64 time=300
note_on channel=0 note=67 velocity=64 time=100
note_off channel=0 note=67 velocity=64 time=300
note_on channel=0 note=70 velocity=64 time=300
note_off channel=0 note=70 velocity=64 time=400
note_on channel=0 note=70 velocity=64 time=300
note_off channel=0 note=70 velocity=64 time=400
note_on channel=0 note=67 velocity=64 time=300
note_off channel=0 note=67 velocity=64 time=400
note_on channel=0 note=65 velocity=64 time=400
note_off channel=0 note=65 velocity=64 time=600
note_on channel=0 note=60 velocity=64 time=600
note_off channel=0 note=60 velocity=64 time=800
note_on channel=0 note=69 velocity=64 time=600
note_off channel=0 note=69 velocity=64 time=800
note_on channel=0 note=65 velocity=64 time=800
note_off channel=0 note=65 velocity=64 time=1200
note_on channel=0 note=69 velocity=64 time=1200
note_off channel=0 note=69 velocity=64 time=1300
note_on channel=0 note=64 velocity=64 time=1300
note_off channel=0 note=64 velocity=64 time=1700
note_on channel=0 note=64 velocity=64 time=1700
note_off channel=0 note=64 velocity=64 time=2100
note_on channel=0 note=61 velocity=64 time=1700
note_off channel=0 note=61 velocity=64 time=2100
note_on channel=0 note=70 velocity=64 time=2100
note_off channel=0 note=70 velocity=64 time=2500
note_on channel=0 note=67 velocity=64 time=0
note_off channel=0 note=67 velocity=64 time=100
note_on channel=0 note=61 velocity=64 time=0
note_off channel=0 note=61 velocity=64 time=100
note_on channel=0 note=67 velocity=64 time=0
note_off channel=0 note=67 velocity=64 time=100
note_on channel=0 note=61 velocity=64 time=100
note_off channel=0 note=61 velocity=64 time=200
note_on channel=0 note=70 velocity=64 time=100
note_off channel=0 note=70 velocity=64 time=200
note_on channel=0 note=69 velocity=64 time=200
note_off channel=0 note=69 velocity=64 time=300
note_on channel=0 note=64 velocity=64 time=200
note_off channel=0 note=64 velocity=64 time=300
note_on channel=0 note=61 velocity=64 time=300
note_off channel=0 note=61 velocity=64 time=500
note_on channel=0 note=70 velocity=64 time=500
note_off channel=0 note=70 velocity=64 time=600
note_on channel=0 note=65 velocity=64 time=600
note_off channel=0 note=65 velocity=64 time=700
note_on channel=0 note=67 velocity=64 time=600
note_off channel=0 note=67 velocity=64 time=700
note_on channel=0 note=64 velocity=64 time=600
note_off channel=0 note=64 velocity=64 time=700
note_on channel=0 note=69 velocity=64 time=700
note_off channel=0 note=69 velocity=64 time=800
note_on channel=0 note=60 velocity=64 time=700
note_off channel=0 note=60 velocity=64 time=800
note_on channel=0 note=61 velocity=64 time=800
note_off channel=0 note=61 velocity=64 time=1200
note_on channel=0 note=64 velocity=64 time=800
note_off channel=0 note=64 velocity=64 time=1200
note_on channel=0 note=64 velocity=64 time=800
note_off channel=0 note=64 velocity=64 time=1200
note_on channel=0 note=69 velocity=64 time=1200
note_off channel=0 note=69 velocity=64 time=1600
note_on channel=0 note=67 velocity=64 time=1600
note_off channel=0 note=67 velocity=64 time=2000
note_on channel=0 note=67 velocity=64 time=1600
note_off channel=0 note=67 velocity=64 time=2000
note_on channel=0 note=70 velocity=64 time=1600
note_off channel=0 note=70 velocity=64 time=2000
note_on channel=0 note=64 velocity=64 time=2000
note_off channel=0 note=64 velocity=64 time=2100
note_on channel=0 note=65 velocity=64 time=2000
note_off channel=0 note=65 velocity=64 time=2100
note_on channel=0 note=67 velocity=64 time=2100
note_off channel=0 note=67 velocity=64 time=2200
note_on channel=0 note=60 velocity=64 time=2100
note_off channel=0 note=60 velocity=64 time=2200
note_on channel=0 note=64 velocity=64 time=2200
note_off channel=0 note=64 velocity=64 time=2600
note_on channel=0 note=69 velocity=64 time=2200
note_off channel=0 note=69 velocity=64 time=2600
note_on channel=0 note=64 velocity=64 time=0
note_off channel=0 note=64 velocity=64 time=400
note_on channel=0 note=60 velocity=64 time=400
note_off channel=0 note=60 velocity=64 time=500
note_on channel=0 note=70 velocity=64 time=500
note_off channel=0 note=70 velocity=64 time=700
note_on channel=0 note=64 velocity=64 time=700
note_off channel=0 note=64 velocity=64 time=900
note_on channel=0 note=65 velocity=64 time=700
note_off channel=0 note=65 velocity=64 time=900
note_on channel=0 note=65 velocity=64 time=900
note_off channel=0 note=65 velocity=64 time=1000
note_on channel=0 note=64 velocity=64 time=1000
note_off channel=0 note=64 velocity=64 time=1400
note_on channel=0 note=60 velocity=64 time=1400
note_off channel=0 note=60 velocity=64 time=1600
note_on channel=0 note=64 velocity=64 time=1400
note_off channel=0 note=64 velocity=64 time=1600
note_on channel=0 note=64 velocity=64 time=1400
note_off channel=0 note=64 velocity=64 time=1600
note_on channel=0 note=60 velocity=64 time=1600
note_off channel=0 note=60 velocity=64 time=1800
note_on channel=0 note=64 velocity=64 time=1800
note_off channel=0 note=64 velocity=64 time=2000
note_on channel=0 note=69 velocity=64 time=1800
note_off channel=0 note=69 velocity=64 time=2000
note_on channel=0 note=65 velocity=64 time=2000
note_off channel=0 note=65 velocity=64 time=2400
note_on channel=0 note=64 velocity=64 time=0
note_off channel=0 note=64 velocity=64 time=400
note_on channel=0 note=64 velocity=64 time=0
note_off channel=0 note=64 velocity=64 time=400
note_on channel=0 note=70 velocity=64 time=400
note_off channel=0 note=70 velocity=64 time=600
note_on channel=0 note=70 velocity=64 time=400
note_off channel=0 note=70 velocity=64 time=600
note_on channel=0 note=67 velocity=64 time=400
note_off channel=0 note=67 velocity=64 time=600
note_on channel=0 note=60 velocity=64 time=600
note_off channel=0 note=60 velocity=64 time=700
note_on channel=0 note=69 velocity=64 time=600
note_off channel=0 note=69 velocity=64 time=700
note_on channel=0 note=61 velocity=64 time=600
note_off channel=0 note=61 velocity=64 time=700
note_on channel=0 note=64 velocity=64 time=700
note_off channel=0 note=64 velocity=64 time=800
note_on channel=0 note=65 velocity=64 time=800
note_off channel=0 note=65 velocity=64 time=1000
note_on channel=0 note=64 velocity=64 time=800
note_off channel=0 note=64 velocity=64 time=1000
note_on channel=0 note=69 velocity=64 time=1000
note_off channel=0 note=69 velocity=64 time=1100
note_on channel=0 note=61 velocity=64 time=1000
note_off channel=0 note=61 velocity=64 time=1100
note_on channel=0 note=60 velocity=64 time=1000
note_off channel=0 note=60 velocity=64 time=1100
note_on channel=0 note=67 velocity=64 time=1100
note_off channel=0 note=67 velocity=64 time=1200
note_on channel=0 note=61 velocity=64 time=1100
note_off channel=0 note=61 velocity=64 time=1200
note_on channel=0 note=60 velocity=64 time=1200
note_off channel=0 note=60 velocity=64 time=1600
note_on channel=0 note=69 velocity=64 time=1200
note_off channel=0 note=69 velocity=64 time=1600
note_on channel=0 note=70 velocity=64 time=1600
note_off channel=0 note=70 velocity=64 time=1800
note_on channel=0 note=61 velocity=64 time=1800
note_off channel=0 note=61 velocity=64 time=2200
note_on channel=0 note=65 velocity=64 time=1800
note_off channel=0 note=65 velocity=64 time=2200
note_on channel=0 note=61 velocity=64 time=1800
note_off channel=0 note=61 velocity=64 time=2200
note_on channel=0 note=70 velocity=64 time=2200
note_off channel=0 note=70 velocity=64 time=2300
note_on channel=0 note=61 velocity=64 time=2300
note_off channel=0 note=61 velocity=64 time=2700
note_on channel=0 note=61 velocity=64 time=2300
note_off channel=0 note=61 velocity=64 time=2700
note_on channel=0 note=64 velocity=64 time=2300
note_off channel=0 note=64 velocity=64 time=2700
note_on channel=0 note=65 velocity=64 time=0
note_off channel=0 note=65 velocity=64 time=100
note_on channel=0 note=60 velocity=64 time=100
note_off channel=0 note=60 velocity=64 time=300
note_on channel=0 note=69 velocity=64 time=100
note_off channel=0 note=69 velocity=64 time=300
note_on channel=0 note=64 velocity=64 time=300
note_off channel=0 note=64 velocity=64 time=500
note_on channel=0 note=61 velocity=64 time=300
note_off channel=0 note=61 velocity=64 time=500
note_on channel=0 note=65 velocity=64 time=300
note_off channel=0 note=65 velocity=64 time=500
note_on channel=0 note=67 velocity=64 time=500
note_off channel=0 note=67 velocity=64 time=900
note_on channel=0 note=69 velocity=64 time=500
note_off channel=0 note=69 velocity=64 time=900
note_on channel=0 note=61 velocity=64 time=900
note_off channel=0 note=61 velocity=64 time=1300
note_on channel=0 note=69 velocity=64 time=900
note_off channel=0 note=69 velocity=64 time=1300
note_on channel=0 note=70 velocity=64 time=1300
note_off channel=0 note=70 velocity=64 time=1400
note_on channel=0 note=60 velocity=64 time=1400
note_off channel=0 note=60 velocity=64 time=1800
note_on channel=0 note=70 velocity=64 time=1800
note_off channel=0 note=70 velocity=64 time=2000
note_on channel=0 note=61 velocity=64 time=2000
note_off channel=0 note=61 velocity=64 time=2100
note_on channel=0 note=64 velocity=64 time=2000
note_off channel=0 note=64 velocity=64 time=2100
note_on channel=0 note=60 velocity=64 time=2000
note_off channel=0 note=60 velocity=64 time=2100
note_on channel=0 note=70 velocity=64 time=2100
note_off channel=0 note=70 velocity=64 time=2300
note_on channel=0 note=65 velocity=64 time=2100
note_off channel=0 note=65 velocity=64 time=2300
note_on channel=0 note=67 velocity=64 time=2300
note_off channel=0 note=67 velocity=64 time=2500
note_on channel=0 note=70 velocity=64 time=0
note_off channel=0 note=70 velocity=64 time=400
note_on channel=0 note=64 velocity=64 time=0
note_off channel=0 note=64 velocity=64 time=400
note_on channel=0 note=60 velocity=64 time=400
note_off channel=0 note=60 velocity=64 time=600
note_on channel=0 note=67 velocity=64 time=400
note_off channel=0 note=67 velocity=64 time=600
note_on channel=0 note=69 velocity=64 time=400
note_off channel=0 note=69 velocity=64 time=600
note_on channel=0 note=69 velocity=64 time=600
note_off channel=0 note=69 velocity=64 time=1000
note_on channel=0 note=65 velocity=64 time=1000
note_off channel=0 note=65 velocity=64 time=1400
note_on channel=0 note=70 velocity=64 time=1000
note_off channel=0 note=70 velocity=64 time=1400
note_on channel=0 note=65 velocity=64 time=1000
note_off channel=0 note=65 velocity=64 time=1400
note_on channel=0 note=64 velocity=64 time=1400
note_off channel=0 note=64 velocity=64 time=1800
note_on channel=0 note=69 velocity=64 time=1800
note_off channel=0 note=69 velocity=64 time=2200
note_on channel=0 note=65 velocity=64 time=1800
note_off channel=0 note=65 velocity=64 time=2200
note_on channel=0 note=65 velocity=64 time=2200
note_off channel=0 note=65 velocity=64 time=2600
note_on channel=0 note=64 velocity=64 time=0
note_off channel=0 note=64 velocity=64 time=400
note_on channel=0 note=61 velocity=64 time=0
note_off channel=0 note=61 velocity=64 time=400
note_on channel=0 note=69 velocity=64 time=400
note_off channel=0 note=69 velocity=64 time=800
note_on channel=0 note=69 velocity=64 time=400
note_off channel=0 note=69 velocity=64 time=800
note_on channel=0 note=60 velocity=64 time=400
note_off channel=0 note=60 velocity=64 time=800
note_on channel=0 note=60 velocity=64 time=800
note_off channel=0 note=60 velocity=64 time=1000
note_on channel=0 note=61 velocity=64 time=800
note_off channel=0 note=61 velocity=64 time=1000
note_on channel=0 note=69 velocity=64 time=800
note_off channel=0 note=69 velocity=64 time=1000
note_on channel=0 note=69 velocity=64 time=1000
note_off channel=0 note=69 velocity=64 time=1200
note_on channel=0 note=65 velocity=64 time=1000
note_off channel=0 note=65 velocity=64 time=1200
note_on channel=0 note=69 velocity=64 time=1200
note_off channel=0 note=69 velocity=64 time=1600
note_on channel=0 note=67 velocity=64 time=1200
note_off channel=0 note=67 velocity=64 time=1600
note_on channel=0 note=67 velocity=64 time=1200
note_off channel=0 note=67 velocity=64 time=1600
note_on channel=0 note=61 velocity=64 time=1600
note_off channel=0 note=61 velocity=64 time=1700
note_on channel=0 note=69 velocity=64 time=1700
note_off channel=0 note=69 velocity=64 time=2100
note_on channel=0 note=61 velocity=64 time=2100
note_off channel=0 note=61 velocity=64 time=2500
note_on channel=0 note=65 velocity=64 time=2100
note_off channel=0 note=65 velocity=64 time=2500
note_on channel=0 note=70 velocity=64 time=2100
note_off channel=0 note=70 velocity=64 time=2500
note_on channel=0 note=65 velocity=64 time=0
note_off channel=0 note=65 velocity=64 time=400
note_on channel=0 note=61 velocity=64 time=0
note_off channel=0 note=61 velocity=64 time=400
note_on channel=0 note=70 velocity=64 time=400
note_off channel=0 note=70 velocity=64 time=800
note_on channel=0 note=60 velocity=64 time=400
note_off channel=0 note=60 velocity=64 time=800
note_on channel=0 note=69 velocity=64 time=400
note_off channel=0 note=69 velocity=64 time=800
note_on channel=0 note=69 velocity=64 time=800
note_off channel=0 note=69 velocity=64 time=1000
note_on channel=0 note=65 velocity=64 time=800
note_off channel=0 note=65 velocity=64 time=1000
note_on channel=0 note=65 velocity=64 time=800
note_off channel=0 note=65 velocity=64 time=1000
note_on channel=0 note=65 velocity=64 time=1000
note_off channel=0 note=65 velocity=64 time=1200
note_on channel=0 note=65 velocity=64 time=1200
note_off channel=0 note=65 velocity=64 time=1400
note_on channel=0 note=70 velocity=64 time=1200
note_off channel=0 note=70 velocity=64 time=1400
note_on channel=0 note=64 velocity=64 time=1200
note_off channel=0 note=64 velocity=64 time=1400
note_on channel=0 note=64 velocity=64 time=1400
note_off channel=0 note=64 velocity=64 time=1800
note_on channel=0 note=65 velocity=64 time=1400
note_off channel=0 note=65 velocity=64 time=1800
note_on channel=0 note=64 velocity=64 time=1800
note_off channel=0 note=64 velocity=64 time=2200
note_on channel=0 note=67 velocity=64 time=1800
note_off channel=0 note=67 velocity=64 time=2200
note_on channel=0 note=69 velocity=64 time=1800
note_off channel=0 note=69 velocity=64 time=2200
note_on channel=0 note=65 velocity=64 time=2200
note_off channel=0 note=65 velocity=64 time=2300
note_on channel=0 note=69 velocity=64 time=2300
note_off channel=0 note=69 velocity=64 time=2500
note_on channel=0 note=69 velocity=64 time=0
note_off channel=0 note=69 velocity=64 time=400
note_on channel=0 note=60 velocity=64 time=400
note_off channel=0 note=60 velocity=64 time=500
note_on channel=0 note=60 velocity=64 time=500
note_off channel=0 note=60 velocity=64 time=600
note_on channel=0 note=69 velocity=64 time=500
note_off channel=0 note=69 velocity=64 time=600
note_on channel=0 note=60 velocity=64 time=600
note_off channel=0 note=60 velocity=64 time=800
note_on channel=0 note=67 velocity=64 time=600
note_off channel=0 note=67 velocity=64 time=800
note_on channel=0 note=60 velocity=64 time=800
note_off channel=0 note=60 velocity=64 time=1200
note_on channel=0 note=61 velocity=64 time=800
note_off channel=0 note=61 velocity=64 time=1200
note_on channel=0 note=67 velocity=64 time=1200
note_off channel=0 note=67 velocity=64 time=1600
note_on channel=0 note=64 velocity=64 time=1600
note_off channel=0 note=64 velocity=64 time=1700
note_on channel=0 note=67 velocity=64 time=1600
note_off channel=0 note=67 velocity=64 time=1700
note_on channel=0 note=65 velocity=64 time=1600
note_off channel=0 note=65 velocity=64 time=1700
note_on channel=0 note=64 velocity=64 time=1700
note_off channel=0 note=64 velocity=64 time=1900
note_on channel=0 note=69 velocity=64 time=1900
note_off channel=0 note=69 velocity=64 time=2100
note_on channel=0 note=61 velocity=64 time=1900
note_off channel=0 note=61 velocity=64 time=2100
note_on channel=0 note=65 velocity=64 time=2100
note_off channel=0 note=65 velocity=64 time=2200
note_on channel=0 note=61 velocity=64 time=2100
note_off channel=0 note=61 velocity=64 time=2200
note_on channel=0 note=67 velocity=64 time=2100
note_off channel=0 note=67 velocity=64 time=2200
note_on channel=0 note=60 velocity=64 time=2200
note_off channel=0 note=60 velocity=64 time=2300
note_on channel=0 note=69 velocity=64 time=2300
note_off channel=0 note=69 velocity=64 time=2400
note_on channel=0 note=67 velocity=64 time=0
note_off channel=0 note=67 velocity=64 time=400
note_on channel=0 note=67 velocity=64 time=0
note_off channel=0 note=67 velocity=64 time=400
note_on channel=0 note=70 velocity=64 time=400
note_off channel=0 note=70 velocity=64 time=800
note_on channel=0 note=65 velocity=64 time=800
note_off channel=0 note=65 velocity=64 time=1000
note_on channel=0 note=61 velocity=64 time=800
note_off channel=0 note=61 velocity=64 time=1000
note_on channel=0 note=67 velocity=64 time=800
note_off channel=0 note=67 velocity=64 time=1000
note_on channel=0 note=67 velocity=64 time=1000
note_off channel=0 note=67 velocity=64 time=1100
note_on channel=0 note=64 velocity=64 time=1000
note_off channel=0 note=64 velocity=64 time=1100
note_on channel=0 note=67 velocity=64 time=1000
note_off channel=0 note=67 velocity=64 time=1100
note_on channel=0 note=64 velocity=64 time=1100
note_off channel=0 note=64 velocity=64 time=1300
note_on channel=0 note=70 velocity=64 time=1100
note_off channel=0 note=70 velocity=64 time=1300
note_on channel=0 note=70 velocity=64 time=1100
note_off channel=0 note=70 velocity=64 time=1300
note_on channel=0 note=70 velocity=64 time=1300
note_off channel=0 note=70 velocity=64 time=1500
note_on channel=0 note=69 velocity=64 time=1500
note_off channel=0 note=69 velocity=64 time=1700
note_on channel=0 note=64 velocity=64 time=1500
note_off channel=0 note=64 velocity=64 time=1700
note_on channel=0 note=60 velocity=64 time=1700
note_off channel=0 note=60 velocity=64 time=1800
note_on channel=0 note=69 velocity=64 time=1800
note_off channel=0 note=69 velocity=64 time=1900
note_on channel=0 note=70 velocity=64 time=1800
note_off channel=0 note=70 velocity=64 time=1900
note_on channel=0 note=65 velocity=64 time=1800
note_off channel=0 note=65 velocity=64 time=1900
note_on channel=0 note=67 velocity=64 time=1900
note_off channel=0 note=67 velocity=64 time=2000
note_on channel=0 note=60 velocity=64 time=1900
note_off channel=0 note=60 velocity=64 time=2000
note_on channel=0 note=61 velocity=64 time=1900
note_off channel=0 note=61 velocity=64 time=2000
note_on channel=0 note=67 velocity=64 time=2000
note_off channel=0 note=67 velocity=64 time=2200
note_on channel=0 note=61 velocity=64 time=2200
note_off channel=0 note=61 velocity=64 time=2400
note_on channel=0 note=60 velocity=64 time=2200
note_off channel=0 note=60 velocity=64 time=2400
note_on channel=0 note=67 velocity=64 time=2200
note_off channel=0 note=67 velocity=64 time=2400
note_on channel=0 note=65 velocity=64 time=0
note_off channel=0 note=65 velocity=64 time=200
note_on channel=0 note=64 velocity=64 time=0
note_off channel=0 note=64 velocity=64 time=200
note_on channel=0 note=70 velocity=64 time=0
note_off channel=0 note=70 velocity=64 time=200
note_on channel=0 note=61 velocity=64 time=200
note_off channel=0 note=61 velocity=64 time=400
note_on channel=0 note=69 velocity=64 time=400
note_off channel=0 note=69 velocity=64 time=800
note_on channel=0 note=64 velocity=64 time=400
note_off channel=0 note=64 velocity=64 time=800
note_on channel=0 note=61 velocity=64 time=400
note_off channel=0 note=61 velocity=64 time=800
note_on channel=0 note=69 velocity=64 time=800
note_off channel=0 note=69 velocity=64 time=1200
note_on channel=0 note=70 velocity=64 time=1200
note_off channel=0 note=70 velocity=64 time=1600
note_on channel=0 note=69 velocity=64 time=1200
note_off channel=0 note=69 velocity=64 time=1600
note_on channel=0 note=69 velocity=64 time=1600
note_off channel=0 note=69 velocity=64 time=1700
note_on channel=0 note=65 velocity=64 time=1600
note_off channel=0 note=65 velocity=64 time=1700
note_on channel=0 note=60 velocity=64 time=1700
note_off channel=0 note=60 velocity=64 time=2100
note_on channel=0 note=60 velocity=64 time=1700
note_off channel=0 note=60 velocity=64 time=2100
note_on channel=0 note=61 velocity=64 time=1700
note_off channel=0 note=61 velocity=64 time=2100
note_on channel=0 note=61 velocity=64 time=2100
note_off channel=0 note=61 velocity=64 time=2300
note_on channel=0 note=65 velocity=64 time=2300
note_off channel=0 note=65 velocity=64 time=2400
note_on channel=0 note=61 velocity=64 time=2300
note_off channel=0 note=61 velocity=64 time=2400
note_on channel=0 note=64 velocity=64 time=2300
note_off channel=0 note=64 velocity=64 time=2400
note_on channel=0 note=60 velocity=64 time=0
note_off channel=0 note=60 velocity=64 time=200
note_on channel=0 note=69 velocity=64 time=200
note_off channel=0 note=69 velocity=64 time=600
note_on channel=0 note=61 velocity=64 time=600
note_off channel=0 note=61 velocity=64 time=700
note_on channel=0 note=61 velocity=64 time=600
note_off channel=0 note=61 velocity=64 time=700
note_on channel=0 note=67 velocity=64 time=700
note_off channel=0 note=67 velocity=64 time=1100
note_on channel=0 note=70 velocity=64 time=700
note_off channel=0 note=70 velocity=64 time=1100
note_on channel=0 note=67 velocity=64 time=700
note_off channel=0 note=67 velocity=64 time=1100
note_on channel=0 note=70 velocity=64 time=1100
note_off channel=0 note=70 velocity=64 time=1300
note_on channel=0 note=65 velocity=64 time=1100
note_off channel=0 note=65 velocity=64 time=1300
note_on channel=0 note=65 velocity=64 time=1100
note_off channel=0 note=65 velocity=64 time=1300
note_on channel=0 note=70 velocity=64 time=1300
note_off channel=0 note=70 velocity=64 time=1500
note_on channel=0 note=70 velocity=64 time=1500
note_off channel=0 note=70 velocity=64 time=1700
note_on channel=0 note=70 velocity=64 time=1500
note_off channel=0 note=70 velocity=64 time=1700
note_on channel=0 note=61 velocity=64 time=1700
note_off channel=0 note=61 velocity=64 time=1800
note_on channel=0 note=61 velocity=64 time=1700
note_off channel=0 note=61 velocity=64 time=1800
note_on channel=0 note=61 velocity=64 time=1700
note_off channel=0 note=61 velocity=64 time=1800
note_on channel=0 note=61 velocity=64 time=1800
note_off channel=0 note=61 velocity=64 time=2000
note_on channel=0 note=65 velocity=64 time=1800
note_off channel=0 note=65 velocity=64 time=2000
note_on channel=0 note=67 velocity=64 time=2000
note_off channel=0 note=67 velocity=64 time=2200
note_on channel=0 note=61 velocity=64 time=2000
note_off channel=0 note=61 velocity=64 time=2200
note_on channel=0 note=70 velocity=64 time=2000
note_off channel=0 note=70 velocity=64 time=2200
note_on channel=0 note=65 velocity=64 time=2200
note_off channel=0 note=65 velocity=64 time=2600
note_on channel=0 note=70 velocity=64 time=2200
note_off channel=0 note=70 velocity=64 time=2600
note_on channel=0 note=64 velocity=64 time=2200
note_off channel=0 note=64 velocity=64 time=2600
note_on channel=0 note=64 velocity=64 time=0
note_off channel=0 note=64 velocity=64 time=200
note_on channel=0 note=70 velocity=64 time=0
note_off channel=0 note=70 velocity=64 time=200
note_on channel=0 note=70 velocity=64 time=200
note_off channel=0 note=70 velocity=64 time=400
note_on channel=0 note=69 velocity=64 time=400
note_off channel=0 note=69 velocity=64 time=600
note_on channel=0 note=67 velocity=64 time=400
note_off channel=0 note=67 velocity=64 time=600
note_on channel=0 note=61 velocity=64 time=400
note_off channel=0 note=61 velocity=64 time=600
note_on channel=0 note=65 velocity=64 time=600
note_off channel=0 note=65 velocity=64 time=800
note_on channel=0 note=69 velocity=64 time=600
note_off channel=0 note=69 velocity=64 time=800
note_on channel=0 note=70 velocity=64 time=800
note_off channel=0 note=70 velocity=64 time=1200
note_on channel=0 note=70 velocity=64 time=800
note_off channel=0 note=70 velocity=64 time=1200
note_on channel=0 note=65 velocity=64 time=800
note_off channel=0 note=65 velocity=64 time=1200
note_on channel=0 note=70 velocity=64 time=1200
note_off channel=0 note=70 velocity=64 time=1300
note_on channel=0 note=69 velocity=64 time=1200
note_off channel=0 note=69 velocity=64 time=1300
note_on channel=0 note=65 velocity=64 time=1200
note_off channel=0 note=65 velocity=64 time=1300
note_on channel=0 note=69 velocity=64 time=1300
note_off channel=0 note=69 velocity=64 time=1700
note_on channel=0 note=69 velocity=64 time=1300
note_off channel=0 note=69 velocity=64 time=1700
note_on channel=0 note=69 velocity=64 time=1700
note_off channel=0 note=69 velocity=64 time=1900
note_on channel=0 note=65 velocity=64 time=1700
note_off channel=0 note=65 velocity=64 time=1900
note_on channel=0 note=69 velocity=64 time=1900
note_off channel=0 note=69 velocity=64 time=2300
note_on channel=0 note=65 velocity=64 time=1900
note_off channel=0 note=65 velocity=64 time=2300
note_on channel=0 note=65 velocity=64 time=1900
note_off channel=0 note=65 velocity=64 time=2300
note_on channel=0 note=64 velocity=64 time=2300
note_off channel=0 note=64 velocity=64 time=2500
note_on channel=0 note=69 velocity=64 time=2300
note_off channel=0 note=69 velocity=64 time=2500
note_on channel=0 note=65 velocity=64 time=2300
note_off channel=0 note=65 velocity=64 time=2500
note_on channel=0 note=67 velocity=64 time=0
note_off channel=0 note=67 velocity=64 time=400
note_on channel=0 note=60 velocity=64 time=0
note_off channel=0 note=60 velocity=64 time=400
note_on channel=0 note=69 velocity=64 time=0
note_off channel=0 note=69 velocity=64 time=400
note_on channel=0 note=70 velocity=64 time=400
note_off channel=0 note=70 velocity=64 time=500
note_on channel=0 note=60 velocity=64 time=500
note_off channel=0 note=60 velocity=64 time=900
note_on channel=0 note=67 velocity=64 time=500
note_off channel=0 note=67 velocity=64 time=900
note_on channel=0 note=60 velocity=64 time=500
note_off channel=0 note=60 velocity=64 time=900
note_on channel=0 note=67 velocity=64 time=900
note_off channel=0 note=67 velocity=64 time=1000
note_on channel=0 note=60 velocity=64 time=1000
note_off channel=0 note=60 velocity=64 time=1100
note_on channel=0 note=61 velocity=64 time=1000
note_off channel=0 note=61 velocity=64 time=1100
note_on channel=0 note=69 velocity=64 time=1000
note_off channel=0 note=69 velocity=64 time=1100
note_on channel=0 note=70 velocity=64 time=1100
note_off channel=0 note=70 velocity=64 time=1200
note_on channel=0 note=69 velocity=64 time=1100
note_off channel=0 note=69 velocity=64 time=1200
note_on channel=0 note=64 velocity=64 time=1200
note_off channel=0 note=64 velocity=64 time=1300
note_on channel=0 note=61 velocity=64 time=1200
note_off channel=0 note=61 velocity=64 time=1300
note_on channel=0 note=60 velocity=64 time=1300
note_off channel=0 note=60 velocity=64 time=1400
note_on channel=0 note=60 velocity=64 time=1400
note_off channel=0 note=60 velocity=64 time=1500
note_on channel=0 note=61 velocity=64 time=1500
note_off channel=0 note=61 velocity=64 time=1600
note_on channel=0 note=69 velocity=64 time=1500
note_off channel=0 note=69 velocity=64 time=1600
note_on channel=0 note=61 velocity=64 time=1600
note_off channel=0 note=61 velocity=64 time=1700
note_on channel=0 note=67 velocity=64 time=1600
note_off channel=0 note=67 velocity=64 time=1700
note_on channel=0 note=64 velocity=64 time=1600
note_off channel=0 note=64 velocity=64 time=1700
note_on channel=0 note=61 velocity=64 time=1700
note_off channel=0 note=61 velocity=64 time=1800
note_on channel=0 note=64 velocity=64 time=1800
note_off channel=0 note=64 velocity=64 time=2200
note_on channel=0 note=69 velocity=64 time=2200
note_off channel=0 note=69 velocity=64 time=2300
note_on channel=0 note=60 velocity=64 time=2200
note_off channel=0 note=60 velocity=64 time=2300
note_on channel=0 note=64 velocity=64 time=2200
note_off channel=0 note=64 velocity=64 time=2300
note_on channel=0 note=65 velocity=64 time=2300
note_off channel=0 note=65 velocity=64 time=2700
note_on channel=0 note=69 velocity=64 time=2300
note_off channel=0 note=69 velocity=64 time=2700
note_on channel=0 note=70 velocity=64 time=0
note_off channel=0 note=70 velocity=64 time=200
note_on channel=0 note=67 velocity=64 time=200
note_off channel=0 note=67 velocity=64 time=600
note_on channel=0 note=65 velocity=64 time=200
note_off channel=0 note=65 velocity=64 time=600
note_on channel=0 note=61 velocity=64 time=200
note_off channel=0 note=61 velocity=64 time=600
note_on channel=0 note=64 velocity=64 time=600
note_off channel=0 note=64 velocity=64 time=700
note_on channel=0 note=60 velocity=64 time=600
note_off channel=0 note=60 velocity=64 time=700
note_on channel=0 note=65 velocity=64 time=600
note_off channel=0 note=65 velocity=64 time=700
note_on channel=0 note=67 velocity=64 time=700
note_off channel=0 note=67 velocity=64 time=800
note_on channel=0 note=64 velocity=64 time=700
note_off channel=0 note=64 velocity=64 time=800
note_on channel=0 note=65 velocity=64 time=700
note_off channel=0 note=65 velocity=64 time=800
note_on channel=0 note=61 velocity=64 time=800
note_off channel=0 note=61 velocity=64 time=1000
note_on channel=0 note=67 velocity=64 time=800
note_off channel=0 note=67 velocity=64 time=1000
note_on channel=0 note=60 velocity=64 time=1000
note_off channel=0 note=60 velocity=64 time=1100
note_on channel=0 note=65 velocity=64 time=1000
note_off channel=0 note=65 velocity=64 time=1100
note_on channel=0 note=60 velocity=64 time=1000
note_off channel=0 note=60 velocity=64 time=1100
note_on channel=0 note=60 velocity=64 time=1100
note_off channel=0 note=60 velocity=64 time=1200
note_on channel=0 note=61 velocity=64 time=1100
note_off channel=0 note=61 velocity=64 time=1200
note_on channel=0 note=67 velocity=64 time=1200
note_off channel=0 note=67 velocity=64 time=1600
note_on channel=0 note=65 velocity=64 time=1200
note_off channel=0 note=65 velocity=64 time=1600
note_on channel=0 note=70 velocity=64 time=1600
note_off channel=0 note=70 velocity=64 time=1700
note_on channel=0 note=65 velocity=64 time=1700
note_off channel=0 note=65 velocity=64 time=2100
note_on channel=0 note=61 velocity=64 time=1700
note_off channel=0 note=61 velocity=64 time=2100
note_on channel=0 note=67 velocity=64 time=1700
note_off channel=0 note=67 velocity=64 time=2100
note_on channel=0 note=67 velocity=64 time=2100
note_off channel=0 note=67 velocity=64 time=2500
note_on channel=0 note=61 velocity=64 time=2100
note_off channel=0 note=61 velocity=64 time=2500
note_on channel=0 note=64 velocity=64 time=2100
note_off channel=0 note=64 velocity=64 time=2500
note_on channel=0 note=61 velocity=64 time=0
note_off channel=0 note=61 velocity=64 time=200
note_on channel=0 note=61 velocity=64 time=200
note_off channel=0 note=61 velocity=64 time=300
note_on channel=0 note=65 velocity=64 time=200
note_off channel=0 note=65 velocity=64 time=300
note_on channel=0 note=60 velocity=64 time=300
note_off channel=0 note=60 velocity=64 time=400
note_on channel=0 note=69 velocity=64 time=400
note_off channel=0 note=69 velocity=64 time=500
note_on channel=0 note=60 velocity=64 time=500
note_off channel=0 note=60 velocity=64 time=900
note_on channel=0 note=65 velocity=64 time=900
note_off channel=0 note=65 velocity=64 time=1100
note_on channel=0 note=65 velocity=64 time=900
note_off channel=0 note=65 velocity=64 time=1100
note_on channel=0 note=67 velocity=64 time=1100
note_off channel=0 note=67 velocity=64 time=1200
note_on channel=0 note=69 velocity=64 time=1200
note_off channel=0 note=69 velocity=64 time=1600
note_on channel=0 note=64 velocity=64 time=1200
note_off channel=0 note=64 velocity=64 time=1600
note_on channel=0 note=60 velocity=64 time=1200
note_off channel=0 note=60 velocity=64 time=1600
note_on channel=0 note=70 velocity=64 time=1600
note_off channel=0 note=70 velocity=64 time=2000
note_on channel=0 note=61 velocity=64 time=2000
note_off channel=0 note=61 velocity=64 time=2200
note_on channel=0 note=60 velocity=64 time=2000
note_off channel=0 note=60 velocity=64 time=2200
note_on channel=0 note=69 velocity=64 time=2000
note_off channel=0 note=69 velocity=64 time=2200
note_on channel=0 note=65 velocity=64 time=2200
note_off channel=0 note=65 velocity=64 time=2300
note_on channel=0 note=64 velocity=64 time=2300
note_off channel=0 note=64 velocity=64 time=2500
note_on channel=0 note=67 velocity=64 time=2300
note_off channel=0 note=67 velocity=64 time=2500
note_on channel=0 note=70 velocity=64 time=2300
note_off channel=0 note=70 velocity=64 time=2500
note_on channel=0 note=70 velocity=64 time=0
note_off channel=0 note=70 velocity=64 time=200
note_on channel=0 note=60 velocity=64 time=200
note_off channel=0 note=60 velocity=64 time=300
note_on channel=0 note=69 velocity=64 time=300
note_off channel=0 note=69 velocity=64 time=700
note_on channel=0 note=69 velocity=64 time=300
note_off channel=0 note=69 velocity=64 time=700
note_on channel=0 note=60 velocity=64 time=300
note_off channel=0 note=60 velocity=64 time=700
note_on channel=0 note=65 velocity=64 time=700
note_off channel=0 note=65 velocity=64 time=1100
note_on channel=0 note=70 velocity=64 time=700
note_off channel=0 note=70 velocity=64 time=1100
note_on channel=0 note=60 velocity=64 time=1100
note_off channel=0 note=60 velocity=64 time=1200
note_on channel=0 note=64 velocity=64 time=1200
note_off channel=0 note=64 velocity=64 time=1300
note_on channel=0 note=69 velocity=64 time=1200
note_off channel=0 note=69 velocity=64 time=1300
note_on channel=0 note=61 velocity=64 time=1300
note_off channel=0 note=61 velocity=64 time=1500
note_on channel=0 note=67 velocity=64 time=1300
note_off channel=0 note=67 velocity=64 time=1500
note_on channel=0 note=65 velocity=64 time=1500
note_off channel=0 note=65 velocity=64 time=1600
note_on channel=0 note=69 velocity=64 time=1500
note_off channel=0 note=69 velocity=64 time=1600
note_on channel=0 note=64 velocity=64 time=1500
note_off channel=0 note=64 velocity=64 time=1600
note_on channel=0 note=60 velocity=64 time=1600
note_off channel=0 note=60 velocity=64 time=1800
note_on channel=0 note=60 velocity=64 time=1600
note_off channel=0 note=60 velocity=64 time=1800
note_on channel=0 note=64 velocity=64 time=1800
note_off channel=0 note=64 velocity=64 time=2200
note_on channel=0 note=61 velocity=64 time=1800
note_off channel=0 note=61 velocity=64 time=2200
note_on channel=0 note=60 velocity=64 time=1800
note_off channel=0 note=60 velocity=64 time=2200
note_on channel=0 note=65 velocity=64 time=2200
note_off channel=0 note=65 velocity=64 time=2400
note_on channel=0 note=60 velocity=64 time=2200
note_off channel=0 note=60 velocity=64 time=2400
note_on channel=0 note=67 velocity=64 time=2200
note_off channel=0 note=67 velocity=64 time=2400
note_on channel=0 note=70 velocity=64 time=0
note_off channel=0 note=70 velocity=64 time=200
note_on channel=0 note=60 velocity=64 time=0
note_off channel=0 note=60 velocity=64 time=200
note_on channel=0 note=65 velocity=64 time=200
note_off channel=0 note=65 velocity=64 time=600
note_on channel=0 note=70 velocity=64 time=200
note_off channel=0 note=70 velocity=64 time=600
note_on channel=0 note=69 velocity=64 time=600
note_off channel=0 note=69 velocity=64 time=800
note_on channel=0 note=70 velocity=64 time=600
note_off channel=0 note=70 velocity=64 time=800
note_on channel=0 note=69 velocity=64 time=600
note_off channel=0 note=69 velocity=64 time=800
note_on channel=0 note=61 velocity=64 time=800
note_off channel=0 note=61 velocity=64 time=1000
note_on channel=0 note=65 velocity=64 time=800
note_off channel=0 note=65 velocity=64 time=1000
note_on channel=0 note=64 velocity=64 time=1000
note_off channel=0 note=64 velocity=64 time=1400
note_on channel=0 note=67 velocity=64 time=1000
note_off channel=0 note=67 velocity=64 time=1400
note_on channel=0 note=70 velocity=64 time=1000
note_off channel=0 note=70 velocity=64 time=1400
note_on channel=0 note=69 velocity=64 time=1400
note_off channel=0 note=69 velocity=64 time=1800
note_on channel=0 note=60 velocity=64 time=1400
note_off channel=0 note=60 velocity=64 time=1800
note_on channel=0 note=64 velocity=64 time=1400
note_off channel=0 note=64 velocity=64 time=1800
note_on channel=0 note=69 velocity=64 time=1800
note_off channel=0 note=69 velocity=64 time=1900
note_on channel=0 note=70 velocity=64 time=1900
note_off channel=0 note=70 velocity=64 time=2300
note_on channel=0 note=60 velocity=64 time=2300
note_off channel=0 note=60 velocity=64 time=2700
note_on channel=0 note=70 velocity=64 time=2300
note_off channel=0 note=70 velocity=64 time=2700
note_on channel=0 note=64 velocity=64 time=2300
note_off channel=0 note=64 velocity=64 time=2700
note_on channel=0 note=70 velocity=64 time=0
note_off channel=0 note=70 velocity=64 time=200
note_on channel=0 note=64 velocity=64 time=0
note_off channel=0 note=64 velocity=64 time=200
note_on channel=0 note=61 velocity=64 time=0
note_off channel=0 note=61 velocity=64 time=200
note_on channel=0 note=61 velocity=64 time=200
note_off channel=0 note=61 velocity=64 time=400
note_on channel=0 note=64 velocity=64 time=400
note_off channel=0 note=64 velocity=64 time=500
note_on channel=0 note=65 velocity=64 time=500
note_off channel=0 note=65 velocity=64 time=900
note_on channel=0 note=61 velocity=64 time=500
note_off channel=0 note=61 velocity=64 time=900
note_on channel=0 note=61 velocity=64 time=500
note_off channel=0 note=61 velocity=64 time=900
note_on channel=0 note=64 velocity=64 time=900
note_off channel=0 note=64 velocity=64 time=1100
note_on channel=0 note=69 velocity=64 time=1100
note_off channel=0 note=69 velocity=64 time=1500
note_on channel=0 note=65 velocity=64 time=1100
note_off channel=0 note=65 velocity=64 time=1500
note_on channel=0 note=69 velocity=64 time=1100
note_off channel=0 note=69 velocity=64 time=1500
note_on channel=0 note=70 velocity=64 time=1500
note_off channel=0 note=70 velocity=64 time=1900
note_on channel=0 note=61 velocity=64 time=1500
note_off channel=0 note=61 velocity=64 time=1900
note_on channel=0 note=65 velocity=64 time=1900
note_off channel=0 note=65 velocity=64 time=2100
note_on channel=0 note=67 velocity=64 time=2100
note_off channel=0 note=67 velocity=64 time=2500
note_on channel=0 note=70 velocity=64 time=2100
note_off channel=0 note=70 velocity=64 time=2500
note_on channel=0 note=65 velocity=64 time=0
note_off channel=0 note=65 velocity=64 time=400
note_on channel=0 note=70 velocity=64 time=0
note_off channel=0 note=70 velocity=64 time=400
note_on channel=0 note=64 velocity=64 time=0
note_off channel=0 note=64 velocity=64 time=400
note_on channel=0 note=60 velocity=64 time=400
note_off channel=0 note=60 velocity=64 time=800
note_on channel=0 note=69 velocity=64 time=400
note_off channel=0 note=69 velocity=64 time=800
note_on channel=0 note=69 velocity=64 time=400
note_off channel=0 note=69 velocity=64 time=800
note_on channel=0 note=61 velocity=64 time=800
note_off channel=0 note=61 velocity=64 time=1200
note_on channel=0 note=69 velocity=64 time=800
note_off channel=0 note=69 velocity=64 time=1200
note_on channel=0 note=64 velocity=64 time=800
note_off channel=0 note=64 velocity=64 time=1200
note_on channel=0 note=64 velocity=64 time=1200
note_off channel=0 note=64 velocity=64 time=1600
note_on channel=0 note=70 velocity=64 time=1600
note_off channel=0 note=70 velocity=64 time=1700
note_on channel=0 note=65 velocity=64 time=1600
note_off channel=0 note=65 velocity=64 time=1700
note_on channel=0 note=61 velocity=64 time=1600
note_off channel=0 note=61 velocity=64 time=1700
note_on channel=0 note=64 velocity=64 time=1700
note_off channel=0 note=64 velocity=64 time=1800
note_on channel=0 note=65 velocity=64 time=1800
note_off channel=0 note=65 velocity=64 time=1900
note_on channel=0 note=64 velocity=64 time=1800
note_off channel=0 note=64 velocity=64 time=1900
note_on channel=0 note=61 velocity=64 time=1800
note_off channel=0 note=61 velocity=64 time=1900
note_on channel=0 note=69 velocity=64 time=1900
note_off channel=0 note=69 velocity=64 time=2000
note_on channel=0 note=69 velocity=64 time=1900
note_off channel=0 note=69 velocity=64 time=2000
note_on channel=0 note=69 velocity=64 time=2000
note_off channel=0 note=69 velocity=64 time=2100
note_on channel=0 note=67 velocity=64 time=2000
note_off channel=0 note=67 velocity=64 time=2100
note_on channel=0 note=69 velocity=64 time=2100
note_off channel=0 note=69 velocity=64 time=2500
note_on channel=0 note=60 velocity=64 time=2100
note_off channel=0 note=60 velocity=64 time=2500
note_on channel=0 note=67 velocity=64 time=0
note_off channel=0 note=67 velocity=64 time=100
note_on channel=0 note=70 velocity=64 time=100
note_off channel=0 note=70 velocity=64 time=500
note_on channel=0 note=65 velocity=64 time=100
note_off channel=0 note=65 velocity=64 time=500
note_on channel=0 note=67 velocity=64 time=500
note_off channel=0 note=67 velocity=64 time=700
note_on channel=0 note=65 velocity=64 time=700
note_off channel=0 note=65 velocity=64 time=1100
note_on channel=0 note=61 velocity=64 time=700
note_off channel=0 note=61 velocity=64 time=1100
note_on channel=0 note=65 velocity=64 time=1100
note_off channel=0 note=65 velocity=64 time=1300
note_on channel=0 note=65 velocity=64 time=1100
note_off channel=0 note=65 velocity=64 time=1300
note_on channel=0 note=70 velocity=64 time=1300
note_off channel=0 note=70 velocity=64 time=1700
note_on channel=0 note=61 velocity=64 time=1300
note_off channel=0 note=61 velocity=64 time=1700
note_on channel=0 note=61 velocity=64 time=1300
note_off channel=0 note=61 velocity=64 time=1700
note_on channel=0 note=69 velocity=64 time=1700
note_off channel=0 note=69 velocity=64 time=1800
note_on channel=0 note=67 velocity=64 time=1700
note_off channel=0 note=67 velocity=64 time=1800
note_on channel=0 note=69 velocity=64 time=1800
note_off channel=0 note=69 velocity=64 time=2200
note_on channel=0 note=64 velocity=64 time=2200
note_off channel=0 note=64 velocity=64 time=2300
note_on channel=0 note=65 velocity=64 time=2300
note_off channel=0 note=65 velocity=64 time=2500
note_on channel=0 note=69 velocity=64 time=2300
note_off channel=0 note=69 velocity=64 time=2500
note_on channel=0 note=69 velocity=64 time=0
note_off channel=0 note=69 velocity=64 time=400
note_on channel=0 note=64 velocity=64 time=0
note_off channel=0 note=64 velocity=64 time=400
note_on channel=0 note=69 velocity=64 time=0
note_off channel=0 note=69 velocity=64 time=400
note_on channel=0 note=70 velocity=64 time=400
note_off channel=0 note=70 velocity=64 time=600
note_on channel=0 note=60 velocity=64 time=400
note_off channel=0 note=60 velocity=64 time=600
note_on channel=0 note=60 velocity=64 time=600
note_off channel=0 note=60 velocity=64 time=800
note_on channel=0 note=61 velocity=64 time=800
note_off channel=0 note=61 velocity=64 time=1200
note_on channel=0 note=69 velocity=64 time=1200
note_off channel=0 note=69 velocity=64 time=1400
note_on channel=0 note=69 velocity=64 time=1200
note_off channel=0 note=69 velocity=64 time=1400
note_on channel=0 note=69 velocity=64 time=1400
note_off channel=0 note=69 velocity=64 time=1600
note_on channel=0 note=67 velocity=64 time=1400
note_off channel=0 note=67 velocity=64 time=1600
note_on channel=0 note=65 velocity=64 time=1400
note_off channel=0 note=65 velocity=64 time=1600
note_on channel=0 note=61 velocity=64 time=1600
note_off channel=0 note=61 velocity=64 time=1700
note_on channel=0 note=64 velocity=64 time=1600
note_off channel=0 note=64 velocity=64 time=1700
note_on channel=0 note=70 velocity=64 time=1600
note_off channel=0 note=70 velocity=64 time=1700
note_on channel=0 note=70 velocity=64 time=1700
note_off channel=0 note=70 velocity=64 time=1800
note_on channel=0 note=67 velocity=64 time=1700
note_off channel=0 note=67 velocity=64 time=1800
note_on channel=0 note=70 velocity=64 time=1800
note_off channel=0 note=70 velocity=64 time=2200
note_on channel=0 note=70 velocity=64 time=1800
note_off channel=0 note=70 velocity=64 time=2200
note_on channel=0 note=70 velocity=64 time=1800
note_off channel=0 note=70 velocity=64 time=2200
note_on channel=0 note=67 velocity=64 time=2200
note_off channel=0 note=67 velocity=64 time=2300
note_on channel=0 note=69 velocity=64 time=2300
note_off channel=0 note=69 velocity=64 time=2400
note_on channel=0 note=67 velocity=64 time=2300
note_off channel=0 note=67 velocity=64 time=2400
note_on channel=0 note=61 velocity=64 time=2300
note_off channel=0 note=61 velocity=64 time=2400
note_on channel=0 note=69 velocity=64 time=0
note_off channel=0 note=69 velocity=64 time=100
note_on channel=0 note=70 velocity=64 time=0
note_off channel=0 note=70 velocity=64 time=100
note_on channel=0 note=69 velocity=64 time=100
note_off channel=0 note=69 velocity=64 time=200
note_on channel=0 note=64 velocity=64 time=100
note_off channel=0 note=64 velocity=64 time=200
note_on channel=0 note=64 velocity=64 time=200
note_off channel=0 note=64 velocity=64 time=400
note_on channel=0 note=60 velocity=64 time=400
note_off channel=0 note=60 velocity=64 time=800
note_on channel=0 note=64 velocity=64 time=800
note_off channel=0 note=64 velocity=64 time=1200
note_on channel=0 note=65 velocity=64 time=1200
note_off channel=0 note=65 velocity=64 time=1400
note_on channel=0 note=70 velocity=64 time=1200
note_off channel=0 note=70 velocity=64 time=1400
note_on channel=0 note=61 velocity=64 time=1400
note_off channel=0 note=61 velocity=64 time=1500
note_on channel=0 note=60 velocity=64 time=1400
note_off channel=0 note=60 velocity=64 time=1500
note_on channel=0 note=60 velocity=64 time=1400
note_off channel=0 note=60 velocity=64 time=1500
note_on channel=0 note=65 velocity=64 time=1500
note_off channel=0 note=65 velocity=64 time=1700
note_on channel=0 note=70 velocity=64 time=1500
note_off channel=0 note=70 velocity=64 time=1700
note_on channel=0 note=70 velocity=64 time=1500
note_off channel=0 note=70 velocity=64 time=1700
note_on channel=0 note=61 velocity=64 time=1700
note_off channel=0 note=61 velocity=64 time=1900
note_on channel=0 note=67 velocity=64 time=1700
note_off channel=0 note=67 velocity=64 time=1900
note_on channel=0 note=70 velocity=64 time=1700
note_off channel=0 note=70 velocity=64 time=1900
note_on channel=0 note=64 velocity=64 time=1900
note_off channel=0 note=64 velocity=64 time=2100
note_on channel=0 note=60 velocity=64 time=1900
note_off channel=0 note=60 velocity=64 time=2100
note_on channel=0 note=65 velocity=64 time=2100
note_off channel=0 note=65 velocity=64 time=2500
note_on channel=0 note=65 velocity=64 time=2100
note_off channel=0 note=65 velocity=64 time=2500
note_on channel=0 note=67 velocity=64 time=0
note_off channel=0 note=67 velocity=64 time=400
note_on channel=0 note=60 velocity=64 time=0
note_off channel=0 note=60 velocity=64 time=400
note_on channel=0 note=70 velocity=64 time=0
note_off channel=0 note=70 velocity=64 time=400
note_on channel=0 note=65 velocity=64 time=400
note_off channel=0 note=65 velocity=64 time=500
note_on channel=0 note=69 velocity=64 time=400
note_off channel=0 note=69 velocity=64 time=500
note_on channel=0 note=65 velocity=64 time=500
note_off channel=0 note=65 velocity=64 time=700
note_on channel=0 note=61 velocity=64 time=500
note_off channel=0 note=61 velocity=64 time=700
note_on channel=0 note=64 velocity=64 time=700
note_off channel=0 note=64 velocity=64 time=900
note_on channel=0 note=69 velocity=64 time=700
note_off channel=0 note=69 velocity=64 time=900
note_on channel=0 note=70 velocity=64 time=700
note_off channel=0 note=70 velocity=64 time=900
note_on channel=0 note=64 velocity=64 time=900
note_off channel=0 note=64 velocity=64 time=1300
note_on channel=0 note=60 velocity=64 time=1300
note_off channel=0 note=60 velocity=64 time=1500
note_on channel=0 note=67 velocity=64 time=1300
note_off channel=0 note=67 velocity=64 time=1500
note_on channel=0 note=64 velocity=64 time=1300
note_off channel=0 note=64 velocity=64 time=1500
note_on channel=0 note=70 velocity=64 time=1500
note_off channel=0 note=70 velocity=64 time=1700
note_on channel=0 note=67 velocity=64 time=1500
note_off channel=0 note=67 velocity=64 time=1700
note_on channel=0 note=61 velocity=64 time=1500
note_off channel=0 note=61 velocity=64 time=1700
note_on channel=0 note=67 velocity=64 time=1700
note_off channel=0 note=67 velocity=64 time=2100
note_on channel=0 note=70 velocity=64 time=2100
note_off channel=0 note=70 velocity=64 time=2300
note_on channel=0 note=65 velocity=64 time=2300
note_off channel=0 note=65 velocity=64 time=2500
note_on channel=0 note=67 velocity=64 time=2300
note_off channel=0 note=67 velocity=64 time=2500
note_on channel=0 note=64 velocity=64 time=2300
note_off channel=0 note=64 velocity=64 time=2500
note_on channel=0 note=64 velocity=64 time=0
note_off channel=0 note=64 velocity=64 time=200
note_on channel=0 note=61 velocity=64 time=200
note_off channel=0 note=61 velocity=64 time=300
note_on channel=0 note=69 velocity=64 time=200
note_off channel=0 note=69 velocity=64 time=300
note_on channel=0 note=60 velocity=64 time=200
note_off channel=0 note=60 velocity=64 time=300
note_on channel=0 note=67 velocity=64 time=300
note_off channel=0 note=67 velocity=64 time=700
note_on channel=0 note=60 velocity=64 time=300
note_off channel=0 note=60 velocity=64 time=700
note_on channel=0 note=65 velocity=64 time=300
note_off channel=0 note=65 velocity=64 time=700
note_on channel=0 note=61 velocity=64 time=700
note_off channel=0 note=61 velocity=64 time=900
note_on channel=0 note=61 velocity=64 time=700
note_off channel=0 note=61 velocity=64 time=900
note_on channel=0 note=67 velocity=64 time=900
note_off channel=0 note=67 velocity=64 time=1100
note_on channel=0 note=60 velocity=64 time=900
note_off channel=0 note=60 velocity=64 time=1100
note_on channel=0 note=64 velocity=64 time=900
note_off channel=0 note=64 velocity=64 time=1100
note_on channel=0 note=69 velocity=64 time=1100
note_off channel=0 note=69 velocity=64 time=1200
note_on channel=0 note=65 velocity=64 time=1100
note_off channel=0 note=65 velocity=64 time=1200
note_on channel=0 note=69 velocity=64 time=1100
note_off channel=0 note=69 velocity=64 time=1200
note_on channel=0 note=64 velocity=64 time=1200
note_off channel=0 note=64 velocity=64 time=1600
note_on channel=0 note=70 velocity=64 time=1600
note_off channel=0 note=70 velocity=64 time=1800
note_on channel=0 note=61 velocity=64 time=1800
note_off channel=0 note=61 velocity=64 time=2200
note_on channel=0 note=60 velocity=64 time=1800
note_off channel=0 note=60 velocity=64 time=2200
note_on channel=0 note=64 velocity=64 time=2200
note_off channel=0 note=64 velocity=64 time=2600
note_on channel=0 note=70 velocity=64 time=0
note_off channel=0 note=70 velocity=64 time=200
note_on channel=0 note=60 velocity=64 time=200
note_off channel=0 note=60 velocity=64 time=400
note_on channel=0 note=67 velocity=64 time=200
note_off channel=0 note=67 velocity=64 time=400
note_on channel=0 note=67 velocity=64 time=200
note_off channel=0 note=67 velocity=64 time=400
note_on channel=0 note=65 velocity=64 time=400
note_off channel=0 note=65 velocity=64 time=600
note_on channel=0 note=69 velocity=64 time=400
note_off channel=0 note=69 velocity=64 time=600
note_on channel=0 note=67 velocity=64 time=600
note_off channel=0 note=67 velocity=64 time=1000
note_on channel=0 note=64 velocity=64 time=600
note_off channel=0 note=64 velocity=64 time=1000
note_on channel=0 note=60 velocity=64 time=1000
note_off channel=0 note=60 velocity=64 time=1100
note_on channel=0 note=64 velocity=64 time=1000
note_off channel=0 note=64 velocity=64 time=1100
note_on channel=0 note=65 velocity=64 time=1100
note_off channel=0 note=65 velocity=64 time=1500
note_on channel=0 note=65 velocity=64 time=1500
note_off channel=0 note=65 velocity=64 time=1600
note_on channel=0 note=70 velocity=64 time=1500
note_off channel=0 note=70 velocity=64 time=1600
note_on channel=0 note=70 velocity=64 time=1500
note_off channel=0 note=70 velocity=64 time=1600
note_on channel=0 note=69 velocity=64 time=1600
note_off channel=0 note=69 velocity=64 time=2000
note_on channel=0 note=65 velocity=64 time=2000
note_off channel=0 note=65 velocity=64 time=2100
note_on channel=0 note=64 velocity=64 time=2000
note_off channel=0 note=64 velocity=64 time=2100
note_on channel=0 note=64 velocity=64 time=2000
note_off channel=0 note=64 velocity=64 time=2100
note_on channel=0 note=70 velocity=64 time=2100
note_off channel=0 note=70 velocity=64 time=2300
note_on channel=0 note=69 velocity=64 time=2300
note_off channel=0 note=69 velocity=64 time=2400
note_on channel=0 note=70 velocity=64 time=0
note_off channel=0 note=70 velocity=64 time=400
note_on channel=0 note=70 velocity=64 time=400
note_off channel=0 note=70 velocity=64 time=800
note_on channel=0 note=70 velocity=64 time=400
note_off channel=0 note=70 velocity=64 time=800
note_on channel=0 note=70 velocity=64 time=400
note_off channel=0 note=70 velocity=64 time=800
note_on channel=0 note=60 velocity=64 time=800
note_off channel=0 note=60 velocity=64 time=1200
note_on channel=0 note=61 velocity=64 time=1200
note_off channel=0 note=61 velocity=64 time=1400
note_on channel=0 note=67 velocity=64 time=1400
note_off channel=0 note=67 velocity=64 time=1800
note_on channel=0 note=64 velocity=64 time=1800
note_off channel=0 note=64 velocity=64 time=2000
note_on channel=0 note=70 velocity=64 time=1800
note_off channel=0 note=70 velocity=64 time=2000
note_on channel=0 note=67 velocity=64 time=1800
note_off channel=0 note=67 velocity=64 time=2000
note_on channel=0 note=61 velocity=64 time=2000
note_off channel=0 note=61 velocity=64 time=2400
note_on channel=0 note=69 velocity=64 time=0
note_off channel=0 note=69 velocity=64 time=100
note_on channel=0 note=60 velocity=64 time=0
note_off channel=0 note=60 velocity=64 time=100
note_on channel=0 note=60 velocity=64 time=100
note_off channel=0 note=60 velocity=64 time=200
note_on channel=0 note=61 velocity=64 time=200
note_off channel=0 note=61 velocity=64 time=400
note_on channel=0 note=69 velocity=64 time=400
note_off channel=0 note=69 velocity=64 time=500
note_on channel=0 note=67 velocity=64 time=500
note_off channel=0 note=67 velocity=64 time=600
note_on channel=0 note=70 velocity=64 time=500
note_off channel=0 note=70 velocity=64 time=600
note_on channel=0 note=61 velocity=64 time=600
note_off channel=0 note=61 velocity=64 time=1000
note_on channel=0 note=67 velocity=64 time=600
note_off channel=0 note=67 velocity=64 time=1000
note_on channel=0 note=60 velocity=64 time=1000
note_off channel=0 note=60 velocity=64 time=1100
note_on channel=0 note=64 velocity=64 time=1000
note_off channel=0 note=64 velocity=64 time=1100
note_on channel=0 note=69 velocity=64 time=1100
note_off channel=0 note=69 velocity=64 time=1200
note_on channel=0 note=60 velocity=64 time=1200
note_off channel=0 note=60 velocity=64 time=1400
note_on channel=0 note=69 velocity=64 time=1400
note_off channel=0 note=69 velocity=64 time=1500
note_on channel=0 note=65 velocity=64 time=1500
note_off channel=0 note=65 velocity=64 time=1700
note_on channel=0 note=64 velocity=64 time=1500
note_off channel=0 note=64 velocity=64 time=1700
note_on channel=0 note=64 velocity=64 time=1500
note_off channel=0 note=64 velocity=64 time=1700
note_on channel=0 note=67 velocity=64 time=1700
note_off channel=0 note=67 velocity=64 time=1900
note_on channel=0 note=67 velocity=64 time=1700
note_off channel=0 note=67 velocity=64 time=1900
note_on channel=0 note=61 velocity=64 time=1900
note_off channel=0 note=61 velocity=64 time=2000
note_on channel=0 note=64 velocity=64 time=1900
note_off channel=0 note=64 velocity=64 time=2000
note_on channel=0 note=65 velocity=64 time=2000
note_off channel=0 note=65 velocity=64 time=2400
note_on channel=0 note=64 velocity=64 time=0
note_off channel=0 note=64 velocity=64 time=200
note_on channel=0 note=60 velocity=64 time=0
note_off channel=0 note=60 velocity=64 time=200
note_on channel=0 note=61 velocity=64 time=0
note_off channel=0 note=61 velocity=64 time=200
note_on channel=0 note=67 velocity=64 time=200
note_off channel=0 note=67 velocity=64 time=400
note_on channel=0 note=69 velocity=64 time=200
note_off channel=0 note=69 velocity=64 time=400
note_on channel=0 note=69 velocity=64 time=400
note_off channel=0 note=69 velocity=64 time=600
note_on channel=0 note=67 velocity=64 time=400
note_off channel=0 note=67 velocity=64 time=600
note_on channel=0 note=65 velocity=64 time=400
note_off channel=0 note=65 velocity=64 time=600
note_on channel=0 note=65 velocity=64 time=600
note_off channel=0 note=65 velocity=64 time=1000
note_on channel=0 note=67 velocity=64 time=600
note_off channel=0 note=67 velocity=64 time=1000
note_on channel=0 note=64 velocity=64 time=600
note_off channel=0 note=64 velocity=64 time=1000
note_on channel=0 note=65 velocity=64 time=1000
note_off channel=0 note=65 velocity=64 time=1400
note_on channel=0 note=61 velocity=64 time=1000
note_off channel=0 note=61 velocity=64 time=1400
note_on channel=0 note=67 velocity=64 time=1400
note_off channel=0 note=67 velocity=64 time=1600
note_on channel=0 note=60 velocity=64 time=1400
note_off channel=0 note=60 velocity=64 time=1600
note_on channel=0 note=64 velocity=64 time=1600
note_off channel=0 note=64 velocity=64 time=1700
note_on channel=0 note=64 velocity=64 time=1700
note_off channel=0 note=64 velocity=64 time=1900
note_on channel=0 note=70 velocity=64 time=1700
note_off channel=0 note=70 velocity=64 time=1900
note_on channel=0 note=65 velocity=64 time=1900
note_off channel=0 note=65 velocity=64 time=2000
note_on channel=0 note=67 velocity=64 time=2000
note_off channel=0 note=67 velocity=64 time=2400
note_on channel=0 note=70 velocity=64 time=2000
note_off channel=0 note=70 velocity=64 time=2400
note_on channel=0 note=69 velocity=64 time=2000
note_off channel=0 note=69 velocity=64 time=2400
note_on channel=0 note=69 velocity=64 time=0
note_off channel=0 note=69 velocity=64 time=400
note_on channel=0 note=60 velocity=64 time=400
note_off channel=0 note=60 velocity=64 time=500
note_on channel=0 note=67 velocity=64 time=400
note_off channel=0 note=67 velocity=64 time=500
note_on channel=0 note=60 velocity=64 time=400
note_off channel=0 note=60 velocity=64 time=500
note_on channel=0 note=69 velocity=64 time=500
note_off channel=0 note=69 velocity=64 time=600
note_on channel=0 note=60 velocity=64 time=600
note_off channel=0 note=60 velocity=64 time=700
note_on channel=0 note=60 velocity=64 time=600
note_off channel=0 note=60 velocity=64 time=700
note_on channel=0 note=70 velocity=64 time=600
note_off channel=0 note=70 velocity=64 time=700
note_on channel=0 note=64 velocity=64 time=700
note_off channel=0 note=64 velocity=64 time=800
note_on channel=0 note=69 velocity=64 time=800
note_off channel=0 note=69 velocity=64 time=1200
note_on channel=0 note=69 velocity=64 time=1200
note_off channel=0 note=69 velocity=64 time=1600
note_on channel=0 note=70 velocity=64 time=1200
note_off channel=0 note=70 velocity=64 time=1600
note_on channel=0 note=69 velocity=64 time=1600
note_off channel=0 note=69 velocity=64 time=2000
note_on channel=0 note=60 velocity=64 time=1600
note_off channel=0 note=60 velocity=64 time=2000
note_on channel=0 note=65 velocity=64 time=2000
note_off channel=0 note=65 velocity=64 time=2100
note_on channel=0 note=61 velocity=64 time=2000
note_off channel=0 note=61 velocity=64 time=2100
note_on channel=0 note=65 velocity=64 time=2000
note_off channel=0 note=65 velocity=64 time=2100
note_on channel=0 note=60 velocity=64 time=2100
note_off channel=0 note=60 velocity=64 time=2200
note_on channel=0 note=64 velocity=64 time=2100
note_off channel=0 note=64 velocity=64 time=2200
note_on channel=0 note=65 velocity=64 time=2100
note_off channel=0 note=65 velocity=64 time=2200
note_on channel=0 note=70 velocity=64 time=2200
note_off channel=0 note=70 velocity=64 time=2600
note_on channel=0 note=65 velocity=64 time=0
note_off channel=0 note=65 velocity=64 time=400
note_on channel=0 note=61 velocity=64 time=400
note_off channel=0 note=61 velocity=64 time=600
note_on channel=0 note=67 velocity=64 time=400
note_off channel=0 note=67 velocity=64 time=600
note_on channel=0 note=64 velocity=64 time=600
note_off channel=0 note=64 velocity=64 time=800
note_on channel=0 note=60 velocity=64 time=600
note_off channel=0 note=60 velocity=64 time=800
note_on channel=0 note=65 velocity=64 time=600
note_off channel=0 note=65 velocity=64 time=800
note_on channel=0 note=70 velocity=64 time=800
note_off channel=0 note=70 velocity=64 time=1200
note_on channel=0 note=64 velocity=64 time=800
note_off channel=0 note=64 velocity=64 time=1200
note_on channel=0 note=65 velocity=64 time=800
note_off channel=0 note=65 velocity=64 time=1200
note_on channel=0 note=70 velocity=64 time=1200
note_off channel=0 note=70 velocity=64 time=1400
note_on channel=0 note=67 velocity=64 time=1200
note_off channel=0 note=67 velocity=64 time=1400
note_on channel=0 note=61 velocity=64 time=1200
note_off channel=0 note=61 velocity=64 time=1400
note_on channel=0 note=61 velocity=64 time=1400
note_off channel=0 note=61 velocity=64 time=1600
note_on channel=0 note=65 velocity=64 time=1600
note_off channel=0 note=65 velocity=64 time=2000
note_on channel=0 note=67 velocity=64 time=1600
note_off channel=0 note=67 velocity=64 time=2000
note_on channel=0 note=70 velocity=64 time=1600
note_off channel=0 note=70 velocity=64 time=2000
note_on channel=0 note=70 velocity=64 time=2000
note_off channel=0 note=70 velocity=64 time=2100
note_on channel=0 note=60 velocity=64 time=2000
note_off channel=0 note=60 velocity=64 time=2100
note_on channel=0 note=69 velocity=64 time=2000
note_off channel=0 note=69 velocity=64 time=2100
note_on channel=0 note=65 velocity=64 time=2100
note_off channel=0 note=65 velocity=64 time=2500
note_on channel=0 note=70 velocity=64 time=2100
note_off channel=0 note=70 velocity=64 time=2500
note_on channel=0 note=69 velocity=64 time=2100
note_off channel=0 note=69 velocity=64 time=2500
note_on channel=0 note=67 velocity=64 time=0
note_off channel=0 note=67 velocity=64 time=400
note_on channel=0 note=69 velocity=64 time=0
note_off channel=0 note=69 velocity=64 time=400
note_on channel=0 note=67 velocity=64 time=400
note_off channel=0 note=67 velocity=64 time=500
note_on channel=0 note=61 velocity=64 time=400
note_off channel=0 note=61 velocity=64 time=500
note_on channel=0 note=61 velocity=64 time=400
note_off channel=0 note=61 velocity=64 time=500
note_on channel=0 note=65 velocity=64 time=500
note_off channel=0 note=65 velocity=64 time=600
note_on channel=0 note=64 velocity=64 time=500
note_off channel=0 note=64 velocity=64 time=600
note_on channel=0 note=64 velocity=64 time=600
note_off channel=0 note=64 velocity=64 time=700
note_on channel=0 note=64 velocity=64 time=600
note_off channel=0 note=64 velocity=64 time=700
note_on channel=0 note=69 velocity=64 time=600
note_off channel=0 note=69 velocity=64 time=700
note_on channel=0 note=70 velocity=64 time=700
note_off channel=0 note=70 velocity=64 time=1100
note_on channel=0 note=65 velocity=64 time=700
note_off channel=0 note=65 velocity=64 time=1100
note_on channel=0 note=65 velocity=64 time=1100
note_off channel=0 note=65 velocity=64 time=1500
note_on channel=0 note=60 velocity=64 time=1500
note_off channel=0 note=60 velocity=64 time=1700
note_on channel=0 note=70 velocity=64 time=1500
note_off channel=0 note=70 velocity=64 time=1700
note_on channel=0 note=60 velocity=64 time=1500
note_off channel=0 note=60 velocity=64 time=1700
note_on channel=0 note=70 velocity=64 time=1700
note_off channel=0 note=70 velocity=64 time=1800
note_on channel=0 note=60 velocity=64 time=1700
note_off channel=0 note=60 velocity=64 time=1800
note_on channel=0 note=70 velocity=64 time=1700
note_off channel=0 note=70 velocity=64 time=1800
note_on channel=0 note=69 velocity=64 time=1800
note_off channel=0 note=69 velocity=64 time=2000
note_on channel=0 note=67 velocity=64 time=1800
note_off channel=0 note=67 velocity=64 time=2000
note_on channel=0 note=70 velocity=64 time=1800
note_off channel=0 note=70 velocity=64 time=2000
note_on channel=0 note=70 velocity=64 time=2000
note_off channel=0 note=70 velocity=64 time=2200
note_on channel=0 note=61 velocity=64 time=2200
note_off channel=0 note=61 velocity=64 time=2600
note_on channel=0 note=70 velocity=64 time=0
note_off channel=0 note=70 velocity=64 time=100
note_on channel=0 note=70 velocity=64 time=0
note_off channel=0 note=70 velocity=64 time=100
note_on channel=0 note=61 velocity=64 time=0
note_off channel=0 note=61 velocity=64 time=100
note_on channel=0 note=61 velocity=64 time=100
note_off channel=0 note=61 velocity=64 time=200
note_on channel=0 note=60 velocity=64 time=100
note_off channel=0 note=60 velocity=64 time=200
note_on channel=0 note=60 velocity=64 time=200
note_off channel=0 note=60 velocity=64 time=400
note_on channel=0 note=64 velocity=64 time=400
note_off channel=0 note=64 velocity=64 time=800
note_on channel=0 note=67 velocity=64 time=800
note_off channel=0 note=67 velocity=64 time=1000
note_on channel=0 note=60 velocity=64 time=800
note_off channel=0 note=60 velocity=64 time=1000
note_on channel=0 note=64 velocity=64 time=800
note_off channel=0 note=64 velocity=64 time=1000
note_on channel=0 note=65 velocity=64 time=1000
note_off channel=0 note=65 velocity=64 time=1400
note_on channel=0 note=61 velocity=64 time=1000
note_off channel=0 note=61 velocity=64 time=1400
note_on channel=0 note=70 velocity=64 time=1400
note_off channel=0 note=70 velocity=64 time=1500
note_on channel=0 note=64 velocity=64 time=1400
note_off channel=0 note=64 velocity=64 time=1500
note_on channel=0 note=65 velocity=64 time=1400
note_off channel=0 note=65 velocity=64 time=1500
note_on channel=0 note=60 velocity=64 time=1500
note_off channel=0 note=60 velocity=64 time=1700
note_on channel=0 note=65 velocity=64 time=1500
note_off channel=0 note=65 velocity=64 time=1700
note_on channel=0 note=70 velocity=64 time=1700
note_off channel=0 note=70 velocity=64 time=1900
note_on channel=0 note=60 velocity=64 time=1700
note_off channel=0 note=60 velocity=64 time=1900
note_on channel=0 note=70 velocity=64 time=1700
note_off channel=0 note=70 velocity=64 time=1900
note_on channel=0 note=69 velocity=64 time=1900
note_off channel=0 note=69 velocity=64 time=2300
note_on channel=0 note=69 velocity=64 time=1900
note_off channel=0 note=69 velocity=64 time=2300
note_on channel=0 note=64 velocity=64 time=1900
note_off channel=0 note=64 velocity=64 time=2300
note_on channel=0 note=67 velocity=64 time=2300
note_off channel=0 note=67 velocity=64 time=2500
note_on channel=0 note=69 velocity=64 time=2300
note_off channel=0 note=69 velocity=64 time=2500
note_on channel=0 note=61 velocity=64 time=2300
note_off channel=0 note=61 velocity=64 time=2500
note_on channel=0 note=65 velocity=64 time=0
note_off channel=0 note=65 velocity=64 time=400
note_on channel=0 note=65 velocity=64 time=0
note_off channel=0 note=65 velocity=64 time=400
note_on channel=0 note=67 velocity=64 time=0
note_off channel=0 note=67 velocity=64 time=400
note_on channel=0 note=60 velocity=64 time=400
note_off channel=0 note=60 velocity=64 time=800
note_on channel=0 note=64 velocity=64 time=400
note_off channel=0 note=64 velocity=64 time=800
note_on channel=0 note=69 velocity=64 time=800
note_off channel=0 note=69 velocity=64 time=900
note_on channel=0 note=67 velocity=64 time=800
note_off channel=0 note=67 velocity=64 time=900
note_on channel=0 note=69 velocity=64 time=800
note_off channel=0 note=69 velocity=64 time=900
note_on channel=0 note=64 velocity=64 time=900
note_off channel=0 note=64 velocity=64 time=1300
note_on channel=0 note=60 velocity=64 time=1300
note_off channel=0 note=60 velocity=64 time=1400
note_on channel=0 note=70 velocity=64 time=1300
note_off channel=0 note=70 velocity=64 time=1400
note_on channel=0 note=67 velocity=64 time=1400
note_off channel=0 note=67 velocity=64 time=1600
note_on channel=0 note=67 velocity=64 time=1400
note_off channel=0 note=67 velocity=64 time=1600
note_on channel=0 note=64 velocity=64 time=1600
note_off channel=0 note=64 velocity=64 time=1700
note_on channel=0 note=61 velocity=64 time=1600
note_off channel=0 note=61 velocity=64 time=1700
note_on channel=0 note=65 velocity=64 time=1600
note_off channel=0 note=65 velocity=64 time=1700
note_on channel=0 note=60 velocity=64 time=1700
note_off channel=0 note=60 velocity=64 time=2100
note_on channel=0 note=69 velocity=64 time=1700
note_off channel=0 note=69 velocity=64 time=2100
note_on channel=0 note=69 velocity=64 time=1700
note_off channel=0 note=69 velocity=64 time=2100
note_on channel=0 note=69 velocity=64 time=2100
note_off channel=0 note=69 velocity=64 time=2300
note_on channel=0 note=64 velocity=64 time=2100
note_off channel=0 note=64 velocity=64 time=2300
note_on channel=0 note=61 velocity=64 time=2100
note_off channel=0 note=61 velocity=64 time=2300
note_on channel=0 note=70 velocity=64 time=2300
note_off channel=0 note=70 velocity=64 time=2400
note_on channel=0 note=65 velocity=64 time=0
note_off channel=0 note=65 velocity=64 time=400
note_on channel=0 note=61 velocity=64 time=0
note_off channel=0 note=61 velocity=64 time=400
note_on channel=0 note=70 velocity=64 time=400
note_off channel=0 note=70 velocity=64 time=600
note_on channel=0 note=70 velocity=64 time=400
note_off channel=0 note=70 velocity=64 time=600
note_on channel=0 note=69 velocity=64 time=600
note_off channel=0 note=69 velocity=64 time=700
note_on channel=0 note=60 velocity=64 time=600
note_off channel=0 note=60 velocity=64 time=700
note_on channel=0 note=65 velocity=64 time=600
note_off channel=0 note=65 velocity=64 time=700
note_on channel=0 note=61 velocity=64 time=700
note_off channel=0 note=61 velocity=64 time=800
note_on channel=0 note=60 velocity=64 time=800
note_off channel=0 note=60 velocity=64 time=900
note_on channel=0 note=69 velocity=64 time=800
note_off channel=0 note=69 velocity=64 time=900
note_on channel=0 note=69 velocity=64 time=800
note_off channel=0 note=69 velocity=64 time=900
note_on channel=0 note=61 velocity=64 time=900
note_off channel=0 note=61 velocity=64 time=1300
note_on channel=0 note=64 velocity=64 time=900
note_off channel=0 note=64 velocity=64 time=1300
note_on channel=0 note=69 velocity=64 time=900
note_off channel=0 note=69 velocity=64 time=1300
note_on channel=0 note=67 velocity=64 time=1300
note_off channel=0 note=67 velocity=64 time=1400
note_on channel=0 note=69 velocity=64 time=1400
note_off channel=0 note=69 velocity=64 time=1500
note_on channel=0 note=65 velocity=64 time=1400
note_off channel=0 note=65 velocity=64 time=1500
note_on channel=0 note=61 velocity=64 time=1500
note_off channel=0 note=61 velocity=64 time=1700
note_on channel=0 note=70 velocity=64 time=1500
note_off channel=0 note=70 velocity=64 time=1700
note_on channel=0 note=64 velocity=64 time=1500
note_off channel=0 note=64 velocity=64 time=1700
note_on channel=0 note=69 velocity=64 time=1700
note_off channel=0 note=69 velocity=64 time=1900
note_on channel=0 note=70 velocity=64 time=1900
note_off channel=0 note=70 velocity=64 time=2300
note_on channel=0 note=64 velocity=64 time=1900
note_off channel=0 note=64 velocity=64 time=2300
note_on channel=0 note=64 velocity=64 time=2300
note_off channel=0 note=64 velocity=64 time=2700
note_on channel=0 note=65 velocity=64 time=2300
note_off channel=0 note=65 velocity=64 time=2700
note_on channel=0 note=65 velocity=64 time=2300
note_off channel=0 note=65 velocity=64 time=2700
note_on channel=0 note=64 velocity=64 time=0
note_off channel=0 note=64 velocity=64 time=400
note_on channel=0 note=65 velocity=64 time=400
note_off channel=0 note=65 velocity=64 time=500
note_on channel=0 note=60 velocity=64 time=400
note_off channel=0 note=60 velocity=64 time=500
note_on channel=0 note=65 velocity=64 time=500
note_off channel=0 note=65 velocity=64 time=600
note_on channel=0 note=64 velocity=64 time=500
note_off channel=0 note=64 velocity=64 time=600
note_on channel=0 note=65 velocity=64 time=600
note_off channel=0 note=65 velocity=64 time=800
note_on channel=0 note=69 velocity=64 time=800
note_off channel=0 note=69 velocity=64 time=1000
note_on channel=0 note=69 velocity=64 time=800
note_off channel=0 note=69 velocity=64 time=1000
note_on channel=0 note=70 velocity=64 time=1000
note_off channel=0 note=70 velocity=64 time=1100
note_on channel=0 note=69 velocity=64 time=1100
note_off channel=0 note=69 velocity=64 time=1300
note_on channel=0 note=69 velocity=64 time=1100
note_off channel=0 note=69 velocity=64 time=1300
note_on channel=0 note=61 velocity=64 time=1100
note_off channel=0 note=61 velocity=64 time=1300
note_on channel=0 note=67 velocity=64 time=1300
note_off channel=0 note=67 velocity=64 time=1500
note_on channel=0 note=69 velocity=64 time=1300
note_off channel=0 note=69 velocity=64 time=1500
note_on channel=0 note=69 velocity=64 time=1500
note_off channel=0 note=69 velocity=64 time=1700
note_on channel=0 note=64 velocity=64 time=1700
note_off channel=0 note=64 velocity=64 time=1900
note_on channel=0 note=61 velocity=64 time=1700
note_off channel=0 note=61 velocity=64 time=1900
note_on channel=0 note=61 velocity=64 time=1700
note_off channel=0 note=61 velocity=64 time=1900
note_on channel=0 note=70 velocity=64 time=1900
note_off channel=0 note=70 velocity=64 time=2300
note_on channel=0 note=60 velocity=64 time=2300
note_off channel=0 note=60 velocity=64 time=2700
note_on channel=0 note=64 velocity=64 time=2300
note_off channel=0 note=64 velocity=64 time=2700
note_on channel=0 note=69 velocity=64 time=0
note_off channel=0 note=69 velocity=64 time=200
note_on channel=0 note=65 velocity=64 time=0
note_off channel=0 note=65 velocity=64 time=200
note_on channel=0 note=67 velocity=64 time=200
note_off channel=0 note=67 velocity=64 time=300
note_on channel=0 note=65 velocity=64 time=200
note_off channel=0 note=65 velocity=64 time=300
note_on channel=0 note=64 velocity=64 time=300
note_off channel=0 note=64 velocity=64 time=400
note_on channel=0 note=60 velocity=64 time=400
note_off channel=0 note=60 velocity=64 time=800
note_on channel=0 note=65 velocity=64 time=800
note_off channel=0 note=65 velocity=64 time=1200
note_on channel=0 note=67 velocity=64 time=800
note_off channel=0 note=67 velocity=64 time=1200
note_on channel=0 note=61 velocity=64 time=1200
note_off channel=0 note=61 velocity=64 time=1300
note_on channel=0 note=67 velocity=64 time=1200
note_off channel=0 note=67 velocity=64 time=1300
note_on channel=0 note=70 velocity=64 time=1300
note_off channel=0 note=70 velocity=64 time=1500
note_on channel=0 note=67 velocity=64 time=1300
note_off channel=0 note=67 velocity=64 time=1500
note_on channel=0 note=61 velocity=64 time=1500
note_off channel=0 note=61 velocity=64 time=1900
note_on channel=0 note=65 velocity=64 time=1500
note_off channel=0 note=65 velocity=64 time=1900
note_on channel=0 note=67 velocity=64 time=1900
note_off channel=0 note=67 velocity=64 time=2100
note_on channel=0 note=61 velocity=64 time=1900
note_off channel=0 note=61 velocity=64 time=2100
note_on channel=0 note=69 velocity=64 time=2100
note_off channel=0 note=69 velocity=64 time=2500
note_on channel=0 note=61 velocity=64 time=0
note_off channel=0 note=61 velocity=64 time=400
note_on channel=0 note=70 velocity=64 time=400
note_off channel=0 note=70 velocity=64 time=600
note_on channel=0 note=60 velocity=64 time=400
note_off channel=0 note=60 velocity=64 time=600
note_on channel=0 note=70 velocity=64 time=400
note_off channel=0 note=70 velocity=64 time=600
note_on channel=0 note=60 velocity=64 time=600
note_off channel=0 note=60 velocity=64 time=700
note_on channel=0 note=64 velocity=64 time=600
note_off channel=0 note=64 velocity=64 time=700
note_on channel=0 note=69 velocity=64 time=700
note_off channel=0 note=69 velocity=64 time=800
note_on channel=0 note=70 velocity=64 time=700
note_off channel=0 note=70 velocity=64 time=800
note_on channel=0 note=64 velocity=64 time=800
note_off channel=0 note=64 velocity=64 time=1200
note_on channel=0 note=70 velocity=64 time=800
note_off channel=0 note=70 velocity=64 time=1200
note_on channel=0 note=70 velocity=64 time=1200
note_off channel=0 note=70 velocity=64 time=1600
note_on channel=0 note=70 velocity=64 time=1200
note_off channel=0 note=70 velocity=64 time=1600
note_on channel=0 note=64 velocity=64 time=1600
note_off channel=0 note=64 velocity=64 time=1700
note_on channel=0 note=64 velocity=64 time=1700
note_off channel=0 note=64 velocity=64 time=2100
note_on channel=0 note=61 velocity=64 time=1700
note_off channel=0 note=61 velocity=64 time=2100
note_on channel=0 note=64 velocity=64 time=2100
note_off channel=0 note=64 velocity=64 time=2200
note_on channel=0 note=60 velocity=64 time=2200
note_off channel=0 note=60 velocity=64 time=2400
note_on channel=0 note=61 velocity=64 time=2200
note_off channel=0 note=61 velocity=64 time=2400
note_on channel=0 note=67 velocity=64 time=0
note_off channel=0 note=67 velocity=64 time=100
note_on channel=0 note=65 velocity=64 time=0
note_off channel=0 note=65 velocity=64 time=100
note_on channel=0 note=70 velocity=64 time=100
note_off channel=0 note=70 velocity=64 time=200
note_on channel=0 note=60 velocity=64 time=100
note_off channel=0 note=60 velocity=64 time=200
note_on channel=0 note=69 velocity=64 time=200
note_off channel=0 note=69 velocity=64 time=600
note_on channel=0 note=70 velocity=64 time=600
note_off channel=0 note=70 velocity=64 time=1000
note_on channel=0 note=67 velocity=64 time=600
note_off channel=0 note=67 velocity=64 time=1000
note_on channel=0 note=65 velocity=64 time=600
note_off channel=0 note=65 velocity=64 time=1000
note_on channel=0 note=64 velocity=64 time=1000
note_off channel=0 note=64 velocity=64 time=1100
note_on channel=0 note=69 velocity=64 time=1100
note_off channel=0 note=69 velocity=64 time=1300
note_on channel=0 note=67 velocity=64 time=1300
note_off channel=0 note=67 velocity=64 time=1400
note_on channel=0 note=61 velocity=64 time=1300
note_off channel=0 note=61 velocity=64 time=1400
note_on channel=0 note=65 velocity=64 time=1400
note_off channel=0 note=65 velocity=64 time=1600
note_on channel=0 note=61 velocity=64 time=1600
note_off channel=0 note=61 velocity=64 time=1800
note_on channel=0 note=67 velocity=64 time=1800
note_off channel=0 note=67 velocity=64 time=2000
note_on channel=0 note=65 velocity=64 time=2000
note_off channel=0 note=65 velocity=64 time=2100
note_on channel=0 note=61 velocity=64 time=2100
note_off channel=0 note=61 velocity=64 time=2200
note_on channel=0 note=61 velocity=64 time=2200
note_off channel=0 note=61 velocity=64 time=2300
note_on channel=0 note=61 velocity=64 time=2200
note_off channel=0 note=61 velocity=64 time=2300
note_on channel=0 note=70 velocity=64 time=2200
note_off channel=0 note=70 velocity=64 time=2300
note_on channel=0 note=60 velocity=64 time=2300
note_off channel=0 note=60 velocity=64 time=2700
note_on channel=0 note=70 velocity=64 time=2300
note_off channel=0 note=70 velocity=64 time=2700
note_on channel=0 note=70 velocity=64 time=0
note_off channel=0 note=70 velocity=64 time=200
note_on channel=0 note=67 velocity=64 time=200
note_off channel=0 note=67 velocity=64 time=400
note_on channel=0 note=69 velocity=64 time=200
note_off channel=0 note=69 velocity=64 time=400
note_on channel=0 note=69 velocity=64 time=200
note_off channel=0 note=69 velocity=64 time=400
note_on channel=0 note=60 velocity=64 time=400
note_off channel=0 note=60 velocity=64 time=800
note_on channel=0 note=61 velocity=64 time=400
note_off channel=0 note=61 velocity=64 time=800
note_on channel=0 note=64 velocity=64 time=800
note_off channel=0 note=64 velocity=64 time=1200
note_on channel=0 note=69 velocity=64 time=1200
note_off channel=0 note=69 velocity=64 time=1400
note_on channel=0 note=67 velocity=64 time=1200
note_off channel=0 note=67 velocity=64 time=1400
note_on channel=0 note=61 velocity=64 time=1400
note_off channel=0 note=61 velocity=64 time=1600
note_on channel=0 note=69 velocity=64 time=1400
note_off channel=0 note=69 velocity=64 time=1600
note_on channel=0 note=69 velocity=64 time=1400
note_off channel=0 note=69 velocity=64 time=1600
note_on channel=0 note=70 velocity=64 time=1600
note_off channel=0 note=70 velocity=64 time=1800
note_on channel=0 note=60 velocity=64 time=1600
note_off channel=0 note=60 velocity=64 time=1800
note_on channel=0 note=67 velocity=64 time=1800
note_off channel=0 note=67 velocity=64 time=1900
note_on channel=0 note=60 velocity=64 time=1800
note_off channel=0 note=60 velocity=64 time=1900
note_on channel=0 note=70 velocity=64 time=1800
note_off channel=0 note=70 velocity=64 time=1900
note_on channel=0 note=67 velocity=64 time=1900
note_off channel=0 note=67 velocity=64 time=2000
note_on channel=0 note=60 velocity=64 time=1900
note_off channel=0 note=60 velocity=64 time=2000
note_on channel=0 note=67 velocity=64 time=2000
note_off channel=0 note=67 velocity=64 time=2200
note_on channel=0 note=65 velocity=64 time=2000
note_off channel=0 note=65 velocity=64 time=2200
note_on channel=0 note=69 velocity=64 time=2000
note_off channel=0 note=69 velocity=64 time=2200
note_on channel=0 note=69 velocity=64 time=2200
note_off channel=0 note=69 velocity=64 time=2300
note_on channel=0 note=60 velocity=64 time=2300
note_off channel=0 note=60 velocity=64 time=2500
note_on channel=0 note=64 velocity=64 time=0
note_off channel=0 note=64 velocity=64 time=200
note_on channel=0 note=65 velocity=64 time=200
note_off channel=0 note=65 velocity=64 time=300
note_on channel=0 note=67 velocity=64 time=300
note_off channel=0 note=67 velocity=64 time=500
note_on channel=0 note=69 velocity=64 time=500
note_off channel=0 note=69 velocity=64 time=600
note_on channel=0 note=65 velocity=64 time=500
note_off channel=0 note=65 velocity=64 time=600
note_on channel=0 note=65 velocity=64 time=500
note_off channel=0 note=65 velocity=64 time=600
note_on channel=0 note=60 velocity=64 time=600
note_off channel=0 note=60 velocity=64 time=1000
note_on channel=0 note=65 velocity=64 time=1000
note_off channel=0 note=65 velocity=64 time=1200
note_on channel=0 note=69 velocity=64 time=1200
note_off channel=0 note=69 velocity=64 time=1600
note_on channel=0 note=60 velocity=64 time=1200
note_off channel=0 note=60 velocity=64 time=1600
note_on channel=0 note=60 velocity=64 time=1200
note_off channel=0 note=60 velocity=64 time=1600
note_on channel=0 note=64 velocity=64 time=1600
note_off channel=0 note=64 velocity=64 time=1800
note_on channel=0 note=60 velocity=64 time=1800
note_off channel=0 note=60 velocity=64 time=2200
note_on channel=0 note=64 velocity=64 time=2200
note_off channel=0 note=64 velocity=64 time=2400
note_on channel=0 note=69 velocity=64 time=2200
note_off channel=0 note=69 velocity=64 time=2400
note_on channel=0 note=61 velocity=64 time=0
note_off channel=0 note=61 velocity=64 time=200
note_on channel=0 note=65 velocity=64 time=0
note_off channel=0 note=65 velocity=64 time=200
note_on channel=0 note=60 velocity=64 time=200
note_off channel=0 note=60 velocity=64 time=600
note_on channel=0 note=65 velocity=64 time=600
note_off channel=0 note=65 velocity=64 time=1000
note_on channel=0 note=65 velocity=64 time=600
note_off channel=0 note=65 velocity=64 time=1000
note_on channel=0 note=60 velocity=64 time=1000
note_off channel=0 note=60 velocity=64 time=1100
note_on channel=0 note=70 velocity=64 time=1000
note_off channel=0 note=70 velocity=64 time=1100
note_on channel=0 note=64 velocity=64 time=1100
note_off channel=0 note=64 velocity=64 time=1500
note_on channel=0 note=69 velocity=64 time=1100
note_off channel=0 note=69 velocity=64 time=1500
note_on channel=0 note=64 velocity=64 time=1100
note_off channel=0 note=64 velocity=64 time=1500
note_on channel=0 note=64 velocity=64 time=1500
note_off channel=0 note=64 velocity=64 time=1600
note_on channel=0 note=67 velocity=64 time=1600
note_off channel=0 note=67 velocity=64 time=1800
note_on channel=0 note=70 velocity=64 time=1800
note_off channel=0 note=70 velocity=64 time=1900
note_on channel=0 note=61 velocity=64 time=1800
note_off channel=0 note=61 velocity=64 time=1900
note_on channel=0 note=61 velocity=64 time=1900
note_off channel=0 note=61 velocity=64 time=2000
note_on channel=0 note=67 velocity=64 time=1900
note_off channel=0 note=67 velocity=64 time=2000
note_on channel=0 note=60 velocity=64 time=1900
note_off channel=0 note=60 velocity=64 time=2000
note_on channel=0 note=69 velocity=64 time=2000
note_off channel=0 note=69 velocity=64 time=2400
note_on channel=0 note=67 velocity=64 time=2000
note_off channel=0 note=67 velocity=64 time=2400
note_on channel=0 note=65 velocity=64 time=0
note_off channel=0 note=65 velocity=64 time=200
note_on channel=0 note=64 velocity=64 time=200
note_off channel=0 note=64 velocity=64 time=600
note_on channel=0 note=69 velocity=64 time=200
note_off channel=0 note=69 velocity=64 time=600
note_on channel=0 note=67 velocity=64 time=600
note_off channel=0 note=67 velocity=64 time=1000
note_on channel=0 note=65 velocity=64 time=1000
note_off channel=0 note=65 velocity=64 time=1400
note_on channel=0 note=70 velocity=64 time=1000
note_off channel=0 note=70 velocity=64 time=1400
note_on channel=0 note=70 velocity=64 time=1400
note_off channel=0 note=70 velocity=64 time=1600
note_on channel=0 note=65 velocity=64 time=1400
note_off channel=0 note=65 velocity=64 time=1600
note_on channel=0 note=67 velocity=64 time=1600
note_off channel=0 note=67 velocity=64 time=2000
note_on channel=0 note=64 velocity=64 time=1600
note_off channel=0 note=64 velocity=64 time=2000
note_on channel=0 note=61 velocity=64 time=1600
note_off channel=0 note=61 velocity=64 time=2000
note_on channel=0 note=70 velocity=64 time=2000
note_off channel=0 note=70 velocity=64 time=2200
note_on channel=0 note=64 velocity=64 time=2000
note_off channel=0 note=64 velocity=64 time=2200
note_on channel=0 note=67 velocity=64 time=2200
note_off channel=0 note=67 velocity=64 time=2600
note_on channel=0 note=61 velocity=64 time=0
note_off channel=0 note=61 velocity=64 time=400
note_on channel=0 note=70 velocity=64 time=0
note_off channel=0 note=70 velocity=64 time=400
note_on channel=0 note=64 velocity=64 time=0
note_off channel=0 note=64 velocity=64 time=400
note_on channel=0 note=67 velocity=64 time=400
note_off channel=0 note=67 velocity=64 time=500
note_on channel=0 note=70 velocity=64 time=400
note_off channel=0 note=70 velocity=64 time=500
note_on channel=0 note=67 velocity=64 time=500
note_off channel=0 note=67 velocity=64 time=700
note_on channel=0 note=70 velocity=64 time=500
note_off channel=0 note=70 velocity=64 time=700
note_on channel=0 note=64 velocity=64 time=700
note_off channel=0 note=64 velocity=64 time=1100
note_on channel=0 note=61 velocity=64 time=700
note_off channel=0 note=61 velocity=64 time=1100
note_on channel=0 note=70 velocity=64 time=700
note_off channel=0 note=70 velocity=64 time=1100
note_on channel=0 note=65 velocity=64 time=1100
note_off channel=0 note=65 velocity=64 time=1200
note_on channel=0 note=69 velocity=64 time=1200
note_off channel=0 note=69 velocity=64 time=1300
note_on channel=0 note=70 velocity=64 time=1200
note_off channel=0 note=70 velocity=64 time=1300
note_on channel=0 note=67 velocity=64 time=1300
note_off channel=0 note=67 velocity=64 time=1500
note_on channel=0 note=67 velocity=64 time=1500
note_off channel=0 note=67 velocity=64 time=1600
note_on channel=0 note=70 velocity=64 time=1500
note_off channel=0 note=70 velocity=64 time=1600
note_on channel=0 note=69 velocity=64 time=1500
note_off channel=0 note=69 velocity=64 time=1600
note_on channel=0 note=67 velocity=64 time=1600
note_off channel=0 note=67 velocity=64 time=2000
note_on channel=0 note=61 velocity=64 time=2000
note_off channel=0 note=61 velocity=64 time=2400
note_on channel=0 note=69 velocity=64 time=2000
note_off channel=0 note=69 velocity=64 time=2400
note_on channel=0 note=67 velocity=64 time=2000
note_off channel=0 note=67 velocity=64 time=2400
